<svg width="20" height="20" viewBox="0 0 20 20" fill="none" xmlns="http://www.w3.org/2000/svg">
<path d="M19.6506 18.2503L15.9557 14.5824C17.39 12.7928 18.0845 10.5212 17.8966 8.23484C17.7087 5.94844 16.6525 3.82099 14.9454 2.28994C13.2382 0.758885 11.0097 -0.0593921 8.71821 0.0033598C6.42668 0.0661117 4.24628 1.00512 2.62532 2.62731C1.00436 4.2495 0.0660615 6.43157 0.00335725 8.72483C-0.059347 11.0181 0.758309 13.2482 2.2882 14.9567C3.81809 16.6652 5.94392 17.7221 8.22858 17.9102C10.5132 18.0983 12.7831 17.4032 14.5714 15.9678L18.2364 19.6357C18.329 19.7291 18.4391 19.8032 18.5605 19.8538C18.6819 19.9044 18.812 19.9305 18.9435 19.9305C19.075 19.9305 19.2052 19.9044 19.3265 19.8538C19.4479 19.8032 19.558 19.7291 19.6506 19.6357C19.8301 19.4498 19.9305 19.2014 19.9305 18.943C19.9305 18.6845 19.8301 18.4361 19.6506 18.2503ZM8.9842 15.9678C7.60536 15.9678 6.25749 15.5587 5.11103 14.792C3.96457 14.0254 3.07101 12.9358 2.54335 11.6609C2.0157 10.3861 1.87764 8.98328 2.14663 7.62991C2.41563 6.27654 3.0796 5.03339 4.05459 4.05767C5.02957 3.08194 6.27178 2.41747 7.62412 2.14826C8.97647 1.87906 10.3782 2.01723 11.6521 2.54529C12.926 3.07334 14.0148 3.96758 14.7808 5.11491C15.5468 6.26224 15.9557 7.61114 15.9557 8.99102C15.9557 10.8414 15.2212 12.616 13.9138 13.9244C12.6064 15.2328 10.8332 15.9678 8.9842 15.9678Z" fill="white"/>
</svg>
