<svg width="423" height="439" viewBox="0 0 423 439" fill="none" xmlns="http://www.w3.org/2000/svg">
<g clip-path="url(#clip0_22_396)">
<path d="M86.4432 4.38066C86.3082 4.28637 86.1802 4.18859 86.016 4.15018C85.8961 4.12224 85.7588 4.12574 85.6354 4.11992L85.1395 4.0978C84.8148 4.08383 84.49 4.06987 84.1653 4.05474C83.9686 4.04659 83.7299 4.13156 83.5798 4.25843C83.4471 4.37251 83.3284 4.56806 83.3377 4.74965C83.361 5.16403 83.7602 5.46201 84.1653 5.44455C84.49 5.43059 84.8148 5.41662 85.1395 5.40148C85.299 5.3945 85.4573 5.38752 85.6168 5.38053C85.746 5.37471 85.8903 5.37937 86.016 5.35027C86.1813 5.31186 86.3082 5.21407 86.4432 5.11979C86.6807 4.95334 86.6807 4.54711 86.4432 4.38066Z" fill="#D7E5FF"/>
<path d="M122.539 84.1995C122.458 84.2019 122.379 84.2042 122.299 84.2065C122.14 84.2112 121.981 84.2158 121.822 84.2217C121.693 84.2251 121.556 84.2635 121.456 84.3485C121.372 84.4195 121.298 84.5429 121.304 84.657C121.319 84.9317 121.569 85.0842 121.822 85.0923C121.981 85.097 122.14 85.1016 122.299 85.1063C122.379 85.1086 122.458 85.1109 122.539 85.1133C122.619 85.1156 122.702 85.1051 122.777 85.0783C122.898 85.0364 123.023 84.9922 123.094 84.8758C123.136 84.8083 123.167 84.7373 123.167 84.657C123.167 84.3474 122.808 84.1914 122.539 84.1995Z" fill="#D7E5FF"/>
<path d="M389.605 3.79385C389.554 3.65999 389.462 3.57968 389.341 3.50635C389.052 3.32825 388.763 3.15016 388.475 2.97207C388.186 2.79397 387.863 2.65895 387.558 2.5088C387.404 2.43197 387.203 2.41218 387.037 2.45176C386.892 2.48552 386.715 2.58096 386.632 2.71366C386.449 3.00699 386.575 3.33989 386.875 3.49238C387.178 3.64603 387.479 3.82411 387.795 3.95099C388.117 4.08019 388.441 4.2094 388.763 4.3386C388.906 4.39564 389.051 4.42357 389.204 4.38749C389.328 4.35839 389.477 4.27807 389.547 4.16633C389.615 4.05575 389.653 3.92072 389.605 3.79385Z" fill="#D7E5FF"/>
<path d="M414.106 156.092C414.031 156.037 413.958 156.003 413.874 155.968C413.829 155.949 413.782 155.93 413.734 155.917C413.678 155.901 413.621 155.897 413.564 155.896C413.526 155.895 413.486 155.894 413.447 155.893C413.291 155.888 413.135 155.883 412.979 155.878C412.859 155.874 412.717 155.923 412.625 156.001C412.545 156.07 412.473 156.187 412.478 156.298C412.492 156.552 412.734 156.726 412.979 156.718C413.136 156.713 413.292 156.708 413.447 156.703C413.483 156.702 413.52 156.701 413.555 156.699C413.613 156.698 413.671 156.695 413.726 156.681C413.777 156.668 413.826 156.647 413.874 156.626C413.958 156.59 414.031 156.557 414.106 156.503C414.237 156.407 414.237 156.19 414.106 156.092Z" fill="#D7E5FF"/>
<path d="M401.446 365.366C401.341 365.277 401.177 365.219 401.038 365.224C400.894 365.23 400.738 365.266 400.629 365.366C400.537 365.451 400.447 365.577 400.459 365.71C400.489 366.016 400.521 366.322 400.55 366.628C400.561 366.744 400.601 366.84 400.693 366.917C400.781 366.992 400.92 367.041 401.036 367.036C401.157 367.032 401.289 367.002 401.381 366.917L401.457 366.834C401.5 366.772 401.522 366.704 401.523 366.628C401.553 366.322 401.585 366.016 401.614 365.71C401.628 365.586 401.536 365.442 401.446 365.366Z" fill="#D7E5FF"/>
<path d="M282.989 368.117C282.933 368.041 282.865 367.971 282.802 367.9C282.708 367.792 282.604 367.694 282.5 367.594C282.358 367.455 282.216 367.318 282.073 367.18C282.015 367.128 281.95 367.092 281.874 367.072C281.8 367.04 281.719 367.024 281.637 367.027C281.491 367.027 281.308 367.078 281.199 367.178C281.098 367.273 281.01 367.401 281.019 367.546C281.026 367.593 281.034 367.638 281.041 367.685C281.072 367.776 281.126 367.852 281.2 367.914L281.716 368.445C281.801 368.533 281.893 368.614 281.985 368.694C281.998 368.704 282.008 368.715 282.02 368.724C282.087 368.778 282.151 368.813 282.23 368.841C282.304 368.873 282.383 368.887 282.464 368.885C282.518 368.879 282.573 368.873 282.626 368.866C282.633 368.865 282.64 368.862 282.646 368.86C282.653 368.858 282.66 368.856 282.667 368.853C282.706 368.838 282.747 368.824 282.788 368.81C282.846 368.785 282.894 368.749 282.931 368.7C282.953 368.676 282.971 368.657 282.99 368.632C283.102 368.483 283.095 368.266 282.989 368.117Z" fill="#D7E5FF"/>
<path d="M168.416 238.856C168.414 238.801 168.398 238.751 168.367 238.705C168.354 238.679 168.341 238.653 168.327 238.626C168.314 238.604 168.3 238.582 168.285 238.56C168.241 238.495 168.178 238.439 168.122 238.382C168.102 238.362 168.085 238.342 168.065 238.322C167.987 238.242 167.908 238.161 167.829 238.08C167.672 237.919 167.515 237.757 167.359 237.595C167.288 237.532 167.207 237.489 167.118 237.465C167.026 237.424 166.93 237.406 166.828 237.41C166.727 237.406 166.63 237.424 166.539 237.465C166.45 237.489 166.369 237.532 166.298 237.595C166.175 237.709 166.069 237.864 166.078 238.041C166.088 238.097 166.097 238.152 166.105 238.208C166.143 238.319 166.207 238.411 166.298 238.487C166.458 238.641 166.617 238.797 166.778 238.952C166.856 239.029 166.935 239.105 167.014 239.181C167.052 239.219 167.09 239.263 167.134 239.296C167.157 239.313 167.181 239.327 167.205 239.343C167.256 239.377 167.31 239.417 167.366 239.446C167.448 239.49 167.536 239.513 167.629 239.517C167.664 239.525 167.701 239.528 167.736 239.527C167.797 239.52 167.858 239.513 167.92 239.506C168.006 239.49 168.085 239.455 168.154 239.403C168.205 239.378 168.246 239.344 168.278 239.299C168.338 239.245 168.378 239.179 168.4 239.102C168.427 238.999 168.43 238.949 168.416 238.856Z" fill="#D7E5FF"/>
<path d="M121.684 32.028C121.648 31.9349 121.589 31.858 121.509 31.7963C121.428 31.7242 121.336 31.6753 121.234 31.6485C121.13 31.6031 121.02 31.5822 120.905 31.5868C120.692 31.595 120.461 31.6485 120.3 31.7975C120.16 31.9267 120.038 32.1048 120.049 32.3062C120.057 32.4412 120.064 32.575 120.072 32.7101L120.084 32.9115C120.085 32.9417 120.087 32.9731 120.089 33.0034C120.092 33.0767 120.094 33.1559 120.119 33.2222C120.146 33.2769 120.174 33.3317 120.201 33.3864C120.246 33.4364 120.292 33.4853 120.338 33.5342C120.413 33.6017 120.499 33.6483 120.596 33.6739C120.694 33.7169 120.796 33.7356 120.905 33.7321C120.977 33.7239 121.047 33.7158 121.119 33.7076C121.249 33.6774 121.368 33.6203 121.471 33.5342C121.561 33.4399 121.655 33.3549 121.69 33.2222C121.708 33.1571 121.717 33.0802 121.72 33.0127L121.726 32.9115C121.73 32.8439 121.733 32.7764 121.738 32.7101C121.745 32.575 121.753 32.4412 121.76 32.3062C121.761 32.2026 121.738 32.1106 121.684 32.028Z" fill="#D7E5FF"/>
<path d="M6.09455 15.0684C5.03996 15.0684 5.03763 16.4745 6.09455 16.4745C7.15029 16.4745 7.15262 15.0684 6.09455 15.0684Z" fill="#D7E5FF"/>
<path d="M60.9215 116.342C60.8947 116.272 60.8412 116.223 60.7946 116.169C60.7911 116.151 60.7876 116.134 60.7829 116.116C60.762 115.946 60.741 115.776 60.7201 115.605C60.7224 115.546 60.7073 115.491 60.6759 115.442C60.6537 115.388 60.62 115.342 60.5723 115.306C60.4803 115.228 60.336 115.177 60.2149 115.182C60.0892 115.186 59.9519 115.218 59.8576 115.306C59.832 115.334 59.8052 115.363 59.7784 115.392C59.7342 115.456 59.7097 115.527 59.7097 115.607C59.6876 115.776 59.6678 115.946 59.6457 116.116C59.6457 116.119 59.6446 116.121 59.6446 116.123C59.5829 116.186 59.534 116.261 59.5084 116.342C59.4734 116.452 59.4734 116.561 59.5084 116.669C59.5328 116.752 59.577 116.822 59.6387 116.879C59.6934 116.949 59.761 117.001 59.8448 117.037C59.9612 117.093 60.0846 117.121 60.2138 117.121C60.4035 117.121 60.5816 117.057 60.7306 116.94C60.9028 116.808 61.0006 116.552 60.9215 116.342Z" fill="#D7E5FF"/>
<path d="M154.686 110.827C154.643 110.705 154.571 110.601 154.471 110.518C154.257 110.32 153.982 110.244 153.697 110.252C153.618 110.255 153.537 110.256 153.458 110.259C153.299 110.264 153.141 110.269 152.981 110.273C152.761 110.279 152.528 110.344 152.357 110.491C152.275 110.554 152.213 110.634 152.176 110.73C152.121 110.816 152.096 110.911 152.1 111.015C152.11 111.216 152.195 111.412 152.358 111.539C152.54 111.681 152.752 111.749 152.982 111.756C153.142 111.761 153.3 111.765 153.459 111.77C153.539 111.772 153.619 111.775 153.698 111.777C153.981 111.785 154.26 111.707 154.472 111.511C154.551 111.45 154.608 111.376 154.644 111.285C154.696 111.204 154.719 111.114 154.717 111.015C154.705 110.952 154.694 110.89 154.686 110.827Z" fill="#D7E5FF"/>
<path d="M119.437 136.362C119.303 136.267 119.175 136.17 119.011 136.131C118.89 136.103 118.754 136.107 118.63 136.101L118.133 136.079C117.81 136.065 117.484 136.051 117.16 136.036C116.963 136.027 116.725 136.112 116.575 136.24C116.442 136.352 116.322 136.549 116.332 136.731C116.355 137.145 116.755 137.444 117.16 137.427C117.484 137.413 117.81 137.398 118.133 137.384C118.293 137.377 118.451 137.37 118.61 137.363C118.741 137.357 118.885 137.362 119.011 137.333C119.176 137.294 119.303 137.196 119.437 137.102C119.675 136.934 119.675 136.528 119.437 136.362Z" fill="#D7E5FF"/>
<path d="M155.534 216.181C155.455 216.183 155.374 216.186 155.295 216.188C155.136 216.193 154.977 216.197 154.818 216.203C154.689 216.207 154.551 216.245 154.452 216.33C154.369 216.401 154.294 216.524 154.3 216.638C154.315 216.913 154.564 217.067 154.818 217.074C154.977 217.078 155.136 217.083 155.295 217.089C155.374 217.091 155.455 217.094 155.534 217.096C155.615 217.098 155.697 217.087 155.773 217.06C155.895 217.018 156.019 216.974 156.09 216.857C156.132 216.79 156.162 216.719 156.162 216.638C156.162 216.329 155.804 216.173 155.534 216.181Z" fill="#D7E5FF"/>
<path d="M220.222 87.7752C220.129 87.7368 220.035 87.6914 219.937 87.6775C219.84 87.6623 219.743 87.6472 219.646 87.6367C219.47 87.6158 219.288 87.6193 219.11 87.6134C218.986 87.61 218.837 87.6612 218.741 87.7426C218.657 87.8148 218.582 87.9382 218.587 88.0534C218.603 88.3177 218.854 88.5016 219.11 88.4923C219.288 88.4864 219.47 88.4899 219.646 88.469C219.74 88.4585 219.833 88.4434 219.927 88.4294C220.031 88.4143 220.126 88.3689 220.222 88.3305C220.329 88.2862 220.41 88.1687 220.41 88.0534C220.41 87.9382 220.329 87.8183 220.222 87.7752Z" fill="#D7E5FF"/>
<path d="M422.601 135.775C422.549 135.641 422.457 135.561 422.336 135.488C422.048 135.31 421.759 135.132 421.47 134.954C421.182 134.775 420.858 134.64 420.554 134.49C420.4 134.413 420.199 134.394 420.033 134.433C419.886 134.467 419.71 134.562 419.628 134.695C419.445 134.988 419.571 135.321 419.871 135.474C420.174 135.627 420.475 135.806 420.789 135.932C421.112 136.062 421.436 136.191 421.758 136.32C421.901 136.377 422.047 136.405 422.2 136.369C422.322 136.34 422.473 136.26 422.542 136.148C422.61 136.037 422.648 135.901 422.601 135.775Z" fill="#D7E5FF"/>
<path d="M201.409 370.837C201.409 370.782 201.393 370.732 201.362 370.687C201.349 370.66 201.336 370.634 201.322 370.607C201.309 370.585 201.295 370.563 201.28 370.541C201.236 370.476 201.173 370.42 201.117 370.363C201.097 370.343 201.079 370.323 201.06 370.304C200.981 370.223 200.902 370.142 200.824 370.062C200.667 369.9 200.509 369.738 200.353 369.576C200.282 369.513 200.202 369.47 200.111 369.446C200.021 369.405 199.924 369.388 199.823 369.391C199.721 369.388 199.625 369.405 199.534 369.446C199.444 369.47 199.364 369.513 199.293 369.576C199.17 369.69 199.064 369.845 199.073 370.022C199.082 370.078 199.092 370.134 199.1 370.19C199.138 370.3 199.202 370.393 199.293 370.468C199.453 370.624 199.612 370.779 199.771 370.933C199.851 371.01 199.93 371.086 200.009 371.163C200.047 371.201 200.085 371.244 200.128 371.277C200.151 371.294 200.175 371.308 200.2 371.324C200.251 371.358 200.305 371.398 200.359 371.427C200.442 371.471 200.53 371.494 200.624 371.498C200.658 371.507 200.695 371.51 200.731 371.508C200.792 371.501 200.853 371.494 200.915 371.487C201.001 371.471 201.08 371.436 201.148 371.384C201.199 371.359 201.24 371.326 201.272 371.28C201.331 371.227 201.373 371.16 201.395 371.084C201.422 370.98 201.426 370.93 201.409 370.837Z" fill="#D7E5FF"/>
<path d="M154.68 164.008C154.644 163.915 154.585 163.838 154.505 163.776C154.424 163.705 154.332 163.655 154.23 163.628C154.125 163.583 154.016 163.562 153.9 163.567C153.687 163.575 153.457 163.628 153.295 163.777C153.156 163.907 153.033 164.085 153.045 164.286C153.052 164.421 153.06 164.555 153.068 164.69L153.079 164.891C153.081 164.922 153.082 164.953 153.085 164.983C153.088 165.057 153.09 165.136 153.115 165.202C153.142 165.256 153.17 165.31 153.196 165.365C153.242 165.415 153.287 165.464 153.334 165.514C153.409 165.582 153.495 165.627 153.592 165.654C153.689 165.696 153.792 165.716 153.9 165.711C153.972 165.703 154.043 165.695 154.114 165.686C154.245 165.656 154.364 165.599 154.467 165.514C154.556 165.419 154.651 165.335 154.686 165.202C154.704 165.137 154.713 165.059 154.716 164.993L154.722 164.891C154.726 164.824 154.729 164.756 154.733 164.69C154.741 164.555 154.748 164.421 154.756 164.286C154.757 164.184 154.734 164.092 154.68 164.008Z" fill="#D7E5FF"/>
<path d="M71.6767 101.413C71.6301 101.382 71.5824 101.351 71.5358 101.32C71.4229 101.266 71.3065 101.239 71.1808 101.239C71.1075 101.232 71.0353 101.23 70.9608 101.235C70.8898 101.238 70.8211 101.243 70.7489 101.246C70.6058 101.254 70.4614 101.263 70.3183 101.271C70.1483 101.28 69.9807 101.322 69.8492 101.435C69.7421 101.526 69.6466 101.683 69.6548 101.828C69.6629 101.98 69.727 102.127 69.8492 102.223C69.8934 102.252 69.9388 102.281 69.983 102.31C70.089 102.361 70.2007 102.387 70.3183 102.386C70.4614 102.394 70.6058 102.402 70.7489 102.41C70.8211 102.414 70.8898 102.418 70.9608 102.422C71.0353 102.427 71.1075 102.423 71.1808 102.417C71.2762 102.421 71.3659 102.403 71.4508 102.366C71.5346 102.344 71.6103 102.303 71.6755 102.245C71.7896 102.148 71.8897 101.983 71.8815 101.828C71.8745 101.669 71.8059 101.514 71.6767 101.413Z" fill="#D7E5FF"/>
<path d="M39.0906 147.05C38.036 147.05 38.0325 148.456 39.0906 148.456C40.1452 148.456 40.1475 147.05 39.0906 147.05Z" fill="#D7E5FF"/>
<path d="M55.6996 160.321C55.6577 160.197 55.5855 160.095 55.4854 160.011C55.2701 159.812 54.9965 159.737 54.7114 159.744C54.6322 159.747 54.5519 159.749 54.4727 159.751C54.3133 159.756 54.155 159.761 53.9955 159.765C53.7755 159.771 53.5427 159.837 53.3716 159.983C53.2878 160.047 53.2273 160.126 53.19 160.222C53.1353 160.308 53.1108 160.403 53.1143 160.508C53.1248 160.709 53.2098 160.905 53.3727 161.032C53.5543 161.174 53.765 161.242 53.9967 161.249C54.1561 161.254 54.3144 161.259 54.4739 161.263C54.5531 161.266 54.6334 161.268 54.7125 161.27C54.9954 161.278 55.2736 161.201 55.4866 161.004C55.5646 160.944 55.6228 160.869 55.6577 160.779C55.7089 160.698 55.7333 160.608 55.731 160.509C55.7194 160.444 55.7089 160.382 55.6996 160.321Z" fill="#D7E5FF"/>
<path d="M20.4515 185.854C20.3176 185.76 20.1896 185.662 20.0243 185.624C19.9044 185.596 19.7682 185.599 19.6436 185.593L19.1478 185.571C18.8242 185.557 18.4983 185.543 18.1747 185.528C17.978 185.52 17.7393 185.604 17.5892 185.732C17.4565 185.845 17.3366 186.041 17.3471 186.223C17.3692 186.637 17.7684 186.935 18.1747 186.918C18.4983 186.904 18.8242 186.89 19.1478 186.875C19.3072 186.868 19.4656 186.861 19.625 186.854C19.7542 186.848 19.8997 186.852 20.0243 186.823C20.1907 186.784 20.3176 186.686 20.4515 186.592C20.6889 186.427 20.6889 186.022 20.4515 185.854Z" fill="#D7E5FF"/>
<path d="M56.5483 265.674C56.4691 265.676 56.3888 265.679 56.3096 265.681C56.1502 265.686 55.9919 265.69 55.8324 265.695C55.7032 265.699 55.5658 265.737 55.4657 265.823C55.3831 265.894 55.3074 266.016 55.3144 266.13C55.3295 266.405 55.5786 266.559 55.8324 266.566C55.9919 266.57 56.1502 266.575 56.3096 266.581C56.3888 266.583 56.4691 266.586 56.5483 266.588C56.6297 266.59 56.7112 266.58 56.788 266.553C56.9091 266.51 57.0325 266.467 57.1046 266.35C57.1465 266.283 57.1768 266.212 57.1768 266.132C57.1768 265.821 56.8171 265.666 56.5483 265.674Z" fill="#D7E5FF"/>
<path d="M121.236 137.267C121.143 137.229 121.05 137.184 120.95 137.17C120.853 137.156 120.757 137.139 120.66 137.129C120.483 137.109 120.302 137.111 120.125 137.106C120 137.102 119.851 137.153 119.756 137.234C119.671 137.306 119.596 137.429 119.602 137.544C119.616 137.809 119.869 137.993 120.125 137.983C120.302 137.977 120.483 137.981 120.66 137.96C120.754 137.95 120.848 137.934 120.942 137.92C121.044 137.904 121.14 137.86 121.236 137.82C121.343 137.776 121.425 137.66 121.425 137.543C121.425 137.429 121.343 137.312 121.236 137.267Z" fill="#D7E5FF"/>
<path d="M355.663 154.653C355.624 154.628 355.585 154.603 355.545 154.577C355.453 154.533 355.356 154.511 355.254 154.511C354.947 154.481 354.642 154.45 354.336 154.419C354.243 154.415 354.155 154.432 354.07 154.468C353.989 154.49 353.914 154.53 353.85 154.588C353.739 154.682 353.641 154.844 353.649 154.996C353.657 155.153 353.722 155.305 353.85 155.404C353.896 155.434 353.942 155.464 353.989 155.494C354.098 155.547 354.213 155.574 354.336 155.572C354.642 155.542 354.947 155.512 355.254 155.48C355.331 155.483 355.407 155.47 355.475 155.439C355.545 155.42 355.607 155.387 355.661 155.338C355.755 155.259 355.837 155.123 355.831 154.996C355.824 154.864 355.77 154.736 355.663 154.653Z" fill="#D7E5FF"/>
<path d="M371.411 290.473C371.338 290.408 371.255 290.364 371.164 290.339C371.07 290.298 370.971 290.28 370.868 290.283C370.676 290.29 370.469 290.338 370.324 290.473C370.194 290.593 370.098 290.745 370.1 290.929L370.102 291.389C370.102 291.462 370.103 291.536 370.103 291.609C370.103 291.646 370.103 291.682 370.103 291.72C370.104 291.816 370.119 291.901 370.136 292C370.16 292.05 370.187 292.102 370.211 292.153C370.263 292.228 370.328 292.289 370.407 292.332C370.456 292.373 370.513 292.4 370.575 292.413C370.668 292.454 370.764 292.472 370.868 292.468C370.999 292.464 371.13 292.436 371.251 292.381C371.336 292.344 371.408 292.289 371.464 292.217C371.529 292.159 371.574 292.086 371.6 292C371.616 291.905 371.631 291.822 371.631 291.73C371.631 291.693 371.631 291.657 371.633 291.62C371.633 291.543 371.633 291.466 371.634 291.39C371.634 291.237 371.635 291.084 371.636 290.931C371.637 290.756 371.541 290.584 371.411 290.473Z" fill="#D7E5FF"/>
<path d="M323.614 185.268C323.564 185.135 323.471 185.054 323.351 184.981C323.062 184.803 322.773 184.625 322.484 184.447C322.195 184.269 321.873 184.134 321.569 183.983C321.414 183.907 321.214 183.887 321.047 183.926C320.901 183.96 320.725 184.056 320.641 184.188C320.458 184.483 320.584 184.814 320.885 184.967C321.188 185.121 321.489 185.3 321.804 185.426C322.127 185.555 322.45 185.684 322.773 185.813C322.916 185.87 323.06 185.897 323.214 185.862C323.337 185.833 323.486 185.753 323.557 185.641C323.623 185.53 323.663 185.394 323.614 185.268Z" fill="#D7E5FF"/>
<path d="M383.531 205.256C383.497 205.171 383.442 205.1 383.367 205.041C383.292 204.975 383.206 204.93 383.112 204.904C383.015 204.862 382.914 204.844 382.807 204.847C382.61 204.854 382.396 204.904 382.248 205.041C382.121 205.159 381.999 205.328 382.017 205.512C382.031 205.664 382.043 205.818 382.057 205.972C382.068 206.091 382.064 206.226 382.118 206.334C382.126 206.35 382.134 206.366 382.142 206.382C382.147 206.394 382.153 206.405 382.159 206.415C382.182 206.46 382.204 206.506 382.227 206.55C382.251 206.581 382.281 206.609 382.306 206.64C382.362 206.715 382.431 206.774 382.516 206.814C382.608 206.858 382.705 206.881 382.808 206.881C382.911 206.881 383.008 206.858 383.1 206.814C383.184 206.774 383.254 206.715 383.309 206.64C383.333 206.612 383.36 206.585 383.383 206.557C383.426 206.506 383.459 206.409 383.494 206.342C383.533 206.261 383.54 206.171 383.548 206.082C383.552 206.045 383.555 206.009 383.559 205.972C383.573 205.819 383.586 205.665 383.6 205.512C383.603 205.419 383.58 205.332 383.531 205.256Z" fill="#D7E5FF"/>
<path d="M348.115 337.566C348.041 337.512 347.966 337.478 347.883 337.443C347.837 337.423 347.79 337.406 347.743 337.392C347.688 337.375 347.63 337.373 347.573 337.371C347.533 337.37 347.495 337.368 347.455 337.367C347.298 337.363 347.142 337.358 346.987 337.353C346.866 337.35 346.724 337.399 346.633 337.475C346.553 337.544 346.481 337.663 346.487 337.772C346.501 338.025 346.742 338.199 346.987 338.192C347.143 338.188 347.299 338.183 347.455 338.177C347.49 338.176 347.527 338.176 347.563 338.175C347.62 338.173 347.679 338.17 347.733 338.156C347.785 338.145 347.833 338.123 347.882 338.103C347.965 338.067 348.039 338.034 348.114 337.979C348.248 337.88 348.248 337.663 348.115 337.566Z" fill="#D7E5FF"/>
<path d="M399.705 380.626C399.673 380.579 399.631 380.539 399.595 380.497C399.5 380.384 399.394 380.279 399.292 380.172C399.134 380.009 398.98 379.846 398.824 379.684C398.77 379.637 398.71 379.604 398.642 379.585C398.572 379.555 398.499 379.541 398.423 379.545C398.291 379.545 398.122 379.592 398.021 379.684C397.927 379.771 397.848 379.888 397.854 380.022C397.861 380.159 397.922 380.264 398.021 380.359C398.182 380.514 398.343 380.668 398.505 380.822C398.583 380.897 398.661 380.978 398.745 381.049C398.786 381.085 398.827 381.122 398.87 381.157C398.951 381.22 399.042 381.26 399.141 381.283C399.168 381.288 399.195 381.295 399.222 381.301C399.357 381.331 399.493 381.309 399.609 381.234C399.704 381.173 399.799 381.063 399.785 380.94C399.773 380.831 399.768 380.719 399.705 380.626Z" fill="#D7E5FF"/>
<path d="M102.424 420.329C102.424 420.274 102.408 420.224 102.376 420.179C102.363 420.153 102.351 420.127 102.337 420.101C102.323 420.078 102.31 420.056 102.295 420.035C102.249 419.969 102.186 419.914 102.132 419.856C102.112 419.837 102.093 419.817 102.074 419.797C101.996 419.717 101.916 419.635 101.838 419.555C101.681 419.393 101.524 419.231 101.368 419.07C101.296 419.007 101.216 418.964 101.126 418.939C101.035 418.9 100.939 418.881 100.837 418.886C100.736 418.882 100.639 418.9 100.549 418.939C100.458 418.964 100.379 419.007 100.307 419.07C100.184 419.184 100.078 419.338 100.088 419.515C100.097 419.571 100.106 419.627 100.113 419.683C100.152 419.794 100.217 419.887 100.307 419.961C100.467 420.117 100.626 420.272 100.786 420.427C100.864 420.504 100.944 420.58 101.022 420.657C101.061 420.695 101.098 420.738 101.142 420.771C101.166 420.789 101.19 420.804 101.213 420.819C101.266 420.854 101.319 420.892 101.374 420.922C101.457 420.966 101.544 420.989 101.637 420.993C101.673 421.001 101.709 421.004 101.744 421.002C101.806 420.995 101.866 420.988 101.928 420.981C102.015 420.965 102.094 420.93 102.163 420.877C102.213 420.853 102.254 420.818 102.287 420.773C102.346 420.719 102.387 420.654 102.41 420.576C102.437 420.473 102.439 420.423 102.424 420.329Z" fill="#D7E5FF"/>
<path d="M55.695 213.501C55.6589 213.409 55.5996 213.331 55.5193 213.271C55.4378 213.199 55.347 213.15 55.2434 213.123C55.1398 213.076 55.0292 213.057 54.9151 213.061C54.7021 213.069 54.4717 213.123 54.3099 213.272C54.1702 213.401 54.048 213.579 54.0596 213.779C54.0666 213.914 54.0747 214.048 54.0817 214.183L54.0934 214.386C54.0957 214.416 54.0969 214.446 54.0992 214.478C54.1027 214.551 54.105 214.631 54.1294 214.697C54.1562 214.751 54.1842 214.806 54.2109 214.86C54.2563 214.91 54.3017 214.96 54.3483 215.009C54.4228 215.076 54.5101 215.121 54.6055 215.148C54.7033 215.191 54.8057 215.21 54.9151 215.206C54.9862 215.198 55.0572 215.19 55.1282 215.182C55.2597 215.153 55.3773 215.095 55.482 215.01C55.5705 214.914 55.6648 214.83 55.7008 214.698C55.7183 214.633 55.7265 214.556 55.7299 214.488L55.7358 214.388C55.7404 214.321 55.7439 214.253 55.7474 214.186C55.7556 214.051 55.7625 213.917 55.7707 213.782C55.7719 213.677 55.7474 213.585 55.695 213.501Z" fill="#D7E5FF"/>
<path d="M11.4281 314.314C11.4013 314.243 11.3477 314.195 11.3012 314.141C11.2977 314.123 11.2942 314.106 11.2895 314.088C11.2686 313.918 11.2476 313.748 11.2267 313.579C11.2278 313.518 11.2139 313.464 11.1824 313.414C11.1603 313.36 11.1266 313.314 11.0788 313.278C10.9869 313.2 10.8426 313.15 10.7215 313.155C10.5958 313.159 10.4584 313.191 10.3642 313.278C10.3374 313.306 10.3106 313.335 10.285 313.364C10.2408 313.428 10.2163 313.501 10.2163 313.579C10.1942 313.748 10.1744 313.918 10.1523 314.088C10.1523 314.091 10.1511 314.093 10.1511 314.095C10.0895 314.159 10.0406 314.233 10.015 314.314C9.98004 314.422 9.98004 314.532 10.015 314.641C10.0394 314.724 10.0836 314.794 10.1453 314.851C10.2 314.921 10.2675 314.973 10.3513 315.009C10.4677 315.065 10.5911 315.094 10.7203 315.093C10.9101 315.093 11.0882 315.029 11.2372 314.912C11.4106 314.78 11.5084 314.524 11.4281 314.314Z" fill="#D7E5FF"/>
<path d="M105.193 308.799C105.15 308.676 105.078 308.573 104.978 308.49C104.763 308.291 104.489 308.215 104.204 308.223C104.124 308.225 104.044 308.228 103.965 308.23C103.805 308.235 103.647 308.239 103.488 308.244C103.268 308.25 103.035 308.316 102.864 308.462C102.78 308.526 102.719 308.605 102.682 308.7C102.627 308.786 102.603 308.882 102.607 308.987C102.617 309.188 102.702 309.383 102.865 309.51C103.047 309.652 103.257 309.721 103.489 309.727C103.648 309.732 103.807 309.736 103.966 309.741C104.045 309.743 104.126 309.746 104.205 309.748C104.488 309.756 104.767 309.678 104.979 309.481C105.057 309.421 105.115 309.345 105.151 309.255C105.202 309.174 105.226 309.084 105.223 308.985C105.213 308.924 105.202 308.861 105.193 308.799Z" fill="#D7E5FF"/>
<path d="M69.9446 334.333C69.8108 334.238 69.6827 334.141 69.5174 334.102C69.3976 334.074 69.2614 334.078 69.138 334.072L68.641 334.05C68.3174 334.036 67.9914 334.022 67.6679 334.007C67.4711 333.999 67.2325 334.082 67.0824 334.21C66.9497 334.323 66.8298 334.52 66.8402 334.702C66.8624 335.116 67.2616 335.414 67.6679 335.396C67.9914 335.382 68.3174 335.369 68.641 335.353C68.8004 335.346 68.9587 335.339 69.1182 335.332C69.2474 335.327 69.3929 335.33 69.5174 335.301C69.6839 335.263 69.8108 335.165 69.9446 335.071C70.1821 334.905 70.1833 334.5 69.9446 334.333Z" fill="#D7E5FF"/>
<path d="M106.042 414.153C105.962 414.155 105.882 414.157 105.803 414.16C105.643 414.164 105.485 414.169 105.326 414.174C105.196 414.177 105.059 414.215 104.96 414.302C104.876 414.373 104.802 414.495 104.808 414.609C104.823 414.884 105.072 415.037 105.326 415.044C105.485 415.049 105.643 415.055 105.803 415.059C105.882 415.062 105.962 415.064 106.042 415.066C106.123 415.069 106.205 415.058 106.281 415.031C106.402 414.988 106.526 414.945 106.598 414.829C106.64 414.761 106.67 414.69 106.67 414.61C106.67 414.299 106.31 414.145 106.042 414.153Z" fill="#D7E5FF"/>
<path d="M170.73 285.746C170.636 285.708 170.543 285.662 170.443 285.648C170.347 285.633 170.25 285.618 170.153 285.608C169.978 285.588 169.795 285.59 169.618 285.584C169.493 285.58 169.344 285.632 169.249 285.712C169.165 285.784 169.089 285.908 169.095 286.023C169.109 286.287 169.362 286.471 169.618 286.462C169.795 286.456 169.978 286.46 170.153 286.439C170.248 286.428 170.341 286.413 170.435 286.399C170.537 286.384 170.633 286.339 170.73 286.3C170.837 286.256 170.918 286.14 170.918 286.023C170.918 285.908 170.837 285.79 170.73 285.746Z" fill="#D7E5FF"/>
<path d="M405.155 303.132C405.116 303.107 405.078 303.082 405.037 303.056C404.945 303.012 404.848 302.99 404.746 302.99C404.44 302.959 404.134 302.929 403.828 302.898C403.734 302.894 403.647 302.911 403.562 302.947C403.481 302.969 403.406 303.008 403.342 303.066C403.23 303.161 403.133 303.323 403.141 303.474C403.149 303.631 403.214 303.783 403.342 303.882C403.388 303.913 403.434 303.943 403.481 303.973C403.59 304.026 403.705 304.052 403.828 304.051C404.134 304.021 404.44 303.991 404.746 303.959C404.824 303.962 404.899 303.949 404.968 303.917C405.038 303.899 405.099 303.865 405.153 303.817C405.247 303.738 405.329 303.602 405.323 303.474C405.318 303.342 405.262 303.214 405.155 303.132Z" fill="#D7E5FF"/>
<path d="M420.905 438.952C420.831 438.888 420.749 438.844 420.657 438.819C420.564 438.778 420.465 438.76 420.361 438.763C420.17 438.77 419.962 438.818 419.817 438.952C419.688 439.073 419.592 439.224 419.593 439.408L419.595 439.868C419.595 439.941 419.596 440.015 419.596 440.088C419.596 440.125 419.596 440.161 419.597 440.199C419.597 440.295 419.613 440.38 419.629 440.478C419.653 440.529 419.68 440.579 419.705 440.63C419.756 440.707 419.821 440.767 419.9 440.808C419.95 440.849 420.006 440.877 420.069 440.891C420.161 440.932 420.259 440.949 420.361 440.946C420.493 440.941 420.624 440.913 420.744 440.859C420.829 440.821 420.901 440.767 420.958 440.694C421.023 440.636 421.068 440.564 421.093 440.477C421.109 440.382 421.125 440.3 421.125 440.207C421.126 440.171 421.126 440.133 421.126 440.097C421.126 440.02 421.126 439.944 421.127 439.868C421.128 439.714 421.128 439.562 421.129 439.408C421.13 439.235 421.034 439.062 420.905 438.952Z" fill="#D7E5FF"/>
<path d="M373.107 333.747C373.056 333.613 372.963 333.533 372.843 333.46C372.554 333.282 372.266 333.104 371.976 332.925C371.687 332.747 371.365 332.612 371.061 332.462C370.906 332.385 370.706 332.366 370.539 332.405C370.393 332.439 370.217 332.534 370.134 332.667C369.952 332.962 370.077 333.293 370.377 333.446C370.68 333.599 370.982 333.779 371.296 333.904C371.619 334.034 371.942 334.163 372.265 334.292C372.408 334.349 372.553 334.376 372.707 334.341C372.829 334.312 372.979 334.231 373.049 334.12C373.117 334.009 373.155 333.873 373.107 333.747Z" fill="#D7E5FF"/>
<path d="M105.187 361.98C105.151 361.887 105.092 361.81 105.011 361.749C104.931 361.677 104.839 361.628 104.737 361.6C104.632 361.555 104.523 361.534 104.407 361.539C104.194 361.547 103.964 361.6 103.802 361.749C103.662 361.879 103.54 362.056 103.552 362.257C103.559 362.392 103.567 362.526 103.574 362.661L103.586 362.862C103.588 362.892 103.589 362.924 103.591 362.954C103.595 363.027 103.597 363.107 103.622 363.173C103.648 363.228 103.676 363.281 103.703 363.336C103.749 363.386 103.794 363.436 103.84 363.485C103.915 363.552 104.002 363.598 104.098 363.625C104.195 363.668 104.299 363.686 104.407 363.682C104.478 363.674 104.549 363.665 104.62 363.657C104.752 363.628 104.869 363.57 104.974 363.485C105.063 363.39 105.157 363.306 105.193 363.173C105.21 363.108 105.219 363.03 105.223 362.963L105.229 362.862C105.233 362.795 105.236 362.728 105.24 362.661C105.248 362.526 105.255 362.392 105.263 362.257C105.265 362.156 105.24 362.063 105.187 361.98Z" fill="#D7E5FF"/>
<path d="M22.1847 299.385C22.1381 299.354 22.0904 299.323 22.0427 299.293C21.931 299.239 21.8134 299.212 21.6888 299.212C21.6144 299.207 21.5433 299.203 21.4688 299.208C21.3978 299.212 21.328 299.216 21.257 299.221C21.1138 299.229 20.9695 299.237 20.8263 299.245C20.6564 299.254 20.4888 299.296 20.3572 299.409C20.2501 299.5 20.1547 299.657 20.1628 299.804C20.171 299.955 20.235 300.102 20.3572 300.197C20.4015 300.226 20.4457 300.255 20.4911 300.284C20.597 300.336 20.7088 300.36 20.8263 300.36C20.9695 300.368 21.1138 300.376 21.257 300.385C21.328 300.388 21.3978 300.392 21.4688 300.396C21.5433 300.401 21.6144 300.398 21.6888 300.392C21.7843 300.395 21.8739 300.378 21.9589 300.341C22.0427 300.318 22.1184 300.279 22.1835 300.219C22.2976 300.123 22.3977 299.957 22.3896 299.804C22.3814 299.641 22.3139 299.485 22.1847 299.385Z" fill="#D7E5FF"/>
<path d="M38.7483 368.235C38.6552 368.197 38.5621 368.151 38.462 368.137C38.3654 368.122 38.2688 368.107 38.1722 368.097C37.9952 368.077 37.8136 368.079 37.6367 368.073C37.5122 368.07 37.3632 368.121 37.2677 368.203C37.1839 368.275 37.1083 368.397 37.1141 368.513C37.1281 368.778 37.3806 368.962 37.6367 368.952C37.8136 368.946 37.9952 368.95 38.1722 368.929C38.2664 368.918 38.3596 368.903 38.4538 368.889C38.5563 368.874 38.6517 368.829 38.7483 368.79C38.8554 368.746 38.9369 368.63 38.9369 368.513C38.9369 368.396 38.8554 368.278 38.7483 368.235Z" fill="#D7E5FF"/>
<path d="M273.174 385.62C273.136 385.594 273.096 385.57 273.057 385.544C272.965 385.5 272.868 385.478 272.766 385.478C272.459 385.447 272.154 385.417 271.847 385.386C271.754 385.382 271.667 385.399 271.582 385.435C271.501 385.457 271.426 385.496 271.362 385.554C271.25 385.649 271.152 385.811 271.161 385.962C271.169 386.119 271.234 386.271 271.362 386.37C271.407 386.401 271.454 386.431 271.501 386.461C271.61 386.514 271.725 386.54 271.847 386.539C272.154 386.509 272.459 386.479 272.766 386.447C272.843 386.45 272.918 386.437 272.988 386.405C273.057 386.387 273.118 386.354 273.173 386.305C273.266 386.226 273.349 386.089 273.343 385.962C273.336 385.83 273.28 385.702 273.174 385.62Z" fill="#D7E5FF"/>
<path d="M241.125 416.235C241.075 416.101 240.982 416.021 240.862 415.947C240.573 415.768 240.284 415.59 239.995 415.412C239.706 415.234 239.383 415.1 239.08 414.949C238.925 414.872 238.725 414.852 238.558 414.892C238.412 414.926 238.236 415.021 238.152 415.154C237.97 415.448 238.095 415.78 238.395 415.933C238.699 416.086 239 416.264 239.315 416.391C239.637 416.52 239.961 416.65 240.283 416.779C240.426 416.836 240.572 416.863 240.726 416.828C240.848 416.799 240.998 416.718 241.068 416.607C241.135 416.497 241.174 416.361 241.125 416.235Z" fill="#D7E5FF"/>
<path d="M301.043 436.222C301.009 436.137 300.954 436.065 300.879 436.008C300.804 435.942 300.719 435.896 300.624 435.871C300.527 435.829 300.426 435.809 300.319 435.814C300.122 435.821 299.908 435.871 299.76 436.008C299.633 436.126 299.512 436.294 299.529 436.478C299.543 436.631 299.555 436.784 299.569 436.938C299.58 437.058 299.576 437.193 299.63 437.3C299.638 437.316 299.646 437.333 299.654 437.349C299.659 437.361 299.665 437.371 299.671 437.382C299.694 437.427 299.716 437.472 299.739 437.517C299.764 437.548 299.793 437.576 299.82 437.605C299.874 437.681 299.943 437.739 300.027 437.78C300.12 437.824 300.218 437.846 300.32 437.846C300.423 437.846 300.52 437.824 300.612 437.78C300.696 437.739 300.766 437.681 300.821 437.605C300.845 437.578 300.872 437.551 300.895 437.522C300.938 437.471 300.972 437.375 301.006 437.307C301.045 437.227 301.053 437.136 301.062 437.047C301.064 437.01 301.067 436.974 301.071 436.937C301.085 436.783 301.098 436.631 301.112 436.477C301.114 436.385 301.092 436.3 301.043 436.222Z" fill="#D7E5FF"/>
<path d="M77.4188 429.798C77.3932 429.728 77.3385 429.679 77.2931 429.625C77.2884 429.607 77.2849 429.59 77.2814 429.572C77.2593 429.402 77.2395 429.232 77.2174 429.062C77.2197 429.003 77.2046 428.948 77.1743 428.899C77.1522 428.845 77.1173 428.799 77.0696 428.763C76.9776 428.685 76.8333 428.634 76.7122 428.639C76.5877 428.643 76.4503 428.675 76.3549 428.763C76.3293 428.791 76.3025 428.82 76.2769 428.849C76.2315 428.913 76.2082 428.984 76.207 429.064C76.1861 429.234 76.1651 429.403 76.1442 429.573C76.143 429.576 76.143 429.578 76.1419 429.58C76.0813 429.644 76.0313 429.719 76.0057 429.799C75.9708 429.909 75.9708 430.018 76.0057 430.126C76.0301 430.209 76.0744 430.279 76.136 430.336C76.1908 430.406 76.2583 430.458 76.3421 430.494C76.4596 430.55 76.5819 430.578 76.7111 430.578C76.9008 430.578 77.0801 430.514 77.2279 430.398C77.4013 430.264 77.4979 430.006 77.4188 429.798Z" fill="#D7E5FF"/>
<path d="M171.182 424.282C171.141 424.16 171.068 424.056 170.967 423.972C170.753 423.774 170.479 423.699 170.194 423.706C170.115 423.708 170.035 423.71 169.956 423.713C169.795 423.717 169.638 423.722 169.477 423.727C169.257 423.733 169.024 423.799 168.854 423.944C168.771 424.008 168.709 424.088 168.672 424.183C168.617 424.269 168.593 424.363 168.596 424.468C168.608 424.67 168.691 424.865 168.856 424.992C169.037 425.134 169.248 425.203 169.478 425.21C169.639 425.214 169.796 425.219 169.957 425.224C170.036 425.226 170.116 425.228 170.195 425.231C170.478 425.239 170.756 425.161 170.968 424.964C171.047 424.904 171.106 424.829 171.141 424.738C171.192 424.657 171.215 424.567 171.213 424.468C171.202 424.406 171.193 424.345 171.182 424.282Z" fill="#D7E5FF"/>
<path d="M236.719 401.23C236.627 401.192 236.534 401.146 236.434 401.132C236.337 401.118 236.241 401.103 236.144 401.092C235.967 401.072 235.786 401.074 235.609 401.068C235.483 401.065 235.335 401.116 235.239 401.196C235.155 401.268 235.079 401.392 235.086 401.507C235.1 401.771 235.353 401.954 235.609 401.946C235.786 401.94 235.967 401.944 236.144 401.923C236.238 401.912 236.332 401.897 236.425 401.883C236.528 401.868 236.624 401.823 236.719 401.783C236.827 401.739 236.909 401.622 236.909 401.506C236.909 401.391 236.827 401.274 236.719 401.23Z" fill="#D7E5FF"/>
<path d="M88.1754 414.868C88.1277 414.837 88.0811 414.806 88.0334 414.776C87.9216 414.722 87.8041 414.695 87.6795 414.695C87.605 414.689 87.534 414.686 87.4595 414.691C87.3885 414.694 87.3187 414.699 87.2477 414.702C87.1033 414.71 86.9602 414.719 86.8158 414.727C86.6459 414.736 86.4794 414.777 86.3467 414.89C86.2397 414.98 86.1442 415.138 86.1523 415.284C86.1605 415.436 86.2245 415.583 86.3467 415.679C86.3921 415.708 86.4364 415.737 86.4806 415.766C86.5865 415.817 86.6994 415.842 86.8158 415.842C86.9602 415.85 87.1033 415.858 87.2477 415.866C87.3187 415.87 87.3885 415.874 87.4595 415.878C87.534 415.881 87.605 415.879 87.6795 415.873C87.7738 415.877 87.8634 415.86 87.9484 415.823C88.0322 415.8 88.1079 415.76 88.1742 415.702C88.2871 415.606 88.3884 415.44 88.3791 415.285C88.3721 415.124 88.3046 414.969 88.1754 414.868Z" fill="#D7E5FF"/>
<path d="M119.239 67.7022C119.16 67.7045 119.079 67.7069 119 67.7092C118.841 67.7138 118.683 67.7185 118.523 67.7243C118.393 67.7278 118.256 67.7662 118.156 67.8512C118.074 67.9222 117.998 68.0456 118.005 68.1597C118.019 68.4344 118.269 68.588 118.523 68.595C118.683 68.5996 118.841 68.6043 119 68.6101C119.079 68.6125 119.16 68.6148 119.239 68.6171C119.32 68.6194 119.402 68.6078 119.479 68.5822C119.6 68.5391 119.723 68.496 119.795 68.3796C119.837 68.3121 119.867 68.2411 119.867 68.1608C119.867 67.85 119.508 67.6941 119.239 67.7022Z" fill="#D7E5FF"/>
<path d="M410.806 139.594C410.732 139.54 410.658 139.507 410.575 139.471C410.529 139.451 410.482 139.434 410.434 139.42C410.38 139.403 410.322 139.4 410.264 139.399C410.226 139.398 410.188 139.396 410.147 139.395C409.991 139.391 409.835 139.386 409.68 139.38C409.559 139.377 409.417 139.425 409.325 139.503C409.246 139.572 409.173 139.691 409.18 139.8C409.192 140.053 409.435 140.227 409.68 140.22C409.836 140.216 409.992 140.211 410.147 140.205C410.183 140.204 410.22 140.203 410.256 140.202C410.313 140.201 410.372 140.197 410.426 140.183C410.478 140.172 410.526 140.149 410.575 140.129C410.658 140.094 410.732 140.06 410.806 140.005C410.937 139.909 410.938 139.691 410.806 139.594Z" fill="#D7E5FF"/>
<path d="M398.147 348.869C398.041 348.779 397.877 348.722 397.739 348.727C397.594 348.731 397.438 348.768 397.329 348.869C397.237 348.954 397.147 349.079 397.16 349.212C397.189 349.518 397.221 349.824 397.251 350.13C397.263 350.247 397.302 350.342 397.393 350.42C397.481 350.495 397.62 350.544 397.738 350.54C397.859 350.535 397.99 350.505 398.081 350.42L398.157 350.338C398.2 350.276 398.223 350.207 398.224 350.132C398.253 349.825 398.285 349.519 398.315 349.213C398.328 349.087 398.236 348.944 398.147 348.869Z" fill="#D7E5FF"/>
<path d="M279.689 351.619C279.634 351.542 279.565 351.474 279.502 351.402C279.408 351.293 279.304 351.196 279.202 351.095C279.059 350.957 278.917 350.818 278.775 350.681C278.715 350.63 278.65 350.594 278.576 350.574C278.501 350.541 278.421 350.526 278.337 350.529C278.193 350.529 278.01 350.58 277.899 350.681C277.798 350.775 277.711 350.902 277.719 351.048C277.727 351.094 277.734 351.14 277.741 351.186C277.772 351.278 277.826 351.354 277.9 351.416L278.416 351.946C278.501 352.035 278.593 352.115 278.686 352.195C278.698 352.206 278.709 352.216 278.72 352.226C278.787 352.279 278.851 352.314 278.932 352.342C279.005 352.375 279.083 352.39 279.166 352.386C279.219 352.38 279.273 352.375 279.327 352.368C279.333 352.366 279.34 352.364 279.347 352.362C279.353 352.36 279.36 352.357 279.367 352.355C279.408 352.341 279.449 352.326 279.488 352.312C279.546 352.287 279.594 352.25 279.632 352.201C279.653 352.178 279.672 352.158 279.691 352.134C279.802 351.986 279.797 351.768 279.689 351.619Z" fill="#D7E5FF"/>
<path d="M165.116 222.358C165.115 222.304 165.098 222.254 165.068 222.208C165.055 222.181 165.042 222.156 165.028 222.13C165.014 222.107 165.002 222.085 164.986 222.064C164.941 221.999 164.878 221.943 164.824 221.886C164.804 221.866 164.785 221.846 164.765 221.826C164.687 221.746 164.608 221.665 164.53 221.584C164.373 221.422 164.216 221.261 164.059 221.099C163.988 221.036 163.907 220.993 163.818 220.968C163.727 220.928 163.63 220.91 163.529 220.914C163.428 220.91 163.331 220.928 163.239 220.968C163.15 220.993 163.069 221.036 162.998 221.099C162.876 221.213 162.769 221.368 162.78 221.545C162.789 221.601 162.797 221.656 162.805 221.712C162.844 221.823 162.909 221.916 162.998 221.99C163.159 222.145 163.317 222.301 163.478 222.456C163.556 222.533 163.636 222.609 163.714 222.685C163.753 222.724 163.79 222.767 163.834 222.799C163.857 222.817 163.881 222.831 163.905 222.847C163.957 222.881 164.01 222.92 164.066 222.95C164.148 222.994 164.236 223.017 164.329 223.021C164.364 223.03 164.401 223.033 164.436 223.031C164.498 223.024 164.558 223.017 164.62 223.01C164.707 222.993 164.786 222.959 164.855 222.907C164.905 222.882 164.946 222.847 164.978 222.802C165.038 222.748 165.078 222.682 165.102 222.605C165.127 222.501 165.13 222.451 165.116 222.358Z" fill="#D7E5FF"/>
<path d="M118.386 15.5294C118.35 15.4363 118.29 15.3595 118.209 15.2978C118.128 15.2268 118.038 15.1767 117.934 15.15C117.83 15.1046 117.72 15.0836 117.606 15.0883C117.392 15.0964 117.161 15.15 117.001 15.299C116.861 15.4282 116.739 15.6063 116.75 15.8076C116.757 15.9427 116.765 16.0765 116.772 16.2115L116.784 16.4129C116.785 16.4432 116.788 16.4746 116.789 16.5049C116.793 16.5782 116.796 16.6574 116.82 16.7237C116.847 16.7772 116.875 16.832 116.902 16.8867C116.947 16.9367 116.992 16.9856 117.038 17.0357C117.113 17.1032 117.201 17.1486 117.296 17.1742C117.394 17.2172 117.496 17.2359 117.606 17.2324C117.677 17.2242 117.747 17.2161 117.819 17.2079C117.95 17.1777 118.068 17.1206 118.173 17.0357C118.261 16.9402 118.355 16.8564 118.392 16.7237C118.41 16.6585 118.418 16.5805 118.422 16.5142L118.428 16.4129C118.432 16.3454 118.436 16.2779 118.439 16.2115C118.447 16.0765 118.454 15.9427 118.463 15.8076C118.463 15.7052 118.438 15.6132 118.386 15.5294Z" fill="#D7E5FF"/>
<path d="M52.6465 8.677C-7.46943 89.738 9.50052 204.187 90.5545 264.316C171.611 324.446 286.061 307.487 346.199 226.442L52.6465 8.677Z" fill="#FFFFFD"/>
<path d="M91.6125 10.054V175.249C91.6125 212.668 121.948 243.003 159.367 243.003C196.786 243.003 227.121 212.668 227.121 175.249V10.054H91.6125Z" fill="#FA6784"/>
<path d="M213.737 108.562C213.737 108.562 164.406 54.7597 110.603 108.562C110.603 108.562 162.171 152.738 213.737 108.562Z" fill="#FFFFFD"/>
<path d="M159.754 130.214C171.712 130.214 181.406 120.52 181.406 108.562C181.406 96.6041 171.712 86.9104 159.754 86.9104C147.797 86.9104 138.103 96.6041 138.103 108.562C138.103 120.52 147.797 130.214 159.754 130.214Z" fill="#49BDCC"/>
<path d="M159.755 120.434C166.312 120.434 171.627 115.119 171.627 108.562C171.627 102.006 166.312 96.6904 159.755 96.6904C153.199 96.6904 147.884 102.006 147.884 108.562C147.884 115.119 153.199 120.434 159.755 120.434Z" fill="#2B292E"/>
<path d="M166.383 118.776C164.578 120.329 162.236 121.273 159.668 121.273C157.1 121.273 154.757 120.329 152.953 118.776H142.578C145.548 125.256 152.073 129.768 159.668 129.768C167.261 129.768 173.789 125.257 176.758 118.776H166.383Z" fill="#279DA0"/>
<path d="M143.659 116.103C147.823 116.103 151.199 112.727 151.199 108.562C151.199 104.398 147.823 101.022 143.659 101.022C139.494 101.022 136.118 104.398 136.118 108.562C136.118 112.727 139.494 116.103 143.659 116.103Z" fill="#FFFFFD"/>
<path d="M110.604 108.562H213.738C213.738 108.562 164.405 54.7597 110.604 108.562Z" fill="#2B292E"/>
<path d="M213.737 165.619C213.737 165.619 164.406 111.817 110.603 165.619C110.603 165.619 162.171 209.795 213.737 165.619Z" fill="#FFFFFD"/>
<path d="M159.754 187.271C171.712 187.271 181.406 177.577 181.406 165.619C181.406 153.661 171.712 143.968 159.754 143.968C147.797 143.968 138.103 153.661 138.103 165.619C138.103 177.577 147.797 187.271 159.754 187.271Z" fill="#49BDCC"/>
<path d="M159.755 177.491C166.312 177.491 171.627 172.176 171.627 165.619C171.627 159.063 166.312 153.748 159.755 153.748C153.199 153.748 147.884 159.063 147.884 165.619C147.884 172.176 153.199 177.491 159.755 177.491Z" fill="#2B292E"/>
<path d="M166.383 175.833C164.578 177.386 162.236 178.33 159.668 178.33C157.1 178.33 154.757 177.386 152.953 175.833H142.578C145.548 182.313 152.073 186.825 159.668 186.825C167.261 186.825 173.789 182.314 176.758 175.833H166.383Z" fill="#279DA0"/>
<path d="M143.659 173.16C147.823 173.16 151.199 169.784 151.199 165.619C151.199 161.455 147.823 158.079 143.659 158.079C139.494 158.079 136.118 161.455 136.118 165.619C136.118 169.784 139.494 173.16 143.659 173.16Z" fill="#FFFFFD"/>
<path d="M110.604 165.619H213.738C213.738 165.619 164.405 111.817 110.604 165.619Z" fill="#2B292E"/>
<path d="M197.594 85.6059C197.594 85.6059 136.92 62.1164 102.729 103.189L95.675 67.4871L115.214 81.0186C115.214 81.0186 139.665 58.8479 197.594 85.6059Z" fill="#2B292E"/>
<path d="M114.528 74.3579C116.695 74.3579 118.452 72.6012 118.452 70.4341C118.452 68.267 116.695 66.5103 114.528 66.5103C112.361 66.5103 110.604 68.267 110.604 70.4341C110.604 72.6012 112.361 74.3579 114.528 74.3579Z" fill="#2B292E"/>
<path d="M174.312 65.387C179.83 65.387 184.303 60.914 184.303 55.3964C184.303 49.8787 179.83 45.4058 174.312 45.4058C168.795 45.4058 164.322 49.8787 164.322 55.3964C164.322 60.914 168.795 65.387 174.312 65.387Z" fill="#2B292E"/>
<path d="M148.064 65.3871C152.501 65.3871 156.097 61.7907 156.097 57.3543C156.097 52.9179 152.501 49.3215 148.064 49.3215C143.628 49.3215 140.031 52.9179 140.031 57.3543C140.031 61.7907 143.628 65.3871 148.064 65.3871Z" fill="#2B292E"/>
<path d="M128.277 69.7276C132.068 69.7276 135.14 66.6549 135.14 62.8646C135.14 59.0743 132.068 56.0017 128.277 56.0017C124.487 56.0017 121.415 59.0743 121.415 62.8646C121.415 66.6549 124.487 69.7276 128.277 69.7276Z" fill="#2B292E"/>
<path d="M120.786 199.955C122.511 199.955 123.909 198.557 123.909 196.832C123.909 195.107 122.511 193.709 120.786 193.709C119.061 193.709 117.663 195.107 117.663 196.832C117.663 198.557 119.061 199.955 120.786 199.955Z" fill="#2B292E"/>
<path d="M69.5734 90.9114C77.7353 90.9114 85.3176 93.3884 91.6137 97.6311V163.173C85.3188 167.415 77.7353 169.891 69.5734 169.891C47.7635 169.891 30.0835 152.211 30.0835 130.401C30.0835 108.591 47.7623 90.9114 69.5734 90.9114Z" fill="#49BDCC"/>
<path d="M67.2733 151.047L30.8354 245.594L67.2733 312.508L102.21 243.365L67.2733 151.047Z" fill="#FA6784"/>
<path d="M67.1256 166.957L37.8684 242.871L67.1256 296.599L95.1768 241.081L67.1256 166.957Z" stroke="#FFFFFD" stroke-miterlimit="10"/>
<path d="M66.9393 187.013L46.7334 239.439L66.9393 276.542L86.3106 238.203L66.9393 187.013Z" stroke="#FFFFFD" stroke-miterlimit="10"/>
<path d="M66.7228 210.242L57.0034 235.464L66.7228 253.314L76.0418 234.869L66.7228 210.242Z" stroke="#FFFFFD" stroke-miterlimit="10"/>
<path d="M373.836 90.9114C365.674 90.9114 358.092 93.3884 351.796 97.6311V163.173C358.091 167.415 365.674 169.891 373.836 169.891C395.646 169.891 413.326 152.211 413.326 130.401C413.326 108.591 395.646 90.9114 373.836 90.9114Z" fill="#49BDCC"/>
<path d="M376.137 151.047L412.573 245.594L376.137 312.508L341.2 243.365L376.137 151.047Z" fill="#FA6784"/>
<path d="M376.285 166.957L405.54 242.871L376.285 296.599L348.233 241.081L376.285 166.957Z" stroke="#FFFFFD" stroke-miterlimit="10"/>
<path d="M376.471 187.013L396.675 239.439L376.471 276.542L357.098 238.203L376.471 187.013Z" stroke="#FFFFFD" stroke-miterlimit="10"/>
<path d="M376.687 210.242L386.406 235.464L376.687 253.314L367.366 234.869L376.687 210.242Z" stroke="#FFFFFD" stroke-miterlimit="10"/>
<path d="M345.025 10.054H254.923L236.62 135.222L291.883 124.273L240.672 234.444L373.836 90.9112L312.77 93.5011L345.025 10.054Z" fill="#FEE066"/>
<path d="M219.139 276.629C219.139 276.629 257.632 244.14 305.513 282.538C305.513 282.538 272.757 323.07 221.735 323.07C170.713 323.07 126.549 282.538 126.549 282.538C126.549 282.538 164.472 246.505 219.139 276.629Z" fill="#E25A1E"/>
<path d="M178.453 281.668C192.208 281.668 203.359 279.504 203.359 276.835C203.359 274.165 192.208 272.002 178.453 272.002C164.697 272.002 153.547 274.165 153.547 276.835C153.547 279.504 164.697 281.668 178.453 281.668Z" fill="#F47B4D"/>
<path d="M221.735 323.069C170.713 323.069 126.549 282.537 126.549 282.537C126.549 282.537 226.137 318.23 305.513 282.537C305.513 282.537 272.757 323.069 221.735 323.069Z" fill="#F47B4D"/>
<path d="M176.821 326.689L129.671 431.323H308.323L261.171 326.689H176.821Z" fill="#49BDCC"/>
<path d="M227.086 10.054H254.995L273.343 234.444L159.095 261.433L227.121 220L227.086 10.054Z" fill="#2B292E"/>
<path d="M205.544 400.562L115.407 302.393L205.544 326.463V400.562Z" fill="#FEE066"/>
<path d="M243.862 400.562L333.997 302.393L243.862 326.463V400.562Z" fill="#FEE066"/>
</g>
<defs>
<clipPath id="clip0_22_396">
<rect width="423" height="439" fill="white"/>
</clipPath>
</defs>
</svg>
