<svg width="407" height="366" viewBox="0 0 407 366" fill="none" xmlns="http://www.w3.org/2000/svg">
<path d="M352.444 54.223H325.333V0H81.333V54.223H54.222C39.842 54.223 26.05 59.935 15.881 70.104C5.713 80.273 0 94.064 0 108.445V257.556H53.138V231.665H27.111V108.445C27.111 101.254 29.967 94.359 35.052 89.274C40.136 84.19 47.032 81.334 54.222 81.334H352.444C359.635 81.334 366.531 84.19 371.615 89.274C376.699 94.359 379.556 101.254 379.556 108.445V230.445H353.529V257.556H406.667V108.445C406.667 94.064 400.954 80.273 390.785 70.104C380.617 59.935 366.825 54.223 352.444 54.223ZM298.222 54.223H108.444V27.111H298.222V54.223Z" fill="white"/>
<path d="M338.888 176.223H67.777C64.182 176.223 60.734 177.651 58.192 180.193C55.65 182.735 54.222 186.183 54.222 189.779C54.222 193.374 55.65 196.822 58.192 199.364C60.734 201.906 64.182 203.334 67.777 203.334H81.333V366.001H325.333V203.334H338.888C342.483 203.334 345.931 201.906 348.474 199.364C351.016 196.822 352.444 193.374 352.444 189.779C352.444 186.183 351.016 182.735 348.474 180.193C345.931 177.651 342.483 176.223 338.888 176.223ZM298.222 338.89H108.444V203.334H298.222V338.89Z" fill="white"/>
<path d="M352.444 108.988H325.333V136.099H352.444V108.988Z" fill="white"/>
</svg>
