<svg width="17" height="12" viewBox="0 0 17 12" fill="none" xmlns="http://www.w3.org/2000/svg">
<path d="M6.69996 11.8926C6.51848 11.9568 6.32403 11.9889 6.11663 11.9889C5.90922 11.9889 5.71479 11.9568 5.53329 11.8926C5.35182 11.8273 5.18329 11.7168 5.02774 11.5613L0.59441 7.12786C0.309221 6.84268 0.166626 6.4797 0.166626 6.03896C0.166626 5.59823 0.309221 5.23527 0.59441 4.95008C0.905527 4.63896 1.26848 4.48342 1.68329 4.48342C2.09812 4.48342 2.44812 4.62601 2.73329 4.9112L6.11663 8.29453L13.8166 0.594532C14.1018 0.309342 14.4649 0.166748 14.9056 0.166748C15.3463 0.166748 15.7092 0.309342 15.9944 0.594532C16.3056 0.90563 16.4611 1.2686 16.4611 1.68341C16.4611 2.09822 16.3185 2.44823 16.0332 2.73341L7.20553 11.5613C7.04996 11.7168 6.88146 11.8273 6.69996 11.8926Z" fill="#FF4B61"/>
</svg>
