<?xml version="1.0" encoding="utf-8"?>
<!-- Generator: Adobe Illustrator 16.0.0, SVG Export Plug-In . SVG Version: 6.00 Build 0)  -->
<!DOCTYPE svg PUBLIC "-//W3C//DTD SVG 1.1//EN" "http://www.w3.org/Graphics/SVG/1.1/DTD/svg11.dtd">
<svg version="1.1" xmlns="http://www.w3.org/2000/svg" xmlns:xlink="http://www.w3.org/1999/xlink" x="0px" y="0px"
	 width="543.085px" height="624.892px" viewBox="0 0 543.085 624.892" enable-background="new 0 0 543.085 624.892"
	 xml:space="preserve">
<g id="BACKGROUND">
</g>
<g id="OBJECTS">
	<rect x="170.412" y="296.321" fill="none" width="236.949" height="316.477"/>
	<g>
		<g>
			<path fill="#F28DA0" d="M115.945,493.493l-42.126-37.927c-1.604-1.444-4.164-0.393-4.291,1.762l0,0
				c-0.758,12.912,4.397,25.469,14.011,34.124l33.361,30.035l0.121-0.056L115.945,493.493z"/>
		</g>
		<g>
			<path fill="#BABACE" d="M117.862,434.681L117.862,434.681c-1.735-1.28-4.182,0.013-4.1,2.17l2.183,56.643l1.077,27.938
				l19.703-9.231l0.121-0.058l-1.729-44.857C134.618,454.36,128.27,442.361,117.862,434.681z"/>
		</g>
		<g>
			<path fill="#BABACE" d="M122.866,544.914l-9.015,3.501c-8.409-21.653,5.789-39.897,6.398-40.664l7.572,6.018l-3.786-3.01
				l3.796,2.996C127.368,514.35,116.498,528.516,122.866,544.914z"/>
		</g>
		<g>
			<path fill="#BABACE" d="M149.87,532.197c-8.657-15.486-26.981-16.02-27.166-16.023l0.188-9.67
				c0.979,0.021,24.085,0.699,35.42,20.975L149.87,532.197z"/>
		</g>
		<g>
			<path fill="#3E74F2" d="M194.802,591.99l-8.095,4.526c-2.09,1.167-4.731,0.419-5.9-1.671l-33.693-60.276
				c-1.168-2.091-0.421-4.731,1.669-5.9l8.095-4.525c2.09-1.168,4.732-0.421,5.901,1.669l33.692,60.277
				C197.64,588.182,196.892,590.822,194.802,591.99z"/>
			
				<line fill="none" stroke="#FFFFFF" stroke-width="1.3709" stroke-miterlimit="10" x1="152.71" y1="526.474" x2="190.591" y2="594.345"/>
		</g>
		<g>
			<path fill="#6A8BFF" d="M149.282,613.432l-8.681,3.373c-2.222,0.863-4.723-0.24-5.587-2.462l-24.765-63.771
				c-0.862-2.224,0.239-4.725,2.462-5.587l8.681-3.372c2.222-0.862,4.723,0.24,5.586,2.462l24.765,63.771
				C152.606,610.069,151.505,612.569,149.282,613.432z"/>
			
				<line fill="none" stroke="#FFFFFF" stroke-width="1.3709" stroke-miterlimit="10" x1="116.821" y1="543.39" x2="144.959" y2="615.111"/>
		</g>
		<g>
			<circle fill="none" stroke="#0D275B" stroke-width="1.3709" stroke-miterlimit="10" cx="121.782" cy="507.354" r="3.44"/>
		</g>
	</g>
	<g>
		<g>
			<g>
				<circle fill="#49B684" cx="419.712" cy="136.464" r="28.717"/>
				<circle fill="#3CA573" cx="461.37" cy="113.058" r="28.717"/>
				<circle fill="#87EFB5" cx="485.792" cy="179.161" r="28.717"/>
				
					<line fill="none" stroke="#0D275B" stroke-width="2" stroke-miterlimit="10" x1="464.347" y1="108.981" x2="437.853" y2="244.592"/>
				
					<line fill="none" stroke="#0D275B" stroke-width="2" stroke-miterlimit="10" x1="452.529" y1="114.379" x2="457.979" y2="141.576"/>
				<polyline fill="none" stroke="#0D275B" stroke-width="2" stroke-miterlimit="10" points="417.969,134.561 446.6,199.819 
					485.469,180.603 				"/>
				
					<line fill="none" stroke="#0D275B" stroke-width="2" stroke-miterlimit="10" x1="425.807" y1="132.833" x2="424.038" y2="148.393"/>
				<line fill="none" stroke="#0D275B" stroke-width="2" stroke-miterlimit="10" x1="483" y1="169.424" x2="471.23" y2="187.643"/>
			</g>
			
				<rect x="385.591" y="222.787" transform="matrix(0.989 0.1477 -0.1477 0.989 45.8904 -62.0581)" fill="#FF4B61" width="110.169" height="110.169"/>
		</g>
		
			<line fill="none" stroke="#0D275B" stroke-width="2" stroke-miterlimit="10" x1="412.765" y1="238.11" x2="500.355" y2="251.195"/>
	</g>
	<g>
		<path fill="#BABACE" d="M108.395,234.635c1.059-2.11,0.208-4.678-1.901-5.738L85.11,271.479
			c-3.771,6.33-11.604,8.791-18.229,6.023l28.166-50.621c1.147-2.062,0.405-4.664-1.657-5.811l-30.26,54.386l-11.583-6.827
			l32.927-52.815c-2.002-1.249-4.638-0.637-5.887,1.365L47.94,266.338c-5.628-4.455-7.27-12.5-3.559-18.865l26.897-39.332
			c-1.948-1.332-4.606-0.832-5.939,1.116l-24.527,35.865l-0.077,0.122c-5.301,8.992-2.296,20.619,6.696,25.919l0,0
			c0.345,0.204,0.569,0.565,0.598,0.963l1.036,13.954l12.709-5.852c0.364-0.167,0.787-0.147,1.132,0.056l0,0
			c8.993,5.302,20.62,2.297,25.92-6.695L108.395,234.635z"/>
		
			<rect x="41.36" y="278.631" transform="matrix(0.858 0.5137 -0.5137 0.858 152.2407 13.6709)" fill="#F28DA0" width="20.069" height="7.096"/>
		<path fill="#0D275B" d="M56.838,289.573l-14.532-8.701l-30.483,48.471c-2.904,4.617-1.443,10.721,3.237,13.523
			c4.681,2.803,10.75,1.207,13.45-3.533L56.838,289.573z M18.251,337.537c-1.501-0.898-1.99-2.846-1.09-4.346
			c0.899-1.502,2.845-1.992,4.347-1.093c1.503,0.899,1.991,2.845,1.092,4.349C21.701,337.949,19.753,338.438,18.251,337.537z"/>
	</g>
	<circle fill="#F5B816" cx="285.321" cy="233.393" r="4.718"/>
	<circle fill="#F5B816" cx="477.114" cy="408.571" r="4.718"/>
	<circle fill="#3E74F2" cx="219.938" cy="221.848" r="4.718"/>
	<circle fill="#3E74F2" cx="59.59" cy="395.777" r="4.718"/>
	<circle fill="#FF4B61" cx="79.808" cy="406.934" r="4.718"/>
	<circle fill="#3E74F2" cx="357.471" cy="195.102" r="4.718"/>
	<circle fill="#FF4B61" cx="299.944" cy="207.884" r="4.718"/>
	<g>
		<path fill="#3CA573" d="M400.605,371.747c-3.479-2.471-8.211-4.592-11.813-2.305c-2.598,1.65-3.524,5.164-2.9,8.177
			c0.624,3.014,2.503,5.606,4.521,7.929c5.056,5.812,11.249,10.513,17.873,14.396c3.341,1.959,6.801,3.708,10.321,5.32
			c3.388,1.551,6.473,3.421,5.26-1.573C420.802,391.077,410.983,379.117,400.605,371.747z"/>
		<path fill="#3CA573" d="M463.092,390.362c3.074-2.958,6.039-7.215,4.46-11.18c-1.139-2.858-4.419-4.421-7.495-4.367
			c-3.078,0.054-5.975,1.418-8.631,2.971c-6.65,3.888-12.418,9.1-17.465,14.888c-2.546,2.919-4.907,5.994-7.145,9.153
			c-2.154,3.041-4.564,5.726,0.569,5.46C440.35,406.618,453.924,399.191,463.092,390.362z"/>
		<path fill="#3CA573" d="M448.839,447.218c3.896-1.74,8.129-4.739,7.989-9.004c-0.101-3.073-2.656-5.657-5.568-6.652
			c-2.912-0.993-6.101-0.692-9.127-0.134c-7.574,1.399-14.769,4.344-21.48,8.075c-3.386,1.882-6.651,3.973-9.828,6.187
			c-3.058,2.128-6.236,3.836-1.318,5.328C421.929,454.789,437.218,452.41,448.839,447.218z"/>
		<path fill="#3CA573" d="M422.72,491.081c3.896-1.741,8.129-4.739,7.988-9.003c-0.1-3.075-2.656-5.659-5.568-6.653
			c-2.912-0.994-6.101-0.692-9.126-0.135c-7.575,1.399-14.769,4.344-21.481,8.075c-3.385,1.883-6.65,3.974-9.828,6.187
			c-3.057,2.129-6.236,3.836-1.318,5.329C395.81,498.651,411.099,496.273,422.72,491.081z"/>
		<path fill="#3CA573" d="M385.215,543.319c4.247-0.412,9.213-1.908,10.436-5.997c0.882-2.948-0.72-6.209-3.166-8.078
			c-2.446-1.867-5.564-2.596-8.61-3.026c-7.628-1.08-15.385-0.574-22.935,0.83c-3.807,0.708-7.568,1.654-11.283,2.743
			c-3.576,1.047-7.132,1.655-2.943,4.633C357.294,541.947,372.546,544.55,385.215,543.319z"/>
		<path fill="#3CA573" d="M339.648,575.768c4.247-0.413,9.213-1.91,10.436-5.998c0.881-2.947-0.721-6.209-3.166-8.077
			s-5.564-2.597-8.61-3.027c-7.627-1.081-15.384-0.574-22.934,0.831c-3.808,0.708-7.568,1.654-11.283,2.741
			c-3.576,1.048-7.132,1.657-2.943,4.634C311.728,574.395,326.979,576.998,339.648,575.768z"/>
		<path fill="#3CA573" d="M381.531,417.024c-3.679-2.162-8.577-3.867-11.968-1.278c-2.446,1.867-3.065,5.447-2.185,8.396
			c0.881,2.947,2.977,5.37,5.189,7.509c5.537,5.354,12.112,9.504,19.046,12.803c3.498,1.663,7.096,3.108,10.742,4.411
			c3.508,1.253,6.743,2.849,5.104-2.021C403.319,434.54,392.505,423.473,381.531,417.024z"/>
		<path fill="#3CA573" d="M363.532,456.486c-3.059-2.975-7.41-5.797-11.321-4.088c-2.819,1.231-4.273,4.563-4.119,7.635
			c0.155,3.074,1.615,5.925,3.254,8.528c4.105,6.518,9.504,12.112,15.455,16.965c3.001,2.448,6.153,4.707,9.385,6.84
			c3.11,2.052,5.872,4.371,5.438-0.749C380.528,478.682,372.659,465.359,363.532,456.486z"/>
		<path fill="#3CA573" d="M335.343,492.171c-2.314-3.585-5.922-7.311-10.116-6.522c-3.024,0.568-5.188,3.489-5.726,6.518
			c-0.538,3.031,0.245,6.136,1.259,9.041c2.538,7.272,6.547,13.935,11.258,19.998c2.376,3.059,4.942,5.965,7.613,8.768
			c2.57,2.697,4.742,5.579,5.467,0.491C346.931,517.61,342.248,502.864,335.343,492.171z"/>
		<path fill="#3CA573" d="M302.573,521.877c-1.173-4.103-3.544-8.716-7.785-9.18c-3.059-0.335-5.978,1.832-7.372,4.575
			c-1.395,2.742-1.547,5.94-1.421,9.015c0.317,7.696,2.218,15.234,4.964,22.406c1.385,3.617,2.995,7.145,4.737,10.602
			c1.676,3.328,2.918,6.715,5.089,2.058C306.273,549.585,306.075,534.114,302.573,521.877z"/>
		<path fill="none" stroke="#0D275B" stroke-width="2" stroke-miterlimit="10" d="M272.729,576.704
			c84.62-34.31,146.924-114.866,158.861-205.384"/>
	</g>
	
		<rect x="255.918" y="447.092" transform="matrix(0.1324 -0.9912 0.9912 0.1324 -148.8625 792.6968)" fill="none" width="244.954" height="68.588"/>
	<g>
		<g>
			<path fill="#3CA573" d="M192.809,21.424c-2.291-5.268-7.349-9.658-13.093-9.679c-4.396-0.016-8.463,2.457-11.598,5.54
				c-6.014,5.914-9.311,14.01-11.997,22.005c-10.938,32.556-14.28,68.196-6.526,101.844c0.46,1.996,1.813,8.313,3.593,11.326
				c-0.758-1.283,1.053-6.667,1.358-8.162c0.582-2.844,1.273-5.666,2.066-8.458c1.628-5.728,3.688-11.331,6.116-16.767
				c11.721-26.229,28.605-51.601,31.745-80.695C195.089,32.667,195.1,26.692,192.809,21.424z"/>
			<path fill="#3CA573" d="M216.147,119.899c-1.373-4.615-5.136-8.781-9.914-9.38c-3.656-0.458-7.291,1.187-10.211,3.435
				c-5.603,4.312-9.167,10.713-12.213,17.094c-12.401,25.98-18.793,55.297-15.752,84.081c0.181,1.707,0.667,7.1,1.842,9.788
				c-0.5-1.145,1.551-5.441,1.958-6.654c0.772-2.308,1.633-4.585,2.577-6.828c1.935-4.601,4.216-9.055,6.789-13.331
				c12.411-20.637,29.031-40.037,34.592-63.928C216.905,129.485,217.519,124.514,216.147,119.899z"/>
			<path fill="#3CA573" d="M51.548,115.292c-1.248-5.607,0.258-12.134,4.891-15.53c3.545-2.6,8.288-2.994,12.637-2.346
				c8.343,1.243,15.772,5.848,22.649,10.731c28.002,19.884,51.678,46.733,65.21,78.501c0.802,1.884,3.425,7.788,3.76,11.271
				c-0.143-1.483-4.775-4.771-5.902-5.8c-2.144-1.958-4.363-3.832-6.648-5.623c-4.687-3.673-9.649-6.991-14.812-9.957
				c-24.912-14.309-53.494-24.887-73.154-46.563C56.321,125.724,52.796,120.899,51.548,115.292z"/>
			<path fill="none" stroke="#0D275B" stroke-width="2" stroke-miterlimit="10" d="M164.707,68.628c0,0-15.268,49.645-11.52,83.832
				l27.845,123.362"/>
			<path fill="none" stroke="#0D275B" stroke-width="2" stroke-miterlimit="10" d="M90.958,130.839c0,0,60.985,45.76,72.497,67.111"
				/>
			<path fill="none" stroke="#0D275B" stroke-width="2" stroke-miterlimit="10" d="M195.721,141.181c0,0-30.065,50.685-27.72,76.91"
				/>
		</g>
		<polygon fill="#F5B816" points="289.695,475.646 197.234,502.293 126.493,274.222 228.215,244.907 		"/>
		
			<line fill="none" stroke="#0D275B" stroke-width="2" stroke-miterlimit="10" x1="160.785" y1="298.198" x2="237.224" y2="276.17"/>
	</g>
	<rect x="70.554" y="147.431" fill="none" width="243.701" height="440.022"/>
	<g>
		<path fill="#BABACE" d="M331.063,261.18L331.063,261.18c-27.623,11.071-50.269,31.821-63.706,58.373l-6.342,12.534
			c-1.422,2.809-0.297,6.24,2.513,7.662l44.224,22.38c2.81,1.421,6.24,0.297,7.661-2.514l6.343-12.532
			C335.192,320.53,338.5,289.995,331.063,261.18z"/>
		<path fill="#FFFFFF" d="M304.133,314.392L304.133,314.392c-10.599,4.248-19.289,12.21-24.444,22.398l-8.654,17.101l20.873,10.563
			l8.654-17.099C305.718,337.166,306.988,325.448,304.133,314.392z"/>
		
			<rect x="265.903" y="358.661" transform="matrix(0.8922 0.4516 -0.4516 0.8922 194.207 -86.9743)" fill="#3E74F2" width="26.851" height="9.492"/>
		<path fill="#0D275B" d="M287.293,372.758l-20.216-10.231L230.998,430.1c-3.437,6.438-0.909,14.443,5.603,17.738
			c6.512,3.295,14.46,0.592,17.612-5.99L287.293,372.758z M240.352,440.425c-2.089-1.058-2.926-3.609-1.869-5.699
			c1.058-2.09,3.609-2.928,5.699-1.869c2.09,1.058,2.927,3.608,1.869,5.698C244.994,440.646,242.442,441.482,240.352,440.425z"/>
		<path fill="none" stroke="#0D275B" stroke-width="1.8129" stroke-miterlimit="10" d="M271.035,353.891l8.654-17.101
			c4.594-9.077,11.992-16.387,21.046-20.877c1.719-0.853,3.769,0.237,4.035,2.136c0.897,6.381,1.53,18.213-4.208,29.306
			l-8.654,17.099"/>
	</g>
	<g>
		<path fill="#8ACEC1" d="M41.767,181.559c0,0-14.818-31.984-29.619-23.083C-2.652,167.378,18.515,184.704,41.767,181.559z"/>
		
			<path fill="none" stroke="#479A84" stroke-width="1.7725" stroke-linecap="round" stroke-linejoin="round" stroke-miterlimit="10" d="
			M17.662,166.66c0,0,16.802,17.521,40.476,14.523"/>
	</g>
	<g>
		<path fill="#8ACEC1" d="M501.841,369.811c0,0,14.817-31.983,29.619-23.082C546.26,355.63,525.093,372.956,501.841,369.811z"/>
		
			<path fill="none" stroke="#479A84" stroke-width="1.7725" stroke-linecap="round" stroke-linejoin="round" stroke-miterlimit="10" d="
			M525.945,354.912c0,0-16.802,17.521-40.476,14.523"/>
	</g>
	<g>
		<path fill="#8ACEC1" d="M366.296,171.188c0,0-6.666-34.613-23.177-29.544C326.609,146.712,342.972,168.632,366.296,171.188z"/>
		
			<path fill="none" stroke="#479A84" stroke-width="1.7725" stroke-linecap="round" stroke-linejoin="round" stroke-miterlimit="10" d="
			M346.497,150.915c0,0,12.08,21.057,35.778,23.857"/>
	</g>
	<g>
		<path fill="#8ACEC1" d="M63.55,425.886c0,0-26.491,23.253-36.425,9.123C17.192,420.88,43.56,413.602,63.55,425.886z"/>
		
			<path fill="none" stroke="#479A84" stroke-width="1.7725" stroke-linecap="round" stroke-linejoin="round" stroke-miterlimit="10" d="
			M35.479,429.757c0,0,22.454-9.225,42.89,3.097"/>
	</g>
</g>
<g id="TEXTS">
</g>
</svg>
