<svg width="800" height="592" viewBox="0 0 800 592" fill="none" xmlns="http://www.w3.org/2000/svg">
<path d="M256.557 591.172C289.304 591.172 315.85 564.625 315.85 531.879C315.85 499.132 289.304 472.586 256.557 472.586C223.811 472.586 197.264 499.132 197.264 531.879C197.264 564.625 223.811 591.172 256.557 591.172Z" fill="black"/>
<path d="M711.061 591.172C743.807 591.172 770.354 564.625 770.354 531.879C770.354 499.132 743.807 472.586 711.061 472.586C678.314 472.586 651.768 499.132 651.768 531.879C651.768 564.625 678.314 591.172 711.061 591.172Z" fill="black"/>
<path d="M800 116.174C800 115.236 799.545 114.44 799.488 113.502C799.261 111.484 798.891 109.608 798.323 107.732C797.726 105.913 797.101 104.179 796.276 102.531C795.395 100.853 794.372 99.4323 793.178 97.9542C791.984 96.4193 790.734 95.0549 789.227 93.8043C787.834 92.6105 786.356 91.7009 784.765 90.7913C782.974 89.7965 781.212 88.9722 779.222 88.3184C778.369 88.0342 777.687 87.4373 776.806 87.2383C775.669 86.9825 774.646 87.2667 773.537 87.1814C772.429 87.0962 771.491 86.5561 770.382 86.5561L197.236 86.4708C196.809 86.4708 196.468 86.6982 196.042 86.7266L176.6 21.9762C172.848 9.44116 161.279 0.828613 148.204 0.828613H29.6465C13.2741 0.828613 0 14.1027 0 30.4751C0 46.8474 13.2741 60.1216 29.6465 60.1216H126.175L238.422 434.241C242.174 446.776 253.743 455.332 266.818 455.332H701.538C715.466 455.332 727.461 445.725 730.503 432.138L799.289 122.655C799.545 121.575 799.233 120.523 799.346 119.443C799.488 118.306 800 117.311 800 116.174ZM677.804 396.039H288.875L213.779 145.735L733.402 145.821L677.804 396.039Z" fill="black"/>
</svg>
