<svg width="338" height="386" viewBox="0 0 338 386" fill="none" xmlns="http://www.w3.org/2000/svg">
<g clip-path="url(#clip0_8_967)">
<path d="M56.556 4.75995C56.44 4.67895 56.33 4.59495 56.189 4.56195C56.086 4.53795 55.968 4.54096 55.862 4.53596L55.436 4.51695C55.157 4.50495 54.878 4.49296 54.599 4.47996C54.43 4.47296 54.225 4.54595 54.096 4.65495C53.982 4.75295 53.88 4.92096 53.888 5.07696C53.908 5.43296 54.251 5.68896 54.599 5.67396C54.878 5.66196 55.157 5.64995 55.436 5.63695C55.573 5.63095 55.709 5.62496 55.846 5.61896C55.957 5.61396 56.081 5.61795 56.189 5.59295C56.331 5.55995 56.44 5.47595 56.556 5.39495C56.76 5.25195 56.76 4.90295 56.556 4.75995Z" fill="#D7E5FF"/>
<path d="M87.566 73.3333C87.497 73.3353 87.429 73.3373 87.36 73.3393C87.223 73.3433 87.087 73.3473 86.95 73.3523C86.839 73.3553 86.722 73.3883 86.636 73.4613C86.564 73.5223 86.5 73.6283 86.505 73.7263C86.518 73.9623 86.733 74.0933 86.95 74.1003C87.087 74.1043 87.223 74.1083 87.36 74.1123C87.429 74.1143 87.497 74.1163 87.566 74.1183C87.635 74.1203 87.706 74.1113 87.771 74.0883C87.875 74.0523 87.982 74.0143 88.043 73.9143C88.079 73.8563 88.106 73.7953 88.106 73.7263C88.106 73.4603 87.797 73.3263 87.566 73.3333Z" fill="#D7E5FF"/>
<path d="M317.004 4.25601C316.96 4.14101 316.881 4.07201 316.777 4.00901C316.529 3.85601 316.281 3.70301 316.033 3.55001C315.785 3.39701 315.508 3.28101 315.246 3.15201C315.113 3.08601 314.941 3.06901 314.798 3.10301C314.673 3.13201 314.521 3.21401 314.45 3.32801C314.293 3.58001 314.401 3.86601 314.659 3.99701C314.919 4.12901 315.178 4.28201 315.449 4.39101C315.726 4.50201 316.004 4.61301 316.281 4.72401C316.404 4.77301 316.528 4.79701 316.66 4.76601C316.765 4.74101 316.894 4.67201 316.954 4.57601C317.013 4.48101 317.045 4.36501 317.004 4.25601Z" fill="#D7E5FF"/>
<path d="M338.053 135.096C337.989 135.049 337.926 135.02 337.854 134.99C337.815 134.973 337.775 134.957 337.734 134.946C337.686 134.932 337.637 134.929 337.588 134.928C337.555 134.927 337.521 134.926 337.487 134.925C337.353 134.921 337.219 134.917 337.085 134.912C336.982 134.909 336.86 134.951 336.781 135.018C336.712 135.077 336.65 135.178 336.655 135.273C336.667 135.491 336.875 135.641 337.085 135.634C337.22 135.63 337.354 135.625 337.487 135.621C337.518 135.62 337.55 135.619 337.58 135.618C337.63 135.617 337.679 135.614 337.727 135.602C337.77 135.591 337.813 135.573 337.854 135.555C337.926 135.524 337.989 135.496 338.053 135.449C338.166 135.367 338.166 135.18 338.053 135.096Z" fill="#D7E5FF"/>
<path d="M327.177 314.885C327.087 314.808 326.946 314.759 326.826 314.763C326.703 314.768 326.569 314.799 326.475 314.885C326.396 314.958 326.318 315.066 326.329 315.18C326.355 315.443 326.382 315.706 326.407 315.969C326.417 316.069 326.451 316.151 326.53 316.217C326.606 316.282 326.725 316.324 326.825 316.32C326.929 316.316 327.042 316.29 327.121 316.217L327.186 316.146C327.223 316.093 327.242 316.034 327.243 315.969C327.269 315.706 327.296 315.443 327.321 315.18C327.333 315.074 327.254 314.95 327.177 314.885Z" fill="#D7E5FF"/>
<path d="M225.41 317.248C225.362 317.183 225.303 317.123 225.249 317.062C225.168 316.969 225.079 316.885 224.99 316.799C224.868 316.68 224.746 316.562 224.623 316.443C224.573 316.399 224.517 316.368 224.452 316.351C224.388 316.323 224.319 316.309 224.248 316.312C224.123 316.312 223.966 316.356 223.872 316.442C223.785 316.523 223.71 316.633 223.717 316.758C223.723 316.798 223.73 316.837 223.736 316.877C223.763 316.955 223.809 317.021 223.873 317.074L224.316 317.53C224.389 317.606 224.468 317.675 224.547 317.744C224.557 317.753 224.567 317.762 224.577 317.77C224.635 317.816 224.69 317.846 224.758 317.87C224.821 317.898 224.889 317.91 224.959 317.908C225.005 317.903 225.052 317.898 225.098 317.892C225.104 317.891 225.11 317.888 225.115 317.887C225.121 317.885 225.127 317.883 225.132 317.881C225.167 317.868 225.202 317.856 225.237 317.844C225.287 317.822 225.328 317.791 225.36 317.749C225.379 317.729 225.394 317.712 225.411 317.691C225.507 317.563 225.501 317.376 225.41 317.248Z" fill="#D7E5FF"/>
<path d="M126.979 206.199C126.978 206.152 126.964 206.109 126.937 206.07C126.926 206.047 126.915 206.025 126.903 206.002C126.892 205.983 126.88 205.964 126.867 205.945C126.829 205.889 126.775 205.841 126.727 205.792C126.71 205.775 126.694 205.758 126.678 205.741C126.611 205.672 126.543 205.602 126.475 205.533C126.34 205.394 126.205 205.255 126.071 205.116C126.01 205.062 125.941 205.025 125.864 205.004C125.785 204.969 125.703 204.954 125.615 204.957C125.528 204.954 125.446 204.969 125.367 205.004C125.29 205.025 125.221 205.062 125.16 205.116C125.054 205.214 124.963 205.347 124.971 205.499C124.979 205.547 124.987 205.595 124.994 205.643C125.027 205.738 125.082 205.817 125.16 205.882C125.297 206.015 125.434 206.149 125.572 206.282C125.639 206.348 125.707 206.413 125.775 206.479C125.808 206.511 125.84 206.549 125.878 206.577C125.898 206.592 125.918 206.604 125.939 206.618C125.983 206.647 126.029 206.681 126.077 206.706C126.148 206.744 126.223 206.764 126.303 206.767C126.333 206.774 126.364 206.777 126.395 206.776C126.448 206.77 126.5 206.764 126.553 206.758C126.627 206.744 126.695 206.714 126.754 206.669C126.798 206.648 126.833 206.619 126.861 206.58C126.912 206.534 126.947 206.477 126.966 206.411C126.989 206.322 126.991 206.279 126.979 206.199Z" fill="#D7E5FF"/>
<path d="M86.832 28.5124C86.801 28.4324 86.75 28.3664 86.681 28.3134C86.612 28.2514 86.533 28.2094 86.445 28.1864C86.356 28.1474 86.261 28.1294 86.162 28.1334C85.979 28.1404 85.781 28.1864 85.643 28.3144C85.522 28.4254 85.418 28.5784 85.427 28.7514C85.434 28.8674 85.44 28.9824 85.447 29.0984L85.457 29.2714C85.458 29.2974 85.46 29.3244 85.461 29.3504C85.464 29.4134 85.466 29.4814 85.487 29.5384C85.51 29.5854 85.534 29.6324 85.558 29.6794C85.596 29.7224 85.635 29.7644 85.675 29.8064C85.74 29.8644 85.814 29.9044 85.897 29.9264C85.981 29.9634 86.069 29.9794 86.162 29.9764C86.224 29.9694 86.284 29.9624 86.346 29.9554C86.458 29.9294 86.56 29.8804 86.649 29.8064C86.726 29.7254 86.807 29.6524 86.837 29.5384C86.852 29.4824 86.86 29.4164 86.863 29.3584L86.868 29.2714C86.871 29.2134 86.874 29.1554 86.878 29.0984C86.884 28.9824 86.891 28.8674 86.897 28.7514C86.898 28.6624 86.878 28.5834 86.832 28.5124Z" fill="#D7E5FF"/>
<path d="M34.63 100.947C34.607 100.887 34.561 100.845 34.521 100.798C34.518 100.783 34.515 100.768 34.511 100.753C34.493 100.607 34.475 100.461 34.457 100.314C34.459 100.263 34.446 100.216 34.419 100.174C34.4 100.127 34.371 100.088 34.33 100.057C34.251 99.99 34.127 99.946 34.023 99.95C33.915 99.954 33.797 99.981 33.716 100.057C33.694 100.081 33.671 100.106 33.648 100.131C33.61 100.186 33.589 100.247 33.589 100.315C33.57 100.461 33.553 100.607 33.534 100.753C33.534 100.755 33.533 100.757 33.533 100.759C33.48 100.813 33.438 100.877 33.416 100.947C33.386 101.041 33.386 101.135 33.416 101.228C33.437 101.299 33.475 101.359 33.528 101.408C33.575 101.468 33.633 101.513 33.705 101.544C33.805 101.592 33.911 101.616 34.022 101.616C34.185 101.616 34.338 101.561 34.466 101.461C34.614 101.347 34.698 101.127 34.63 100.947Z" fill="#D7E5FF"/>
<path d="M115.184 96.2094C115.147 96.1044 115.085 96.0153 114.999 95.9433C114.815 95.7733 114.579 95.7084 114.334 95.7154C114.266 95.7174 114.197 95.7183 114.129 95.7213C113.992 95.7253 113.856 95.7294 113.719 95.7334C113.53 95.7384 113.33 95.7944 113.183 95.9204C113.112 95.9744 113.059 96.0434 113.027 96.1254C112.98 96.1994 112.959 96.2813 112.962 96.3703C112.971 96.5433 113.044 96.7114 113.184 96.8204C113.34 96.9424 113.521 97.0014 113.72 97.0074C113.857 97.0114 113.993 97.0154 114.13 97.0194C114.198 97.0214 114.267 97.0233 114.335 97.0253C114.578 97.0323 114.818 96.9654 115 96.7964C115.068 96.7444 115.117 96.6804 115.148 96.6024C115.192 96.5334 115.212 96.4553 115.21 96.3703C115.2 96.3163 115.191 96.2634 115.184 96.2094Z" fill="#D7E5FF"/>
<path d="M84.901 118.146C84.786 118.065 84.676 117.981 84.535 117.948C84.431 117.924 84.3139 117.927 84.2079 117.922L83.781 117.903C83.503 117.891 83.223 117.879 82.945 117.866C82.776 117.858 82.571 117.931 82.442 118.041C82.328 118.138 82.2249 118.307 82.2339 118.463C82.2529 118.819 82.597 119.076 82.945 119.061C83.223 119.049 83.503 119.036 83.781 119.024C83.918 119.018 84.0539 119.012 84.1909 119.006C84.3029 119.001 84.427 119.005 84.535 118.98C84.677 118.947 84.786 118.863 84.901 118.782C85.106 118.638 85.106 118.289 84.901 118.146Z" fill="#D7E5FF"/>
<path d="M115.912 186.719C115.844 186.721 115.775 186.723 115.707 186.725C115.57 186.729 115.434 186.733 115.297 186.738C115.186 186.741 115.068 186.774 114.983 186.847C114.911 186.908 114.847 187.014 114.852 187.112C114.865 187.348 115.079 187.48 115.297 187.486C115.434 187.49 115.57 187.494 115.707 187.499C115.775 187.501 115.844 187.503 115.912 187.505C115.982 187.507 116.052 187.497 116.118 187.474C116.222 187.438 116.328 187.4 116.39 187.3C116.426 187.242 116.452 187.181 116.452 187.112C116.452 186.846 116.144 186.712 115.912 186.719Z" fill="#D7E5FF"/>
<path d="M171.486 76.4052C171.406 76.3722 171.326 76.3333 171.24 76.3213C171.158 76.3083 171.075 76.2952 170.991 76.2862C170.84 76.2682 170.684 76.2713 170.531 76.2663C170.424 76.2633 170.296 76.3073 170.214 76.3773C170.142 76.4393 170.077 76.5452 170.082 76.6442C170.095 76.8712 170.311 77.0292 170.531 77.0212C170.684 77.0162 170.84 77.0193 170.991 77.0013C171.072 76.9923 171.152 76.9792 171.233 76.9672C171.322 76.9542 171.404 76.9153 171.486 76.8823C171.578 76.8443 171.648 76.7432 171.648 76.6442C171.648 76.5452 171.578 76.4422 171.486 76.4052Z" fill="#D7E5FF"/>
<path d="M155.324 319.585C155.324 319.538 155.31 319.495 155.283 319.456C155.272 319.433 155.261 319.411 155.249 319.388C155.238 319.369 155.226 319.35 155.213 319.331C155.174 319.275 155.121 319.227 155.073 319.178C155.056 319.161 155.04 319.144 155.024 319.127C154.956 319.058 154.888 318.988 154.821 318.919C154.686 318.78 154.551 318.641 154.417 318.502C154.356 318.448 154.287 318.411 154.209 318.39C154.131 318.355 154.048 318.34 153.961 318.343C153.874 318.34 153.791 318.355 153.713 318.39C153.636 318.411 153.567 318.448 153.506 318.502C153.4 318.6 153.309 318.733 153.317 318.885C153.325 318.933 153.333 318.981 153.34 319.029C153.373 319.124 153.428 319.204 153.506 319.268C153.643 319.402 153.78 319.535 153.917 319.668C153.985 319.734 154.053 319.799 154.121 319.865C154.154 319.898 154.186 319.935 154.223 319.963C154.243 319.978 154.264 319.99 154.285 320.004C154.329 320.033 154.375 320.067 154.422 320.092C154.493 320.13 154.569 320.15 154.649 320.153C154.679 320.161 154.71 320.163 154.741 320.162C154.794 320.156 154.845 320.15 154.899 320.144C154.973 320.13 155.041 320.1 155.1 320.055C155.144 320.034 155.179 320.005 155.206 319.966C155.257 319.92 155.293 319.863 155.312 319.797C155.335 319.708 155.338 319.665 155.324 319.585Z" fill="#D7E5FF"/>
<path d="M115.179 141.897C115.148 141.817 115.097 141.751 115.028 141.698C114.959 141.637 114.88 141.594 114.792 141.571C114.702 141.532 114.608 141.514 114.509 141.518C114.326 141.525 114.128 141.571 113.989 141.699C113.869 141.81 113.764 141.963 113.774 142.136C113.78 142.252 113.787 142.367 113.794 142.483L113.803 142.656C113.805 142.682 113.806 142.709 113.808 142.735C113.811 142.798 113.813 142.866 113.834 142.923C113.857 142.969 113.881 143.016 113.904 143.063C113.943 143.106 113.982 143.148 114.022 143.191C114.086 143.249 114.161 143.288 114.244 143.311C114.327 143.347 114.416 143.364 114.509 143.36C114.57 143.353 114.631 143.346 114.692 143.339C114.805 143.313 114.907 143.264 114.996 143.191C115.072 143.109 115.154 143.037 115.184 142.923C115.199 142.867 115.206 142.8 115.21 142.743L115.215 142.656C115.218 142.598 115.221 142.54 115.224 142.483C115.231 142.367 115.237 142.252 115.244 142.136C115.245 142.048 115.225 141.969 115.179 141.897Z" fill="#D7E5FF"/>
<path d="M43.871 88.1214C43.83 88.0954 43.789 88.0684 43.749 88.0414C43.652 87.9954 43.551 87.9724 43.444 87.9724C43.381 87.9664 43.319 87.9644 43.255 87.9684C43.194 87.9714 43.135 87.9754 43.073 87.9784C42.95 87.9854 42.826 87.9924 42.703 87.9994C42.557 88.0074 42.413 88.0434 42.3 88.1404C42.208 88.2184 42.126 88.3534 42.133 88.4784C42.14 88.6084 42.195 88.7354 42.3 88.8174C42.338 88.8424 42.377 88.8674 42.415 88.8924C42.506 88.9364 42.602 88.9584 42.703 88.9574C42.826 88.9644 42.95 88.9714 43.073 88.9784C43.135 88.9814 43.194 88.9854 43.255 88.9884C43.319 88.9924 43.381 88.9894 43.444 88.9844C43.526 88.9874 43.603 88.9724 43.676 88.9404C43.748 88.9214 43.813 88.8864 43.87 88.8364C43.967 88.7534 44.053 88.6114 44.046 88.4784C44.04 88.3414 43.981 88.2084 43.871 88.1214Z" fill="#D7E5FF"/>
<path d="M15.875 127.328C14.969 127.328 14.966 128.536 15.875 128.536C16.781 128.536 16.783 127.328 15.875 127.328Z" fill="#D7E5FF"/>
<path d="M30.144 138.729C30.108 138.623 30.046 138.535 29.959 138.463C29.775 138.292 29.54 138.228 29.295 138.234C29.227 138.236 29.158 138.238 29.09 138.24C28.953 138.244 28.817 138.248 28.68 138.252C28.491 138.257 28.291 138.314 28.144 138.439C28.072 138.494 28.02 138.562 27.988 138.644C27.941 138.718 27.919 138.8 27.923 138.89C27.932 139.063 28.005 139.231 28.145 139.34C28.301 139.462 28.482 139.521 28.681 139.527C28.818 139.531 28.954 139.535 29.091 139.539C29.159 139.541 29.228 139.543 29.296 139.545C29.539 139.552 29.778 139.485 29.96 139.316C30.028 139.265 30.078 139.2 30.108 139.123C30.152 139.053 30.172 138.976 30.171 138.891C30.161 138.835 30.152 138.782 30.144 138.729Z" fill="#D7E5FF"/>
<path d="M-0.137993 160.665C-0.252993 160.584 -0.36299 160.5 -0.50499 160.467C-0.60799 160.443 -0.724993 160.446 -0.831993 160.441L-1.258 160.422C-1.536 160.41 -1.81599 160.398 -2.09399 160.385C-2.26299 160.378 -2.46799 160.45 -2.59699 160.56C-2.71099 160.657 -2.81399 160.826 -2.80499 160.982C-2.78599 161.338 -2.44299 161.594 -2.09399 161.579C-1.81599 161.567 -1.536 161.555 -1.258 161.542C-1.121 161.536 -0.984992 161.53 -0.847992 161.524C-0.736992 161.519 -0.61199 161.522 -0.50499 161.497C-0.36199 161.464 -0.252993 161.38 -0.137993 161.299C0.0660069 161.157 0.0660069 160.809 -0.137993 160.665Z" fill="#D7E5FF"/>
<path d="M30.873 229.239C30.805 229.241 30.736 229.243 30.668 229.245C30.531 229.249 30.395 229.253 30.258 229.257C30.147 229.26 30.029 229.293 29.943 229.367C29.872 229.428 29.807 229.533 29.813 229.631C29.826 229.867 30.04 229.999 30.258 230.005C30.395 230.009 30.531 230.013 30.668 230.018C30.736 230.02 30.805 230.022 30.873 230.024C30.943 230.026 31.013 230.017 31.079 229.994C31.183 229.957 31.289 229.92 31.351 229.82C31.387 229.762 31.413 229.701 31.413 229.632C31.413 229.365 31.104 229.232 30.873 229.239Z" fill="#D7E5FF"/>
<path d="M86.447 118.924C86.367 118.891 86.287 118.852 86.201 118.84C86.118 118.828 86.035 118.814 85.952 118.805C85.8 118.788 85.644 118.79 85.492 118.785C85.385 118.782 85.257 118.826 85.175 118.895C85.102 118.957 85.038 119.063 85.043 119.162C85.055 119.389 85.272 119.547 85.492 119.539C85.644 119.534 85.8 119.537 85.952 119.519C86.033 119.51 86.113 119.497 86.194 119.485C86.282 119.471 86.364 119.433 86.447 119.399C86.539 119.361 86.609 119.261 86.609 119.161C86.609 119.063 86.539 118.962 86.447 118.924Z" fill="#D7E5FF"/>
<path d="M287.844 133.86C287.811 133.839 287.777 133.817 287.743 133.795C287.664 133.757 287.581 133.738 287.493 133.738C287.229 133.712 286.967 133.686 286.704 133.659C286.624 133.656 286.549 133.67 286.476 133.701C286.406 133.72 286.342 133.754 286.287 133.804C286.191 133.885 286.107 134.024 286.114 134.155C286.121 134.29 286.177 134.42 286.287 134.505C286.326 134.531 286.366 134.557 286.406 134.583C286.5 134.628 286.599 134.651 286.704 134.65C286.967 134.624 287.229 134.598 287.493 134.571C287.559 134.573 287.623 134.562 287.683 134.535C287.743 134.519 287.796 134.491 287.843 134.449C287.923 134.381 287.994 134.264 287.989 134.155C287.983 134.041 287.936 133.931 287.844 133.86Z" fill="#D7E5FF"/>
<path d="M301.374 250.544C301.311 250.488 301.24 250.45 301.161 250.429C301.081 250.394 300.996 250.378 300.907 250.381C300.742 250.387 300.564 250.428 300.44 250.544C300.328 250.647 300.246 250.778 300.247 250.936L300.249 251.331C300.249 251.394 300.25 251.457 300.25 251.52C300.25 251.552 300.25 251.583 300.25 251.615C300.251 251.698 300.264 251.771 300.277 251.856C300.299 251.899 300.322 251.943 300.343 251.987C300.387 252.052 300.443 252.104 300.511 252.141C300.553 252.176 300.601 252.199 300.655 252.211C300.735 252.246 300.818 252.261 300.907 252.258C301.02 252.254 301.133 252.23 301.236 252.183C301.309 252.151 301.371 252.104 301.419 252.042C301.475 251.992 301.514 251.93 301.536 251.856C301.55 251.774 301.563 251.703 301.563 251.624C301.563 251.592 301.563 251.561 301.564 251.529C301.564 251.463 301.564 251.397 301.565 251.332C301.565 251.2 301.566 251.069 301.567 250.937C301.568 250.787 301.485 250.639 301.374 250.544Z" fill="#D7E5FF"/>
<path d="M260.311 160.162C260.268 160.047 260.188 159.978 260.085 159.915C259.837 159.762 259.588 159.609 259.34 159.456C259.092 159.303 258.815 159.187 258.554 159.058C258.421 158.992 258.248 158.975 258.106 159.009C257.98 159.038 257.829 159.12 257.757 159.234C257.6 159.487 257.708 159.772 257.966 159.903C258.227 160.035 258.485 160.189 258.756 160.297C259.033 160.408 259.311 160.519 259.588 160.63C259.711 160.679 259.835 160.702 259.967 160.672C260.073 160.647 260.201 160.578 260.262 160.482C260.319 160.387 260.353 160.27 260.311 160.162Z" fill="#D7E5FF"/>
<path d="M311.786 177.333C311.757 177.26 311.71 177.199 311.645 177.149C311.581 177.092 311.507 177.053 311.426 177.031C311.343 176.995 311.256 176.979 311.164 176.982C310.995 176.988 310.811 177.031 310.684 177.149C310.575 177.25 310.47 177.395 310.485 177.553C310.497 177.684 310.508 177.816 310.519 177.948C310.529 178.051 310.526 178.167 310.572 178.259C310.579 178.273 310.586 178.287 310.593 178.301C310.597 178.311 310.602 178.32 310.607 178.329C310.627 178.368 310.646 178.407 310.666 178.445C310.686 178.472 310.712 178.496 310.734 178.522C310.781 178.587 310.841 178.637 310.914 178.672C310.993 178.71 311.076 178.729 311.165 178.729C311.253 178.729 311.337 178.71 311.416 178.672C311.488 178.637 311.548 178.587 311.595 178.522C311.616 178.498 311.639 178.475 311.659 178.451C311.696 178.407 311.724 178.324 311.754 178.266C311.788 178.197 311.794 178.119 311.801 178.043C311.804 178.011 311.807 177.98 311.81 177.948C311.822 177.817 311.833 177.685 311.845 177.553C311.848 177.473 311.828 177.399 311.786 177.333Z" fill="#D7E5FF"/>
<path d="M281.36 291.002C281.296 290.955 281.232 290.926 281.161 290.896C281.121 290.879 281.081 290.864 281.04 290.852C280.993 290.838 280.943 290.836 280.894 290.834C280.86 290.833 280.827 290.832 280.793 290.831C280.658 290.827 280.524 290.823 280.391 290.819C280.287 290.816 280.165 290.858 280.087 290.924C280.018 290.983 279.956 291.085 279.961 291.179C279.972 291.396 280.18 291.546 280.391 291.54C280.525 291.536 280.659 291.532 280.793 291.527C280.823 291.526 280.855 291.526 280.886 291.525C280.935 291.523 280.985 291.521 281.032 291.509C281.076 291.499 281.118 291.48 281.16 291.463C281.231 291.432 281.294 291.404 281.359 291.357C281.474 291.272 281.474 291.085 281.36 291.002Z" fill="#D7E5FF"/>
<path d="M325.681 327.995C325.654 327.955 325.618 327.92 325.587 327.884C325.505 327.787 325.414 327.697 325.326 327.605C325.191 327.465 325.058 327.325 324.924 327.186C324.878 327.145 324.826 327.117 324.768 327.101C324.708 327.075 324.645 327.063 324.58 327.066C324.466 327.066 324.321 327.107 324.234 327.186C324.154 327.26 324.086 327.361 324.091 327.476C324.097 327.594 324.149 327.684 324.234 327.766C324.373 327.899 324.511 328.031 324.65 328.163C324.717 328.228 324.784 328.297 324.856 328.358C324.892 328.389 324.927 328.421 324.964 328.451C325.033 328.505 325.112 328.54 325.197 328.559C325.22 328.564 325.243 328.57 325.266 328.575C325.382 328.601 325.499 328.582 325.599 328.517C325.68 328.465 325.762 328.37 325.75 328.265C325.74 328.171 325.735 328.075 325.681 327.995Z" fill="#D7E5FF"/>
<path d="M70.285 362.104C70.285 362.057 70.271 362.014 70.244 361.975C70.233 361.953 70.222 361.93 70.21 361.908C70.198 361.888 70.187 361.869 70.174 361.851C70.135 361.795 70.081 361.747 70.034 361.698C70.017 361.681 70.001 361.664 69.984 361.647C69.917 361.578 69.849 361.508 69.782 361.439C69.647 361.3 69.512 361.161 69.378 361.022C69.316 360.968 69.247 360.931 69.17 360.91C69.092 360.876 69.009 360.86 68.922 360.864C68.835 360.861 68.752 360.876 68.674 360.91C68.596 360.931 68.528 360.968 68.466 361.022C68.361 361.12 68.27 361.253 68.278 361.405C68.286 361.453 68.294 361.501 68.3 361.549C68.333 361.644 68.389 361.724 68.466 361.788C68.604 361.922 68.74 362.055 68.878 362.188C68.945 362.254 69.014 362.32 69.081 362.386C69.114 362.418 69.146 362.455 69.184 362.484C69.204 362.499 69.225 362.512 69.245 362.525C69.29 362.555 69.335 362.588 69.383 362.613C69.454 362.651 69.529 362.671 69.609 362.674C69.64 362.681 69.671 362.684 69.701 362.682C69.754 362.676 69.806 362.67 69.859 362.664C69.934 362.65 70.002 362.62 70.061 362.575C70.104 362.554 70.139 362.524 70.167 362.485C70.218 362.439 70.253 362.383 70.273 362.316C70.296 362.228 70.298 362.185 70.285 362.104Z" fill="#D7E5FF"/>
<path d="M30.14 184.417C30.109 184.338 30.058 184.271 29.989 184.219C29.919 184.157 29.841 184.115 29.752 184.092C29.663 184.052 29.568 184.035 29.47 184.039C29.287 184.046 29.089 184.092 28.95 184.22C28.83 184.331 28.725 184.484 28.735 184.656C28.741 184.772 28.748 184.887 28.754 185.003L28.764 185.177C28.765 185.203 28.767 185.229 28.769 185.256C28.772 185.319 28.774 185.388 28.795 185.444C28.818 185.491 28.842 185.538 28.865 185.584C28.904 185.627 28.943 185.67 28.983 185.712C29.047 185.77 29.122 185.809 29.204 185.832C29.288 185.869 29.376 185.885 29.47 185.882C29.531 185.875 29.592 185.868 29.653 185.861C29.766 185.836 29.867 185.786 29.957 185.713C30.033 185.631 30.114 185.559 30.145 185.445C30.161 185.389 30.168 185.323 30.171 185.265L30.176 185.179C30.18 185.121 30.183 185.063 30.186 185.005C30.193 184.889 30.199 184.774 30.206 184.658C30.206 184.568 30.185 184.489 30.14 184.417Z" fill="#D7E5FF"/>
<path d="M72.664 266.288C72.627 266.182 72.565 266.094 72.479 266.022C72.295 265.851 72.059 265.786 71.814 265.793C71.746 265.795 71.677 265.797 71.609 265.799C71.472 265.803 71.336 265.807 71.199 265.811C71.01 265.816 70.81 265.873 70.663 265.998C70.591 266.053 70.539 266.121 70.507 266.203C70.46 266.277 70.439 266.359 70.442 266.449C70.451 266.622 70.524 266.79 70.664 266.899C70.82 267.021 71.001 267.08 71.2 267.085C71.337 267.089 71.473 267.093 71.61 267.097C71.678 267.099 71.747 267.101 71.815 267.103C72.058 267.11 72.297 267.043 72.48 266.874C72.547 266.822 72.597 266.757 72.628 266.68C72.672 266.61 72.692 266.533 72.69 266.448C72.681 266.395 72.672 266.341 72.664 266.288Z" fill="#D7E5FF"/>
<path d="M42.382 288.224C42.267 288.143 42.157 288.059 42.015 288.026C41.912 288.002 41.795 288.005 41.689 288L41.262 287.981C40.984 287.969 40.704 287.957 40.426 287.944C40.257 287.937 40.052 288.009 39.923 288.119C39.809 288.216 39.706 288.385 39.715 288.541C39.734 288.897 40.077 289.153 40.426 289.138C40.704 289.126 40.984 289.114 41.262 289.101C41.399 289.095 41.535 289.089 41.672 289.083C41.783 289.078 41.908 289.081 42.015 289.056C42.158 289.023 42.267 288.939 42.382 288.858C42.586 288.716 42.587 288.368 42.382 288.224Z" fill="#D7E5FF"/>
<path d="M73.393 356.798C73.325 356.8 73.256 356.802 73.188 356.804C73.051 356.808 72.915 356.812 72.778 356.816C72.667 356.819 72.549 356.852 72.464 356.926C72.392 356.987 72.327 357.092 72.333 357.19C72.346 357.426 72.56 357.558 72.778 357.564C72.915 357.568 73.051 357.573 73.188 357.577C73.256 357.579 73.325 357.581 73.393 357.583C73.463 357.585 73.533 357.576 73.599 357.553C73.703 357.516 73.809 357.479 73.871 357.379C73.907 357.321 73.933 357.26 73.933 357.191C73.933 356.924 73.624 356.791 73.393 356.798Z" fill="#D7E5FF"/>
<path d="M128.967 246.483C128.887 246.45 128.807 246.411 128.721 246.399C128.638 246.386 128.555 246.373 128.472 246.364C128.321 246.347 128.164 246.349 128.012 246.344C127.905 246.34 127.777 246.385 127.695 246.454C127.623 246.516 127.558 246.622 127.563 246.721C127.575 246.948 127.792 247.106 128.012 247.098C128.164 247.093 128.321 247.096 128.472 247.078C128.553 247.069 128.633 247.056 128.714 247.044C128.802 247.031 128.884 246.992 128.967 246.959C129.059 246.921 129.129 246.821 129.129 246.721C129.129 246.622 129.059 246.521 128.967 246.483Z" fill="#D7E5FF"/>
<path d="M330.363 261.419C330.33 261.398 330.297 261.376 330.262 261.354C330.183 261.316 330.1 261.297 330.012 261.297C329.749 261.271 329.486 261.245 329.223 261.218C329.143 261.215 329.068 261.229 328.995 261.26C328.925 261.279 328.861 261.313 328.806 261.363C328.71 261.444 328.626 261.583 328.633 261.713C328.64 261.848 328.696 261.979 328.806 262.064C328.845 262.09 328.885 262.116 328.925 262.142C329.019 262.187 329.118 262.21 329.223 262.209C329.486 262.183 329.749 262.157 330.012 262.13C330.079 262.132 330.143 262.121 330.202 262.094C330.263 262.078 330.315 262.049 330.362 262.008C330.442 261.94 330.513 261.823 330.508 261.713C330.503 261.6 330.455 261.49 330.363 261.419Z" fill="#D7E5FF"/>
<path d="M302.831 287.721C302.787 287.606 302.707 287.537 302.604 287.474C302.356 287.321 302.108 287.168 301.859 287.015C301.611 286.862 301.334 286.746 301.073 286.617C300.94 286.551 300.768 286.534 300.625 286.568C300.499 286.597 300.348 286.679 300.277 286.793C300.12 287.046 300.228 287.331 300.485 287.462C300.746 287.594 301.005 287.748 301.275 287.856C301.552 287.967 301.83 288.078 302.107 288.189C302.23 288.238 302.355 288.261 302.486 288.231C302.592 288.206 302.721 288.137 302.781 288.041C302.839 287.946 302.872 287.829 302.831 287.721Z" fill="#D7E5FF"/>
<path d="M72.659 311.976C72.628 311.896 72.577 311.83 72.508 311.778C72.439 311.716 72.36 311.674 72.272 311.65C72.182 311.611 72.088 311.593 71.989 311.597C71.806 311.604 71.608 311.65 71.469 311.778C71.349 311.889 71.244 312.041 71.254 312.214C71.26 312.33 71.267 312.445 71.273 312.561L71.283 312.734C71.285 312.76 71.286 312.787 71.288 312.813C71.291 312.876 71.293 312.944 71.314 313.001C71.337 313.048 71.361 313.094 71.384 313.141C71.423 313.184 71.462 313.227 71.502 313.269C71.566 313.327 71.641 313.366 71.723 313.389C71.807 313.426 71.896 313.442 71.989 313.438C72.05 313.431 72.111 313.424 72.172 313.417C72.285 313.392 72.386 313.342 72.476 313.269C72.552 313.187 72.633 313.115 72.664 313.001C72.679 312.945 72.686 312.878 72.69 312.821L72.694 312.734C72.698 312.676 72.701 312.619 72.704 312.561C72.711 312.445 72.717 312.33 72.724 312.214C72.726 312.127 72.704 312.047 72.659 311.976Z" fill="#D7E5FF"/>
<path d="M1.351 258.2C1.311 258.174 1.27001 258.147 1.23001 258.121C1.13301 258.075 1.03201 258.052 0.925009 258.052C0.861009 258.047 0.800006 258.044 0.736006 258.048C0.675006 258.052 0.615007 258.055 0.554007 258.059C0.431007 258.066 0.307004 258.073 0.184004 258.08C0.038004 258.088 -0.105996 258.124 -0.218996 258.221C-0.310996 258.299 -0.392996 258.434 -0.385996 258.56C-0.378996 258.69 -0.323996 258.816 -0.218996 258.898C-0.180996 258.923 -0.14299 258.948 -0.10399 258.973C-0.0129904 259.017 0.0830039 259.038 0.184004 259.038C0.307004 259.045 0.431007 259.052 0.554007 259.059C0.615007 259.062 0.675006 259.065 0.736006 259.069C0.800006 259.073 0.861009 259.071 0.925009 259.065C1.00601 259.068 1.084 259.053 1.157 259.022C1.229 259.002 1.294 258.968 1.35 258.917C1.448 258.834 1.53401 258.692 1.52701 258.56C1.52001 258.42 1.462 258.286 1.351 258.2Z" fill="#D7E5FF"/>
<path d="M15.581 317.35C15.501 317.317 15.421 317.278 15.335 317.266C15.252 317.253 15.169 317.24 15.086 317.231C14.934 317.214 14.778 317.216 14.626 317.211C14.519 317.208 14.391 317.252 14.309 317.322C14.237 317.384 14.172 317.489 14.177 317.589C14.189 317.816 14.406 317.974 14.626 317.966C14.778 317.961 14.934 317.964 15.086 317.946C15.167 317.937 15.247 317.924 15.328 317.912C15.416 317.899 15.498 317.86 15.581 317.827C15.673 317.789 15.743 317.689 15.743 317.589C15.743 317.488 15.673 317.387 15.581 317.35Z" fill="#D7E5FF"/>
<path d="M216.978 332.285C216.945 332.263 216.911 332.242 216.877 332.22C216.798 332.182 216.715 332.163 216.627 332.163C216.363 332.137 216.101 332.111 215.838 332.084C215.758 332.081 215.683 332.095 215.61 332.126C215.54 332.145 215.476 332.179 215.421 332.229C215.325 332.31 215.241 332.449 215.248 332.579C215.255 332.714 215.311 332.845 215.421 332.93C215.46 332.956 215.5 332.982 215.54 333.008C215.634 333.053 215.733 333.076 215.838 333.075C216.101 333.049 216.363 333.023 216.627 332.996C216.693 332.998 216.758 332.987 216.818 332.96C216.877 332.944 216.93 332.916 216.977 332.874C217.057 332.806 217.128 332.688 217.123 332.579C217.117 332.466 217.069 332.356 216.978 332.285Z" fill="#D7E5FF"/>
<path d="M189.445 358.587C189.401 358.472 189.321 358.403 189.218 358.339C188.97 358.186 188.722 358.033 188.474 357.88C188.226 357.727 187.948 357.612 187.687 357.482C187.554 357.416 187.382 357.399 187.239 357.433C187.113 357.462 186.961 357.544 186.89 357.658C186.734 357.911 186.841 358.196 187.099 358.327C187.36 358.459 187.619 358.612 187.889 358.721C188.166 358.832 188.444 358.943 188.721 359.054C188.844 359.103 188.968 359.126 189.101 359.096C189.206 359.071 189.335 359.002 189.395 358.906C189.453 358.812 189.486 358.695 189.445 358.587Z" fill="#D7E5FF"/>
<path d="M240.92 375.758C240.891 375.685 240.844 375.623 240.779 375.574C240.715 375.517 240.642 375.478 240.56 375.456C240.477 375.42 240.39 375.403 240.298 375.407C240.129 375.413 239.945 375.456 239.818 375.574C239.709 375.675 239.605 375.82 239.619 375.978C239.631 376.109 239.642 376.241 239.654 376.373C239.663 376.476 239.66 376.592 239.706 376.684C239.713 376.698 239.721 376.712 239.727 376.726C239.731 376.736 239.736 376.745 239.741 376.754C239.761 376.793 239.78 376.832 239.8 376.87C239.821 376.897 239.846 376.921 239.869 376.946C239.916 377.011 239.975 377.061 240.047 377.096C240.127 377.134 240.211 377.153 240.299 377.153C240.387 377.153 240.471 377.134 240.55 377.096C240.622 377.061 240.682 377.011 240.729 376.946C240.75 376.923 240.773 376.9 240.793 376.875C240.83 376.831 240.859 376.748 240.888 376.69C240.922 376.621 240.928 376.543 240.936 376.467C240.938 376.435 240.941 376.404 240.944 376.372C240.956 376.24 240.967 376.109 240.979 375.977C240.981 375.898 240.962 375.825 240.92 375.758Z" fill="#D7E5FF"/>
<path d="M48.803 370.239C48.781 370.179 48.734 370.137 48.695 370.09C48.691 370.075 48.688 370.06 48.685 370.045C48.666 369.899 48.649 369.753 48.63 369.607C48.632 369.556 48.619 369.509 48.593 369.467C48.574 369.42 48.544 369.381 48.503 369.35C48.424 369.283 48.3 369.239 48.196 369.243C48.089 369.247 47.971 369.274 47.889 369.35C47.867 369.374 47.844 369.399 47.822 369.424C47.783 369.479 47.763 369.54 47.762 369.608C47.744 369.754 47.726 369.9 47.708 370.046C47.707 370.048 47.707 370.05 47.706 370.052C47.654 370.107 47.611 370.171 47.589 370.24C47.559 370.334 47.559 370.428 47.589 370.521C47.61 370.592 47.648 370.652 47.701 370.701C47.748 370.761 47.806 370.806 47.878 370.837C47.979 370.885 48.084 370.909 48.195 370.909C48.358 370.909 48.512 370.854 48.639 370.754C48.788 370.639 48.871 370.418 48.803 370.239Z" fill="#D7E5FF"/>
<path d="M129.356 365.5C129.32 365.395 129.258 365.306 129.171 365.234C128.987 365.064 128.752 364.999 128.507 365.005C128.439 365.007 128.37 365.009 128.302 365.011C128.165 365.015 128.029 365.019 127.892 365.023C127.702 365.028 127.503 365.085 127.356 365.21C127.284 365.265 127.232 365.333 127.199 365.415C127.152 365.489 127.131 365.57 127.134 365.66C127.144 365.833 127.216 366.001 127.357 366.11C127.513 366.232 127.694 366.291 127.893 366.297C128.03 366.301 128.166 366.305 128.303 366.309C128.371 366.311 128.44 366.313 128.508 366.315C128.751 366.322 128.99 366.255 129.172 366.086C129.24 366.034 129.29 365.97 129.32 365.892C129.364 365.822 129.384 365.745 129.382 365.66C129.373 365.607 129.365 365.554 129.356 365.5Z" fill="#D7E5FF"/>
<path d="M185.659 345.696C185.58 345.663 185.5 345.624 185.414 345.612C185.331 345.6 185.248 345.587 185.164 345.577C185.013 345.56 184.857 345.562 184.705 345.557C184.597 345.554 184.469 345.598 184.387 345.667C184.315 345.729 184.25 345.835 184.256 345.934C184.268 346.161 184.485 346.318 184.705 346.311C184.857 346.306 185.013 346.309 185.164 346.291C185.246 346.282 185.326 346.269 185.406 346.257C185.495 346.244 185.577 346.205 185.659 346.171C185.752 346.133 185.822 346.033 185.822 345.933C185.822 345.834 185.752 345.734 185.659 345.696Z" fill="#D7E5FF"/>
<path d="M58.044 357.412C58.003 357.386 57.963 357.359 57.922 357.333C57.826 357.287 57.725 357.264 57.618 357.264C57.554 357.259 57.493 357.256 57.429 357.26C57.368 357.263 57.308 357.267 57.247 357.27C57.123 357.277 57 357.284 56.876 357.291C56.73 357.299 56.587 357.334 56.473 357.431C56.381 357.509 56.299 357.644 56.306 357.77C56.313 357.9 56.368 358.027 56.473 358.109C56.512 358.134 56.55 358.159 56.588 358.184C56.679 358.228 56.776 358.249 56.876 358.249C57 358.256 57.123 358.263 57.247 358.27C57.308 358.273 57.368 358.277 57.429 358.28C57.493 358.283 57.554 358.281 57.618 358.276C57.699 358.279 57.776 358.265 57.849 358.233C57.921 358.213 57.986 358.179 58.043 358.129C58.14 358.046 58.227 357.904 58.219 357.771C58.213 357.632 58.155 357.499 58.044 357.412Z" fill="#D7E5FF"/>
<path d="M84.731 59.1604C84.663 59.1624 84.594 59.1644 84.526 59.1664C84.389 59.1704 84.253 59.1744 84.116 59.1794C84.004 59.1824 83.887 59.2154 83.801 59.2884C83.73 59.3494 83.665 59.4554 83.671 59.5534C83.683 59.7894 83.898 59.9214 84.116 59.9274C84.253 59.9314 84.389 59.9354 84.526 59.9404C84.594 59.9424 84.663 59.9444 84.731 59.9464C84.801 59.9484 84.871 59.9384 84.937 59.9164C85.041 59.8794 85.147 59.8424 85.209 59.7424C85.245 59.6844 85.271 59.6234 85.271 59.5544C85.271 59.2874 84.962 59.1534 84.731 59.1604Z" fill="#D7E5FF"/>
<path d="M335.218 120.923C335.155 120.876 335.091 120.848 335.02 120.817C334.98 120.8 334.94 120.785 334.899 120.773C334.852 120.759 334.802 120.756 334.753 120.755C334.72 120.754 334.687 120.753 334.652 120.752C334.518 120.748 334.384 120.744 334.251 120.739C334.147 120.736 334.025 120.778 333.946 120.845C333.878 120.904 333.815 121.006 333.821 121.1C333.832 121.317 334.04 121.467 334.251 121.461C334.385 121.457 334.519 121.453 334.652 121.448C334.683 121.447 334.715 121.446 334.745 121.445C334.795 121.444 334.845 121.441 334.892 121.429C334.936 121.419 334.978 121.4 335.02 121.382C335.091 121.352 335.155 121.323 335.218 121.276C335.331 121.193 335.332 121.006 335.218 120.923Z" fill="#D7E5FF"/>
<path d="M324.343 300.712C324.252 300.635 324.111 300.586 323.992 300.59C323.868 300.594 323.734 300.626 323.64 300.712C323.561 300.785 323.484 300.893 323.495 301.007C323.52 301.27 323.547 301.533 323.573 301.796C323.583 301.896 323.617 301.978 323.695 302.045C323.771 302.109 323.891 302.151 323.991 302.148C324.095 302.144 324.208 302.118 324.286 302.045L324.351 301.974C324.388 301.921 324.408 301.862 324.409 301.797C324.434 301.534 324.461 301.271 324.487 301.008C324.498 300.9 324.419 300.777 324.343 300.712Z" fill="#D7E5FF"/>
<path d="M222.575 303.075C222.527 303.009 222.468 302.95 222.414 302.888C222.333 302.795 222.244 302.711 222.156 302.625C222.033 302.506 221.911 302.387 221.789 302.269C221.738 302.225 221.682 302.194 221.618 302.177C221.553 302.149 221.485 302.136 221.413 302.138C221.289 302.138 221.132 302.182 221.037 302.269C220.95 302.35 220.875 302.459 220.882 302.584C220.889 302.624 220.895 302.663 220.901 302.703C220.928 302.782 220.974 302.847 221.038 302.9L221.481 303.356C221.554 303.432 221.633 303.501 221.713 303.57C221.723 303.579 221.733 303.588 221.742 303.596C221.8 303.642 221.855 303.672 221.924 303.696C221.987 303.724 222.054 303.737 222.125 303.734C222.171 303.729 222.217 303.724 222.264 303.718C222.269 303.717 222.275 303.715 222.281 303.713C222.286 303.711 222.292 303.709 222.298 303.707C222.333 303.695 222.368 303.682 222.402 303.67C222.452 303.649 222.493 303.617 222.526 303.575C222.544 303.555 222.56 303.538 222.576 303.517C222.672 303.39 222.667 303.203 222.575 303.075Z" fill="#D7E5FF"/>
<path d="M124.144 192.026C124.143 191.979 124.129 191.936 124.102 191.897C124.092 191.874 124.081 191.852 124.069 191.83C124.057 191.81 124.046 191.791 124.033 191.773C123.994 191.717 123.94 191.669 123.893 191.62C123.876 191.603 123.86 191.586 123.843 191.569C123.776 191.5 123.708 191.43 123.641 191.361C123.506 191.222 123.371 191.083 123.236 190.944C123.175 190.89 123.106 190.853 123.029 190.832C122.951 190.797 122.868 190.782 122.781 190.785C122.694 190.782 122.611 190.797 122.532 190.832C122.455 190.853 122.386 190.89 122.325 190.944C122.22 191.042 122.128 191.175 122.137 191.327C122.145 191.375 122.152 191.423 122.159 191.471C122.192 191.566 122.248 191.646 122.325 191.71C122.463 191.843 122.599 191.977 122.737 192.11C122.804 192.176 122.873 192.241 122.94 192.307C122.973 192.34 123.005 192.377 123.043 192.405C123.063 192.42 123.083 192.432 123.104 192.446C123.149 192.475 123.194 192.509 123.242 192.534C123.313 192.572 123.388 192.592 123.468 192.595C123.498 192.603 123.53 192.606 123.561 192.604C123.613 192.598 123.665 192.592 123.718 192.586C123.793 192.571 123.861 192.542 123.92 192.497C123.963 192.476 123.998 192.446 124.026 192.407C124.077 192.361 124.112 192.304 124.132 192.238C124.154 192.149 124.156 192.106 124.144 192.026Z" fill="#D7E5FF"/>
<path d="M83.998 14.338C83.967 14.258 83.916 14.192 83.846 14.139C83.777 14.078 83.698 14.035 83.61 14.012C83.521 13.973 83.426 13.955 83.328 13.959C83.145 13.966 82.946 14.012 82.808 14.14C82.688 14.251 82.583 14.404 82.593 14.577C82.599 14.693 82.606 14.808 82.612 14.924L82.622 15.097C82.623 15.123 82.625 15.15 82.626 15.176C82.63 15.239 82.632 15.307 82.653 15.364C82.676 15.41 82.7 15.457 82.723 15.504C82.762 15.547 82.801 15.589 82.84 15.632C82.905 15.69 82.98 15.729 83.062 15.751C83.146 15.788 83.234 15.804 83.328 15.801C83.389 15.794 83.449 15.787 83.511 15.78C83.624 15.754 83.725 15.705 83.815 15.632C83.891 15.55 83.972 15.478 84.003 15.364C84.019 15.308 84.026 15.241 84.029 15.184L84.034 15.097C84.037 15.039 84.041 14.981 84.044 14.924C84.051 14.808 84.057 14.693 84.064 14.577C84.064 14.489 84.043 14.41 83.998 14.338Z" fill="#D7E5FF"/>
<path d="M59.739 240.803C90.509 240.803 115.453 215.859 115.453 185.089C115.453 154.319 90.509 129.375 59.739 129.375C28.969 129.375 4.02499 154.319 4.02499 185.089C4.02499 215.859 28.969 240.803 59.739 240.803Z" fill="#5373E2"/>
<path d="M59.739 222.902C80.6226 222.902 97.552 205.973 97.552 185.089C97.552 164.206 80.6226 147.276 59.739 147.276C38.8555 147.276 21.926 164.206 21.926 185.089C21.926 205.973 38.8555 222.902 59.739 222.902Z" stroke="#FFFFFD" stroke-miterlimit="10"/>
<path d="M59.739 234.469C87.0108 234.469 109.119 212.361 109.119 185.089C109.119 157.818 87.0108 135.709 59.739 135.709C32.4672 135.709 10.359 157.818 10.359 185.089C10.359 212.361 32.4672 234.469 59.739 234.469Z" stroke="#FFFFFD" stroke-miterlimit="10"/>
<path d="M59.739 212.646C74.9583 212.646 87.296 200.309 87.296 185.089C87.296 169.87 74.9583 157.532 59.739 157.532C44.5197 157.532 32.182 169.87 32.182 185.089C32.182 200.309 44.5197 212.646 59.739 212.646Z" stroke="#FFFFFD" stroke-miterlimit="10"/>
<path d="M212.205 30.7153C140.648 32.5303 83.199 91.1063 83.199 163.099C83.199 235.092 140.648 293.668 212.205 295.483V30.7153Z" fill="#FEE066"/>
<path d="M138.561 233.631C153.479 233.631 165.572 221.538 165.572 206.62C165.572 191.703 153.479 179.609 138.561 179.609C123.643 179.609 111.55 191.703 111.55 206.62C111.55 221.538 123.643 233.631 138.561 233.631Z" fill="#FFC2D1"/>
<path d="M190.437 157.602C190.437 157.602 145.272 108.344 96.013 157.602C96.013 157.602 143.225 198.047 190.437 157.602Z" fill="#FFFFFD"/>
<path d="M141.013 177.424C151.96 177.424 160.835 168.55 160.835 157.602C160.835 146.655 151.96 137.78 141.013 137.78C130.066 137.78 121.191 146.655 121.191 157.602C121.191 168.55 130.066 177.424 141.013 177.424Z" fill="#49BDCC"/>
<path d="M141.013 168.47C147.015 168.47 151.881 163.605 151.881 157.602C151.881 151.6 147.015 146.734 141.013 146.734C135.011 146.734 130.145 151.6 130.145 157.602C130.145 163.605 135.011 168.47 141.013 168.47Z" fill="black"/>
<path d="M147.082 166.954C145.43 168.375 143.285 169.24 140.935 169.24C138.585 169.24 136.439 168.375 134.787 166.954H125.289C128.007 172.887 133.982 177.017 140.935 177.017C147.887 177.017 153.863 172.887 156.581 166.954H147.082Z" fill="#279DA0"/>
<path d="M126.277 164.506C130.09 164.506 133.181 161.415 133.181 157.602C133.181 153.789 130.09 150.698 126.277 150.698C122.464 150.698 119.373 153.789 119.373 157.602C119.373 161.415 122.464 164.506 126.277 164.506Z" fill="#FFFFFD"/>
<path d="M96.013 157.602H190.437C190.437 157.602 145.271 108.343 96.013 157.602Z" fill="black"/>
<path d="M148.138 216.716L139.695 181.038L129.19 216.435C128.005 220.428 128.586 224.81 131.036 228.18C132.64 230.388 135.054 232.205 138.649 232.205L138.656 231.913C142.17 231.816 144.568 229.853 146.171 227.599C148.397 224.462 149.023 220.459 148.138 216.716Z" fill="#49BDCC"/>
<path d="M208.774 270.271C208.42 270.271 208.073 270.296 207.725 270.322V270.221C208.073 270.246 208.421 270.271 208.774 270.271C216.136 270.271 222.105 264.555 222.105 257.504C222.105 250.452 216.136 244.736 208.774 244.736C208.42 244.736 208.073 244.76 207.725 244.786V244.761C207.301 244.749 206.877 244.736 206.449 244.736C187.919 244.736 172.897 256.174 172.897 270.283C172.897 284.392 187.918 295.83 206.449 295.83C206.877 295.83 207.302 295.817 207.725 295.805V295.755C208.073 295.781 208.42 295.805 208.774 295.805C216.136 295.805 222.105 290.089 222.105 283.037C222.105 275.987 216.137 270.271 208.774 270.271Z" fill="#49BDCC"/>
<path d="M245.92 241.282L212.205 152.623L201.623 213.58C195.769 213.267 190.132 216.713 187.934 222.485C185.207 229.639 188.797 237.648 195.952 240.374C197.578 240.994 199.246 241.271 200.888 241.271V241.283H245.92V241.282Z" fill="#FF4B61"/>
<path d="M204.222 232.77C206.664 232.77 208.643 231.721 208.643 230.427C208.643 229.133 206.664 228.084 204.222 228.084C201.78 228.084 199.801 229.133 199.801 230.427C199.801 231.721 201.78 232.77 204.222 232.77Z" fill="#5373E2"/>
<path d="M77.197 141.282C83.544 141.282 89.439 143.208 94.334 146.506V197.465C89.439 200.763 83.544 202.689 77.197 202.689C60.24 202.689 46.494 188.942 46.494 171.985C46.494 155.028 60.24 141.282 77.197 141.282Z" fill="#FEE066"/>
<path d="M89.142 202.669C89.14 202.669 89.142 202.669 82.597 150.698L81.523 204.844L89.142 202.669Z" fill="#5373E2"/>
<path d="M74.927 179.647L60.9 257.26H105.497L74.927 179.647Z" fill="#FF4B61"/>
<path d="M240.914 84.071C221.602 105.182 211.665 127.527 218.718 133.979C225.772 140.432 247.145 128.548 266.457 107.437C285.769 86.3255 295.706 63.9808 288.652 57.5285C281.599 51.0762 260.225 62.9597 240.914 84.071Z" fill="#FFFFFD"/>
<path d="M253.896 110.66C261.198 110.66 267.118 104.741 267.118 97.4383C267.118 90.136 261.198 84.2163 253.896 84.2163C246.594 84.2163 240.674 90.136 240.674 97.4383C240.674 104.741 246.594 110.66 253.896 110.66Z" fill="#49BDCC"/>
<path d="M253.896 103.182C257.068 103.182 259.64 100.611 259.64 97.4383C259.64 94.266 257.068 91.6943 253.896 91.6943C250.724 91.6943 248.152 94.266 248.152 97.4383C248.152 100.611 250.724 103.182 253.896 103.182Z" fill="black"/>
<path d="M240.935 84.0611C221.623 105.171 211.687 127.514 218.74 133.966L288.671 57.5211C281.617 51.0681 260.245 62.9511 240.935 84.0611Z" fill="#5373E2"/>
<path d="M288.67 57.5215L218.739 133.966" stroke="#FA6784" stroke-miterlimit="10"/>
<path d="M261.047 121.058C235.3 133.535 217.808 150.623 221.977 159.224C226.145 167.826 250.396 164.684 276.142 152.208C301.888 139.731 319.38 122.643 315.212 114.042C311.043 105.44 286.793 108.582 261.047 121.058Z" fill="#FFFFFD"/>
<path d="M268.146 151.507C275.448 151.507 281.368 145.587 281.368 138.285C281.368 130.982 275.448 125.062 268.146 125.062C260.844 125.062 254.924 130.982 254.924 138.285C254.924 145.587 260.844 151.507 268.146 151.507Z" fill="#49BDCC"/>
<path d="M268.146 144.029C271.318 144.029 273.89 141.457 273.89 138.285C273.89 135.112 271.318 132.541 268.146 132.541C264.974 132.541 262.402 135.112 262.402 138.285C262.402 141.457 264.974 144.029 268.146 144.029Z" fill="black"/>
<path d="M261.047 121.064C235.301 133.541 217.809 150.629 221.978 159.231L315.211 114.047C311.043 105.445 286.792 108.587 261.047 121.064Z" fill="#5373E2"/>
<path d="M315.211 114.047L221.978 159.231" stroke="#FA6784" stroke-miterlimit="10"/>
<path d="M280.266 167.695C251.816 164.668 227.933 169.92 226.922 179.425C225.91 188.93 248.154 199.09 276.603 202.117C305.053 205.144 328.936 199.892 329.947 190.387C330.959 180.881 308.716 170.722 280.266 167.695Z" fill="#FFFFFD"/>
<path d="M277.179 199.301C284.481 199.301 290.401 193.382 290.401 186.079C290.401 178.777 284.481 172.857 277.179 172.857C269.877 172.857 263.957 178.777 263.957 186.079C263.957 193.382 269.877 199.301 277.179 199.301Z" fill="#49BDCC"/>
<path d="M277.178 191.822C280.35 191.822 282.922 189.251 282.922 186.078C282.922 182.906 280.35 180.334 277.178 180.334C274.006 180.334 271.434 182.906 271.434 186.078C271.434 189.251 274.006 191.822 277.178 191.822Z" fill="black"/>
<path d="M280.26 167.709C251.811 164.683 227.929 169.936 226.917 179.441L329.941 190.399C330.953 180.894 308.71 170.735 280.26 167.709Z" fill="#5373E2"/>
<path d="M329.941 190.399L226.917 179.441" stroke="#FA6784" stroke-miterlimit="10"/>
<path d="M272.4 298.192H105.182V376.547H272.4V298.192Z" fill="#FF4B61"/>
<path d="M114.979 267.261L40.401 379.394H208.643L114.979 267.261Z" fill="#FEE066"/>
<path d="M114.979 267.261L81.362 317.807L208.643 379.394L114.979 267.261Z" fill="#5373E2"/>
<path d="M305.188 309.72H173.722V366.714H305.188V309.72Z" fill="#49BDCC"/>
<path d="M190.437 157.603H96.013" stroke="#FA6784" stroke-miterlimit="10"/>
<path d="M83.199 143.732C104.249 143.732 121.314 126.668 121.314 105.617C121.314 84.5671 104.249 67.5024 83.199 67.5024C62.1487 67.5024 45.084 84.5671 45.084 105.617C45.084 126.668 62.1487 143.732 83.199 143.732Z" fill="#5373E2"/>
<path d="M83.199 127.092C95.5768 127.092 105.611 117.057 105.611 104.68C105.611 92.3018 95.5768 82.2676 83.199 82.2676C70.8212 82.2676 60.787 92.3018 60.787 104.68C60.787 117.057 70.8212 127.092 83.199 127.092Z" stroke="#FFFFFD" stroke-miterlimit="10"/>
<path d="M83.199 133.948C99.3632 133.948 112.467 120.844 112.467 104.68C112.467 88.5154 99.3632 75.4116 83.199 75.4116C67.0347 75.4116 53.931 88.5154 53.931 104.68C53.931 120.844 67.0347 133.948 83.199 133.948Z" stroke="#FFFFFD" stroke-miterlimit="10"/>
<path d="M83.199 121.013C92.2194 121.013 99.532 113.7 99.532 104.68C99.532 95.6592 92.2194 88.3467 83.199 88.3467C74.1785 88.3467 66.866 95.6592 66.866 104.68C66.866 113.7 74.1785 121.013 83.199 121.013Z" stroke="#FFFFFD" stroke-miterlimit="10"/>
<path d="M160.835 133.485C197.528 133.485 227.274 103.74 227.274 67.0464C227.274 30.3532 197.528 0.607422 160.835 0.607422C124.142 0.607422 94.396 30.3532 94.396 67.0464C94.396 103.74 124.142 133.485 160.835 133.485Z" fill="#5373E2"/>
<path d="M160.835 110.727C184.959 110.727 204.516 91.1706 204.516 67.0462C204.516 42.9219 184.959 23.3652 160.835 23.3652C136.711 23.3652 117.154 42.9219 117.154 67.0462C117.154 91.1706 136.711 110.727 160.835 110.727Z" stroke="#FFFFFD" stroke-miterlimit="10"/>
<path d="M160.835 124.09C192.34 124.09 217.879 98.551 217.879 67.0464C217.879 35.5419 192.34 10.0024 160.835 10.0024C129.33 10.0024 103.791 35.5419 103.791 67.0464C103.791 98.551 129.33 124.09 160.835 124.09Z" stroke="#FFFFFD" stroke-miterlimit="10"/>
<path d="M160.835 98.8794C178.416 98.8794 192.668 84.6273 192.668 67.0464C192.668 49.4655 178.416 35.2134 160.835 35.2134C143.254 35.2134 129.002 49.4655 129.002 67.0464C129.002 84.6273 143.254 98.8794 160.835 98.8794Z" stroke="#FFFFFD" stroke-miterlimit="10"/>
<path d="M110.793 181.119C111.718 181.119 112.467 180.37 112.467 179.445C112.467 178.521 111.718 177.771 110.793 177.771C109.868 177.771 109.119 178.521 109.119 179.445C109.119 180.37 109.868 181.119 110.793 181.119Z" fill="#5373E2"/>
<path d="M245.416 241.226H142.046V317.398H245.416V241.226Z" stroke="#FFFFFD" stroke-miterlimit="10"/>
<path d="M141.643 244.639C143.346 244.639 144.726 243.258 144.726 241.556C144.726 239.853 143.346 238.473 141.643 238.473C139.94 238.473 138.56 239.853 138.56 241.556C138.56 243.258 139.94 244.639 141.643 244.639Z" fill="#FFFFFD"/>
<path d="M141.643 320.479C143.346 320.479 144.726 319.099 144.726 317.396C144.726 315.694 143.346 314.313 141.643 314.313C139.94 314.313 138.56 315.694 138.56 317.396C138.56 319.099 139.94 320.479 141.643 320.479Z" fill="#FFFFFD"/>
<path d="M245.43 244.639C247.133 244.639 248.513 243.258 248.513 241.556C248.513 239.853 247.133 238.473 245.43 238.473C243.727 238.473 242.347 239.853 242.347 241.556C242.347 243.258 243.727 244.639 245.43 244.639Z" fill="#FFFFFD"/>
<path d="M245.43 320.479C247.133 320.479 248.513 319.099 248.513 317.396C248.513 315.694 247.133 314.313 245.43 314.313C243.727 314.313 242.347 315.694 242.347 317.396C242.347 319.099 243.727 320.479 245.43 320.479Z" fill="#FFFFFD"/>
<path d="M300.497 210.942H293.661V366.713H300.497V210.942Z" fill="#FFFFFD"/>
<path d="M290.497 210.942H283.661V366.713H290.497V210.942Z" fill="#FFFFFD"/>
<path d="M280.497 210.942H273.661V366.713H280.497V210.942Z" fill="#FFFFFD"/>
<path d="M270.497 210.942H263.661V366.713H270.497V210.942Z" fill="#FFFFFD"/>
</g>
<defs>
<clipPath id="clip0_8_967">
<rect width="338" height="386" fill="white"/>
</clipPath>
</defs>
</svg>
