<svg width="453" height="469" viewBox="0 0 453 469" fill="none" xmlns="http://www.w3.org/2000/svg">
<path d="M140.652 346.263H323.746C324.446 346.263 325.034 346.85 325.034 347.551V439.712C325.034 440.412 324.446 441 323.746 441H140.652C139.952 441 139.364 440.412 139.364 439.712V347.551C139.364 346.85 139.952 346.263 140.652 346.263Z" stroke="white" stroke-width="22"/>
<path d="M37.125 195.118H425.43C429.685 195.118 433.169 198.805 433.169 202.55V347.55C433.169 351.296 429.685 354.983 425.43 354.983H379.35C375.094 354.983 371.61 351.296 371.61 347.55V315.601C371.61 306.618 364.644 298.457 354.773 298.457H107.782C98.78 298.457 90.331 305.755 90.331 315.601V347.55C90.331 351.814 86.951 354.983 83.206 354.983H37.125C33.379 354.983 30 351.814 30 347.55V202.55C30 198.287 33.38 195.118 37.125 195.118ZM119.763 263.932C129.231 263.932 136.907 256.256 136.907 246.788V222.211C136.907 212.743 129.231 205.067 119.763 205.067H64.466C54.996 205.067 47.322 212.745 47.322 222.211V246.788C47.322 256.254 54.996 263.932 64.466 263.932H119.763ZM393.788 263.932C403.242 263.932 410.932 256.242 410.932 246.788V222.211C410.932 212.757 403.242 205.067 393.788 205.067H321.288C311.834 205.067 304.144 212.757 304.144 222.211V246.788C304.144 256.242 311.834 263.932 321.288 263.932H393.788Z" stroke="white" stroke-width="22"/>
<path d="M331.178 143.838V143.841C331.178 145.019 331.177 145.872 331.151 146.631C331.142 146.868 331.132 147.074 331.121 147.253C331.029 147.26 330.931 147.267 330.824 147.274C330.214 147.311 329.577 147.314 328.661 147.314H133.009H132.751C131.938 147.314 131.314 147.312 130.778 147.301C130.763 146.697 130.762 145.996 130.763 145.069V145.066V36.661C130.763 31.896 134.658 28 139.424 28H322.517C327.282 28 331.178 31.896 331.178 36.661V143.838Z" stroke="white" stroke-width="22"/>
<path d="M422 202H41V285H422V202Z" fill="#6A8BFF"/>
<path d="M406 219H376V249H406V219Z" fill="white"/>
</svg>
