<svg width="584" height="413" viewBox="0 0 584 413" fill="none" xmlns="http://www.w3.org/2000/svg">
<path d="M169.551 208.56H31V220.106H169.551V208.56Z" stroke="black" stroke-width="2.1123" stroke-miterlimit="10"/>
<path d="M157.855 138.984H42.6973V208.559H157.855V138.984Z" stroke="black" stroke-width="2.1123" stroke-miterlimit="10"/>
<path d="M149.925 146.912H50.6284V208.56H149.925V146.912Z" stroke="black" stroke-width="2.1123" stroke-miterlimit="10"/>
<path d="M106.83 129H93.7241V138.985H106.83V129Z" stroke="black" stroke-width="2.1123" stroke-miterlimit="10"/>
<path d="M106.83 220.106H93.7241V249.915H106.83V220.106Z" stroke="black" stroke-width="2.1123" stroke-miterlimit="10"/>
<path d="M70.7744 251.602H61.7256L78.2231 220.106H87.2719L70.7744 251.602Z" stroke="black" stroke-width="2.1123" stroke-miterlimit="10"/>
<path d="M129.779 251.602H138.828L122.331 220.106H113.28L129.779 251.602Z" stroke="black" stroke-width="2.1123" stroke-miterlimit="10"/>
<path d="M64.4665 162.694C66.2767 162.694 67.7441 161.227 67.7441 159.418C67.7441 157.608 66.2767 156.141 64.4665 156.141C62.6564 156.141 61.189 157.608 61.189 159.418C61.189 161.227 62.6564 162.694 64.4665 162.694Z" fill="#3E74F2" stroke="black" stroke-width="2.1123" stroke-miterlimit="10"/>
<path d="M136.087 162.694C137.897 162.694 139.365 161.227 139.365 159.418C139.365 157.608 137.897 156.141 136.087 156.141C134.277 156.141 132.81 157.608 132.81 159.418C132.81 161.227 134.277 162.694 136.087 162.694Z" fill="#3E74F2" stroke="black" stroke-width="2.1123" stroke-miterlimit="10"/>
<path d="M78.5635 174.446V190.765C78.5635 193.761 76.1328 196.192 73.1331 196.192C70.1349 196.192 67.707 193.761 67.707 190.765V172.354" stroke="black" stroke-width="2.1123" stroke-miterlimit="10"/>
<path d="M100.276 191.72V194.691C100.276 197.687 97.8457 200.118 94.8489 200.118C91.8507 200.118 89.4185 197.687 89.4185 194.691V164.845C89.4185 161.849 86.9892 159.419 83.991 159.419C80.9942 159.419 78.5635 161.849 78.5635 164.845V169.561" stroke="black" stroke-width="2.1123" stroke-miterlimit="10"/>
<path d="M132.846 187.993V198.667" stroke="black" stroke-width="2.1123" stroke-miterlimit="10"/>
<path d="M100.276 181.386V173.013C100.276 170.016 102.707 167.585 105.704 167.585C108.701 167.585 111.134 170.016 111.134 173.013V187.679C111.134 190.675 113.564 193.105 116.562 193.105C119.559 193.105 121.989 190.675 121.989 187.679V179.621C121.989 176.623 124.42 174.195 127.418 174.195C130.417 174.195 132.846 176.623 132.846 179.621" stroke="black" stroke-width="2.1123" stroke-miterlimit="10"/>
<path d="M100.276 196.192V186.973" stroke="black" stroke-width="2.1123" stroke-miterlimit="10"/>
<path d="M567.803 92.7263H493.117V168.789H567.803V92.7263Z" stroke="black" stroke-width="2.1123" stroke-miterlimit="10"/>
<path d="M575.105 87.4859C575.105 90.3795 572.759 92.7263 569.863 92.7263H491.06C488.165 92.7263 485.818 90.381 485.818 87.4859C485.818 84.5907 488.164 82.2454 491.06 82.2454H569.863C572.757 82.2454 575.105 84.5907 575.105 87.4859Z" stroke="black" stroke-width="2.1123" stroke-miterlimit="10"/>
<path d="M493.117 82.2454C493.117 61.5336 499.767 30.705 530.625 30.705C562.637 30.705 568.135 61.5336 568.135 82.2454" stroke="black" stroke-width="2.1123" stroke-miterlimit="10"/>
<path d="M493.117 92.7263V121.255C493.117 126.732 497.556 131.171 503.034 131.171C508.511 131.171 512.952 126.732 512.952 121.255V105.43C512.952 103.491 514.524 101.921 516.462 101.921H517.029C518.969 101.921 520.539 103.491 520.539 105.43V111.278C520.539 116.756 524.98 121.195 530.457 121.195C535.936 121.195 540.375 116.756 540.375 111.278V105.43C540.375 103.491 541.947 101.921 543.886 101.921H544.452C546.391 101.921 547.964 103.491 547.964 105.43V126.857C547.964 132.334 552.402 136.773 557.883 136.773C563.36 136.773 567.8 132.334 567.8 126.857V92.7263" fill="#FF4B61"/>
<path d="M493.117 92.7263V121.255C493.117 126.732 497.556 131.171 503.034 131.171C508.511 131.171 512.952 126.732 512.952 121.255V105.43C512.952 103.491 514.524 101.921 516.462 101.921H517.029C518.969 101.921 520.539 103.491 520.539 105.43V111.278C520.539 116.756 524.98 121.195 530.457 121.195C535.936 121.195 540.375 116.756 540.375 111.278V105.43C540.375 103.491 541.947 101.921 543.886 101.921H544.452C546.391 101.921 547.964 103.491 547.964 105.43V126.857C547.964 132.334 552.402 136.773 557.883 136.773C563.36 136.773 567.8 132.334 567.8 126.857V92.7263" stroke="black" stroke-width="2.1123" stroke-miterlimit="10"/>
<path d="M567.803 153.534C567.803 148.057 563.363 143.618 557.886 143.618C552.409 143.618 547.968 148.057 547.968 153.534C547.968 159.011 552.409 163.449 557.886 163.449C563.363 163.449 567.803 159.01 567.803 153.534Z" fill="#FF4B61" stroke="black" stroke-width="2.1123" stroke-miterlimit="10"/>
<path d="M389.659 27.2966V99.0123C389.659 102.888 386.517 106.032 382.637 106.032H381.056C377.179 106.032 374.035 102.89 374.035 99.0123V27.2966" stroke="black" stroke-width="2.1123" stroke-miterlimit="10"/>
<path d="M374.035 13.0798H319.577V98.8953H374.035V27.2952" stroke="black" stroke-width="2.1123" stroke-miterlimit="10"/>
<path d="M466.762 61.576C466.762 69.3314 460.538 74.743 452.856 73.6668L413.691 63.9579C409.852 63.4184 406.738 59.8492 406.738 55.9861C406.738 52.1245 409.852 48.5553 413.691 48.0187L452.856 38.3098C460.538 37.2321 466.762 42.6451 466.762 50.3976V61.576Z" stroke="black" stroke-width="2.1123" stroke-miterlimit="10"/>
<path d="M407.444 59.178H389.659" stroke="black" stroke-width="2.1123" stroke-miterlimit="10"/>
<path d="M389.659 52.7985H407.472" stroke="black" stroke-width="2.1123" stroke-miterlimit="10"/>
<path d="M452.285 62.3963C455.826 62.3963 458.696 59.527 458.696 55.9875C458.696 52.4481 455.826 49.5788 452.285 49.5788C448.745 49.5788 445.875 52.4481 445.875 55.9875C445.875 59.527 448.745 62.3963 452.285 62.3963Z" stroke="black" stroke-width="2.1123" stroke-miterlimit="10"/>
<path d="M319.349 55.9335V70.2555V84.5732V98.8953H336.529V91.5931C336.529 87.7169 339.672 84.5732 343.551 84.5732H352.721C356.598 84.5732 359.743 81.431 359.743 77.5533V77.274C359.743 73.3977 356.6 70.2555 352.721 70.2555H340.444C336.569 70.2555 333.423 67.1118 333.423 63.2356V62.9534C333.423 59.0771 336.567 55.9335 340.444 55.9335C340.444 55.9335 343.346 55.9335 346.929 55.9335C350.508 55.9335 353.411 52.7912 353.411 48.9135V48.6357C353.411 44.758 350.27 41.6158 346.39 41.6158H334.824C330.948 41.6158 327.802 38.4721 327.802 34.5958V34.3136C327.802 30.4374 330.947 27.2937 334.824 27.2937H374.039H394.341C398.216 27.2937 401.362 24.1515 401.362 20.2738V20.0983C401.362 16.225 398.218 13.0784 394.341 13.0784H319.352V27.2937V41.6158V55.9335H319.349Z" fill="#FEE066" stroke="black" stroke-width="2.1123" stroke-miterlimit="10"/>
<path d="M417.48 13.0798C413.602 13.0798 410.458 16.225 410.458 20.0998V20.2752C410.458 24.1515 413.601 27.2952 417.48 27.2952H426.232C430.109 27.2952 433.253 24.1529 433.253 20.2752V20.0998C433.253 16.2264 430.11 13.0798 426.232 13.0798H417.48Z" stroke="black" stroke-width="2.1123" stroke-miterlimit="10"/>
<path d="M425.939 44.9803C425.939 43.1247 425.939 34.9599 425.939 27.2937" stroke="black" stroke-width="2.1123" stroke-miterlimit="10"/>
<path d="M259.865 114.356C259.865 114.356 258.168 125.852 259.88 129.126C265.076 139.063 275.827 155.178 275.827 165.208C275.827 177.303 266.019 187.109 253.921 187.109C241.823 187.109 232.015 177.305 232.015 165.208C232.015 155.173 242.781 139.057 247.977 129.117C249.687 125.846 247.977 114.356 247.977 114.356" stroke="black" stroke-width="2.1123" stroke-miterlimit="10"/>
<path d="M254.375 178.229C259.202 178.229 263.115 174.317 263.115 169.491C263.115 164.665 259.202 160.753 254.375 160.753C249.548 160.753 245.635 164.665 245.635 169.491C245.635 174.317 249.548 178.229 254.375 178.229Z" stroke="black" stroke-width="2.1123" stroke-miterlimit="10"/>
<path d="M279.541 90.0067C279.541 104.153 268.072 115.618 253.922 115.618C239.772 115.618 228.301 104.153 228.301 90.0067C228.301 77.7902 235.48 73.4855 239.077 64.749C242.155 57.2728 239.223 49.1884 239.223 49.1884C239.223 49.1884 251.077 53.2357 259.027 57.2714C275.828 65.7973 279.541 75.8601 279.541 90.0067Z" stroke="black" stroke-width="2.1123" stroke-miterlimit="10"/>
<path d="M235.413 71.3712V85.1274C235.413 87.1189 237.029 88.7375 239.026 88.7375C241.022 88.7375 242.638 87.1203 242.638 85.1274V81.178C242.638 79.1485 244.282 77.508 246.311 77.508C248.339 77.508 249.983 79.1485 249.983 81.178V94.4956C249.983 96.4885 251.599 98.1072 253.595 98.1072C255.592 98.1072 257.208 96.49 257.208 94.4956V74.009C257.208 71.9795 258.853 70.336 260.882 70.336C262.91 70.336 264.554 71.9795 264.554 74.009V89.3385C264.554 91.3329 266.17 92.9515 268.167 92.9515C270.16 92.9515 271.778 91.3344 271.778 89.3385V86.0193C271.778 83.9898 273.423 82.3463 275.452 82.3463C277.48 82.3463 279.124 83.9898 279.124 86.0193V94.655" stroke="black" stroke-width="2.1123" stroke-miterlimit="10"/>
<path d="M367.832 248.015C367.351 235.492 364.67 214.39 332 203.451C364.67 191.387 380.772 146.853 380.772 126" stroke="black" stroke-width="2.1123" stroke-miterlimit="10"/>
<path d="M393.713 248.015C394.194 235.492 396.871 214.39 429.543 203.451C396.871 191.387 380.774 146.853 380.774 126" stroke="black" stroke-width="2.1123" stroke-miterlimit="10"/>
<path d="M381.587 239.719H379.951C373.389 239.719 367.572 245.016 366.958 251.551L364.668 276H396.869L394.581 251.551C393.971 245.018 388.154 239.719 381.587 239.719Z" fill="#3E74F2" stroke="black" stroke-width="2.1123" stroke-miterlimit="10"/>
<path d="M380.772 126V207.936" stroke="black" stroke-width="2.1123" stroke-miterlimit="10"/>
<path d="M380.77 212.003C383.017 212.003 384.838 210.182 384.838 207.936C384.838 205.69 383.017 203.87 380.77 203.87C378.524 203.87 376.703 205.69 376.703 207.936C376.703 210.182 378.524 212.003 380.77 212.003Z" fill="#231F20" stroke="black" stroke-width="2.1123" stroke-miterlimit="10"/>
<path d="M541.592 211.685C541.592 211.685 532.005 212.027 530.464 229.645C528.918 212.027 519.333 211.685 519.333 211.685C519.333 211.685 528.92 211.337 530.464 193.722C532.005 211.336 541.592 211.685 541.592 211.685Z" fill="black" stroke="black" stroke-width="4.1086" stroke-miterlimit="10" stroke-linecap="round" stroke-linejoin="round"/>
<path d="M210.472 30.7064C210.472 30.7064 204.382 30.9228 203.402 42.1158C202.419 30.9243 196.329 30.7064 196.329 30.7064C196.329 30.7064 202.419 30.4842 203.402 19.2941C204.382 30.4827 210.472 30.7064 210.472 30.7064Z" fill="black" stroke="black" stroke-width="2.6098" stroke-miterlimit="10" stroke-linecap="round" stroke-linejoin="round"/>
<path d="M480.903 198.337C480.903 198.337 474.813 198.553 473.833 209.746C472.851 198.555 466.761 198.337 466.761 198.337C466.761 198.337 472.851 198.115 473.833 186.924C474.813 198.115 480.903 198.337 480.903 198.337Z" fill="black" stroke="black" stroke-width="2.6098" stroke-miterlimit="10" stroke-linecap="round" stroke-linejoin="round"/>
<path d="M207.924 114.356C207.924 114.356 204.03 114.497 203.402 121.654C202.775 114.495 198.878 114.356 198.878 114.356C198.878 114.356 202.775 114.215 203.402 107.059C204.03 114.215 207.924 114.356 207.924 114.356Z" fill="black" stroke="black" stroke-width="1.6693" stroke-miterlimit="10" stroke-linecap="round" stroke-linejoin="round"/>
<path d="M292.044 13.2978C292.044 13.2978 288.15 13.4381 287.522 20.5955C286.895 13.4367 283 13.2978 283 13.2978C283 13.2978 286.895 13.1559 287.522 6C288.15 13.1559 292.044 13.2978 292.044 13.2978Z" fill="black" stroke="black" stroke-width="1.6693" stroke-miterlimit="10" stroke-linecap="round" stroke-linejoin="round"/>
<path d="M487.973 16.0773C487.973 16.0773 481.883 16.2937 480.903 27.4867C479.923 16.2952 473.833 16.0773 473.833 16.0773C473.833 16.0773 479.923 15.858 480.903 4.66791C481.883 15.8565 487.973 16.0773 487.973 16.0773Z" fill="black" stroke="black" stroke-width="2.6098" stroke-miterlimit="10" stroke-linecap="round" stroke-linejoin="round"/>
<path d="M239.088 227.528C239.088 227.528 232.998 227.744 232.018 238.937C231.037 227.746 224.947 227.528 224.947 227.528C224.947 227.528 231.037 227.307 232.018 216.117C232.998 227.307 239.088 227.528 239.088 227.528Z" fill="black" stroke="black" stroke-width="2.6098" stroke-miterlimit="10" stroke-linecap="round" stroke-linejoin="round"/>
<path d="M285.938 212.089C285.938 212.089 279.848 212.305 278.868 223.498C277.887 212.307 271.797 212.089 271.797 212.089C271.797 212.089 277.887 211.868 278.868 200.678C279.848 211.868 285.938 212.089 285.938 212.089Z" fill="black" stroke="black" stroke-width="2.6098" stroke-miterlimit="10" stroke-linecap="round" stroke-linejoin="round"/>
<path d="M66.1414 296.411C66.1414 296.411 60.0513 296.627 59.0714 307.82C58.0901 296.629 52 296.411 52 296.411C52 296.411 58.0901 296.19 59.0714 285C60.0513 296.19 66.1414 296.411 66.1414 296.411Z" fill="black" stroke="black" stroke-width="2.6098" stroke-miterlimit="10" stroke-linecap="round" stroke-linejoin="round"/>
<path d="M26.1414 24.4109C26.1414 24.4109 20.0513 24.6273 19.0714 35.8203C18.09 24.6287 12 24.4109 12 24.4109C12 24.4109 18.09 24.1901 19.0714 13C20.0513 24.1886 26.1414 24.4109 26.1414 24.4109Z" fill="black" stroke="black" stroke-width="2.6098" stroke-miterlimit="10" stroke-linecap="round" stroke-linejoin="round"/>
<path d="M582.175 13.0798C582.175 13.0798 576.085 13.2962 575.105 24.4892C574.124 13.2977 568.034 13.0798 568.034 13.0798C568.034 13.0798 574.124 12.8591 575.105 1.66898C576.085 12.8591 582.175 13.0798 582.175 13.0798Z" fill="black" stroke="black" stroke-width="2.6098" stroke-miterlimit="10" stroke-linecap="round" stroke-linejoin="round"/>
<path d="M454.578 259C442.663 259 433 268.804 433 280.902C433 292.996 442.661 302.801 454.578 302.801C466.496 302.801 492.18 292.997 492.18 280.902C492.18 268.804 466.496 259 454.578 259Z" stroke="black" stroke-width="2.1123" stroke-miterlimit="10"/>
<path d="M504.684 286.841H490.14" stroke="black" stroke-width="2.1123" stroke-miterlimit="10"/>
<path d="M504.684 274.958H490.121" stroke="black" stroke-width="2.1123" stroke-miterlimit="10"/>
<path d="M567.59 274.967V286.849L526.351 301.753L504.683 286.849V274.967L526.351 260.05L567.59 274.967Z" stroke="black" stroke-width="2.1123" stroke-miterlimit="10"/>
<path d="M552.529 292.294H538.218C536.254 292.294 534.661 290.678 534.661 288.682C534.661 286.686 536.253 285.071 538.218 285.071H546.258C548.255 285.071 549.876 283.426 549.876 281.398C549.876 279.37 548.255 277.728 546.258 277.728H515.222C513.257 277.728 511.663 276.112 511.663 274.115C511.663 272.122 513.255 270.504 515.222 270.504H528.479C530.476 270.504 532.096 268.862 532.096 266.831C532.096 264.803 530.476 263.161 528.479 263.161H521.827" stroke="black" stroke-width="2.1123" stroke-miterlimit="10"/>
<path d="M450.36 289.639C445.606 289.639 441.752 285.727 441.752 280.902C441.752 276.077 445.606 272.165 450.36 272.165C455.114 272.165 458.968 276.077 458.968 280.902C458.968 285.727 455.114 289.639 450.36 289.639Z" stroke="black" stroke-width="2.1123" stroke-miterlimit="10"/>
<path d="M321.152 280.871H254.331V355.866H321.152V280.871Z" stroke="black" stroke-width="2.1123" stroke-miterlimit="10"/>
<path d="M249.034 275C251.96 275 254.331 277.37 254.331 280.297V356.436C254.331 359.364 251.96 361.734 249.034 361.734C246.107 361.734 243.736 359.364 243.736 356.436V280.297C243.735 277.37 246.107 275 249.034 275Z" stroke="black" stroke-width="2.1123" stroke-miterlimit="10"/>
<path d="M326.449 275C329.372 275 331.746 277.37 331.746 280.297V356.436C331.746 359.364 329.372 361.734 326.449 361.734C323.521 361.734 321.15 359.364 321.15 356.436V280.297C321.15 277.37 323.521 275 326.449 275Z" stroke="black" stroke-width="2.1123" stroke-miterlimit="10"/>
<path d="M302.881 355.866L321.15 330.287" stroke="black" stroke-width="2.1123" stroke-miterlimit="10"/>
<path d="M278.584 355.869L321.15 295.74" stroke="black" stroke-width="2.1123" stroke-miterlimit="10"/>
<path d="M254.331 355.866L307.585 280.872" stroke="black" stroke-width="2.1123" stroke-miterlimit="10"/>
<path d="M295.721 355.866L254.331 326.491" stroke="black" stroke-width="2.1123" stroke-miterlimit="10"/>
<path d="M321.147 350.07L254.331 302.648" stroke="black" stroke-width="2.1123" stroke-miterlimit="10"/>
<path d="M321.151 326.225L257.24 280.871" stroke="black" stroke-width="2.1123" stroke-miterlimit="10"/>
<path d="M321.15 302.385L290.834 280.871" stroke="black" stroke-width="2.1123" stroke-miterlimit="10"/>
<path d="M254.331 321.19L283.243 280.871" stroke="black" stroke-width="2.1123" stroke-miterlimit="10"/>
<path d="M243.736 322.75H196V347.46H243.736V322.75Z" stroke="black" stroke-width="2.1123" stroke-miterlimit="10"/>
<path d="M227.695 347.461H196V354.452H227.695V347.461Z" stroke="black" stroke-width="2.1123" stroke-miterlimit="10"/>
<path d="M233.22 347.461V322.75" stroke="black" stroke-width="2.1123" stroke-miterlimit="10"/>
<path d="M243.735 285.867V310.572H220.919L196 298.218L220.919 285.867H243.735Z" stroke="black" stroke-width="2.1123" stroke-miterlimit="10"/>
<path d="M243.735 310.572H220.919" stroke="black" stroke-width="2.1123" stroke-miterlimit="10"/>
<path d="M217.646 308.95C217.119 308.259 216.808 307.396 216.808 306.46C216.808 304.19 218.649 302.347 220.92 302.347H239.698" stroke="black" stroke-width="2.1123" stroke-miterlimit="10"/>
<path d="M224.618 294.106H243.735" stroke="black" stroke-width="2.1123" stroke-miterlimit="10"/>
<path d="M220.919 302.331C218.648 302.331 216.807 300.49 216.807 298.218C216.807 295.95 218.648 294.106 220.919 294.106" stroke="black" stroke-width="2.1123" stroke-miterlimit="10"/>
<path d="M220.919 294.095C218.648 294.095 216.807 292.251 216.807 289.98C216.807 289.043 217.118 288.182 217.645 287.49" stroke="black" stroke-width="2.1123" stroke-miterlimit="10"/>
<path d="M220.919 285.867H243.735" stroke="black" stroke-width="2.1123" stroke-miterlimit="10"/>
<path d="M205.858 303.108V293.331" stroke="black" stroke-width="2.1123" stroke-miterlimit="10"/>
<path d="M140.167 378.464C140.167 387.769 132.623 395.311 123.317 395.311H94.8515C85.5467 395.311 78 387.769 78 378.464V374.126C78 364.823 85.5467 357.28 94.8515 357.28H123.317C132.622 357.28 140.167 364.822 140.167 374.126V378.464Z" stroke="black" stroke-width="2.1123" stroke-miterlimit="10"/>
<path d="M111.52 388.293H103.786" stroke="black" stroke-width="2.1123" stroke-miterlimit="10"/>
<path d="M94.8532 388.293C89.4345 388.293 85.022 383.883 85.022 378.464" stroke="black" stroke-width="2.1123" stroke-miterlimit="10"/>
<path d="M124.679 397.712C124.679 399.036 123.606 400.11 122.278 400.11H95.8927C94.5662 400.11 93.4912 399.037 93.4912 397.712C93.4912 396.386 94.5647 395.313 95.8927 395.313H122.278C123.605 395.313 124.679 396.385 124.679 397.712Z" stroke="black" stroke-width="2.1123" stroke-miterlimit="10"/>
<path d="M124.679 357.34H91.7656L88.9561 348.804H127.488L124.679 357.34Z" stroke="black" stroke-width="2.1123" stroke-miterlimit="10"/>
<path d="M123.007 309.247C123.007 309.247 126.126 250.511 179.188 253.082L111.581 320.67" stroke="black" stroke-width="2.1123" stroke-miterlimit="10"/>
<path d="M118.081 314.172C118.081 314.172 178.859 305.551 179.188 253.082" stroke="black" stroke-width="2.1123" stroke-miterlimit="10"/>
<path d="M132.662 277.528L134.857 297.399" stroke="black" stroke-width="2.1123" stroke-miterlimit="10"/>
<path d="M151.5 258.692L153.726 278.539" stroke="black" stroke-width="2.1123" stroke-miterlimit="10"/>
<path d="M164.864 267.403L177.167 268.392" stroke="black" stroke-width="2.1123" stroke-miterlimit="10"/>
<path d="M143.696 288.562L164.576 290.809" stroke="black" stroke-width="2.1123" stroke-miterlimit="10"/>
<path d="M115.039 333.942C115.039 337.714 111.979 340.773 108.205 340.773C104.433 340.773 101.375 337.714 101.375 333.942C101.375 330.171 108.205 324.042 108.205 324.042C108.205 324.042 115.039 330.171 115.039 333.942Z" fill="#3E74F2" stroke="black" stroke-width="2.1123" stroke-miterlimit="10"/>
<path d="M384.26 354.963C384.26 354.963 374.673 355.305 373.131 372.923C371.586 355.305 362 354.963 362 354.963C362 354.963 371.587 354.615 373.131 337C374.673 354.613 384.26 354.963 384.26 354.963Z" fill="black" stroke="black" stroke-width="4.1086" stroke-miterlimit="10" stroke-linecap="round" stroke-linejoin="round"/>
<path d="M443.474 330.001L443.474 374.397C434.375 374.397 427 367.021 427 357.92L427 346.478C427 339.778 430.998 334.012 436.74 331.435L436.74 373.125" stroke="black" stroke-width="2.1123" stroke-miterlimit="10"/>
<path d="M481.361 344.795C485.445 344.795 488.755 341.482 488.755 337.398C488.755 333.311 485.444 330 481.361 330L443.474 330L443.474 344.795L481.361 344.795Z" fill="#FEE066" stroke="black" stroke-width="2.1123" stroke-miterlimit="10"/>
<path d="M481.361 359.59C485.445 359.59 488.755 356.278 488.755 352.191C488.755 348.107 485.444 344.794 481.361 344.794L443.474 344.794L443.474 359.59L481.361 359.59Z" fill="#FEE066" stroke="black" stroke-width="2.1123" stroke-miterlimit="10"/>
<path d="M481.361 374.383C485.445 374.383 488.755 371.073 488.755 366.986C488.755 362.901 485.444 359.59 481.361 359.59L443.474 359.59L443.474 374.383L481.361 374.383Z" fill="#FEE066" stroke="black" stroke-width="2.1123" stroke-miterlimit="10"/>
<path d="M484.745 373.558L520.915 352.352L484.824 330.864" stroke="black" stroke-width="2.1123" stroke-miterlimit="10"/>
<path d="M509.899 345.791L509.899 358.811" stroke="black" stroke-width="2.1123" stroke-miterlimit="10"/>
<path d="M139.524 98.217L139.524 36.0002C152.276 36.0002 162.611 46.3375 162.611 59.0909L162.611 75.1263C162.611 84.5158 157.008 92.5964 148.961 96.2074L148.961 37.7831" stroke="black" stroke-width="2.1123" stroke-miterlimit="10"/>
<path d="M86.4299 77.4852C80.7069 77.4852 76.0674 82.1274 76.0674 87.8503C76.0674 93.5776 80.7083 98.2183 86.4299 98.2183L139.525 98.2183L139.525 77.4852L86.4299 77.4852Z" fill="#FEE066" stroke="black" stroke-width="2.1123" stroke-miterlimit="10"/>
<path d="M86.4299 56.751C80.7069 56.751 76.0674 61.3932 76.0674 67.1205C76.0674 72.8434 80.7083 77.4856 86.4299 77.4856L139.525 77.4856L139.525 56.751L86.4299 56.751Z" fill="#FEE066" stroke="black" stroke-width="2.1123" stroke-miterlimit="10"/>
<path d="M86.4299 36.0205C80.7069 36.0205 76.0674 40.6597 76.0674 46.387C76.0674 52.1114 80.7083 56.7506 86.4299 56.7506L139.525 56.7506L139.525 36.0205L86.4299 36.0205Z" fill="#FEE066" stroke="black" stroke-width="2.1123" stroke-miterlimit="10"/>
<path d="M81.688 37.1759L31 66.8949L81.5769 97.0072" stroke="black" stroke-width="2.1123" stroke-miterlimit="10"/>
<path d="M46.4375 76.0886L46.4375 57.8434" stroke="black" stroke-width="2.1123" stroke-miterlimit="10"/>
</svg>
