<?xml version="1.0" encoding="utf-8"?>
<!-- Generator: Adobe Illustrator 16.0.0, SVG Export Plug-In . SVG Version: 6.00 Build 0)  -->
<!DOCTYPE svg PUBLIC "-//W3C//DTD SVG 1.1//EN" "http://www.w3.org/Graphics/SVG/1.1/DTD/svg11.dtd">
<svg version="1.1" xmlns="http://www.w3.org/2000/svg" xmlns:xlink="http://www.w3.org/1999/xlink" x="0px" y="0px" width="374px"
	 height="369.33px" viewBox="0 0 374 369.33" style="enable-background:new 0 0 374 369.33;" xml:space="preserve">
<g id="Background_Complete">
	<g>
		<path style="fill:#CCD1DD;" d="M214.62,181.19c-4.35,3.41-6.06,0.5-15.9,3.02c-5.35,1.37-9.34,6.97-9.76,12.49
			c-0.42,5.51,2.88,11.45,8.21,12.9c3.44,0.94,7.08-0.01,10.64-0.24c3.56-0.23,7.71,0.63,9.38,3.78c2.35,4.42-1.71,9.87-4.53,13.29
			c-1.16,1.42-2.07,3.04-2.49,4.83c-1.87,7.98,6.17,10.34,11.53,8.2c4.07-1.63,7.13-5.01,10.57-7.73s7.95-4.9,12.11-3.53
			c4.48,1.48,6.69,6.33,9.17,10.35c2.48,4.01,7.06,7.96,11.42,6.16c3.27-1.35,4.57-5.3,4.81-8.83s-0.16-7.23,1.3-10.45
			c1.83-4.05,5.88-6.09,10.35-7.22c4.8-1.21,6.06-7.55,2.01-10.39c-0.03-0.02-0.06-0.04-0.09-0.06c-3.07-2.12-6.68-3.39-9.61-5.7
			c-2.93-2.31-5.14-6.23-3.82-9.72c1.56-4.14,7.32-5.82,6.83-11.1c-0.27-2.97-2.45-5.42-5.29-6.33c-6.37-2.05-11.96,1.37-17.67,3.54
			c-4.62,1.75-10.32,2.54-14.09-0.66c-4.24-3.6-3.93-10.42-7.43-14.75c-3.18-3.93-9.49-4.84-13.65-1.95
			c-4.15,2.88-5.51,9.12-2.93,13.47C215.69,174.56,218.52,178.14,214.62,181.19z"/>
	</g>
	<g>
		<g>
			<path style="fill:#ABB4C6;" d="M282.18,234.27L282.18,234.27c-1.71-0.35-2.81-2.01-2.49-3.72l32.84-175.98l9.82,2.04
				l-36.38,175.18C285.6,233.51,283.91,234.62,282.18,234.27z"/>
		</g>
		<g>
			<path style="fill:#D1D3DB;" d="M312.52,54.57c0.25-1.2,9.03-26.5,9.03-26.5l3.06,0.64l-2.27,27.9L312.52,54.57z"/>
		</g>
		<g>
			<polyline style="fill:#ABB4C6;" points="324.61,28.7 332.89,8.38 325.37,6.53 322.73,19.24 324.03,6.26 322.61,5.96 
				321.55,28.07 323.5,28.47 			"/>
		</g>
	</g>
	<g>
		<path style="fill:#CCD1DD;" d="M29.98,158.49c-3.97,3.85-5.97,1.14-15.49,4.69c-5.18,1.93-8.55,7.93-8.38,13.45
			c0.17,5.52,4.08,11.08,9.54,11.96c3.52,0.57,7.04-0.76,10.55-1.37c3.52-0.61,7.73-0.2,9.73,2.76c2.81,4.15-0.66,9.99-3.09,13.7
			c-1.01,1.53-1.74,3.25-1.96,5.07c-1.01,8.14,7.23,9.63,12.33,6.93c3.88-2.05,6.56-5.74,9.69-8.81c3.13-3.07,7.38-5.72,11.67-4.79
			c4.61,1,7.33,5.59,10.22,9.32c2.89,3.73,7.87,7.17,12.01,4.91c3.1-1.69,3.98-5.76,3.84-9.29c-0.14-3.53-0.92-7.17,0.18-10.53
			c1.39-4.22,5.2-6.68,9.52-8.28c4.64-1.71,5.22-8.15,0.89-10.55c-0.03-0.02-0.07-0.04-0.1-0.05c-3.28-1.78-7-2.67-10.16-4.65
			s-5.77-5.65-4.83-9.26c1.11-4.28,6.66-6.56,5.61-11.76c-0.59-2.92-3.01-5.12-5.93-5.73c-6.55-1.36-11.75,2.64-17.2,5.39
			c-4.41,2.23-10,3.62-14.08,0.84c-4.6-3.13-5.01-9.95-8.95-13.88c-3.58-3.57-9.95-3.8-13.78-0.49c-3.82,3.31-4.51,9.65-1.49,13.7
			C30.34,151.77,33.54,155.03,29.98,158.49z"/>
	</g>
	<g>
		<circle style="fill:#CCD1DD;" cx="200.44" cy="146.52" r="7.49"/>
	</g>
</g>
<g id="Background_Simple" style="display:none;">
	<path style="display:inline;fill:#F5F5F5;" d="M250.92,27.81l-0.54,1.42c-4.58,11.99-2.43,25.55,5.99,35.08
		c1.08,1.23,2.25,2.37,3.51,3.43c9.03,7.6,22.07,10.18,33.45,6.62c6.69-2.1,13.09-6.2,20.06-5.73c9.07,0.61,15.53,8.59,20.84,15.89
		c5.31,7.3,11.8,15.26,20.87,15.84c5.68,0.36,11.21-2.42,15.54-6.16c11.46-9.92,15.69-26.54,12.78-41.26
		c-2.91-14.72-12.12-27.56-23.45-37.34c-15.88-13.7-36.87-22.17-57.96-20.68C280.9-3.59,260.15,8.74,250.92,27.81z"/>
	<circle style="display:inline;fill:#F5F5F5;" cx="382.56" cy="262.81" r="20.42"/>
	<circle style="display:inline;fill:#F5F5F5;" cx="7.31" cy="354.25" r="20.42"/>
	<path style="display:inline;fill:#F5F5F5;" d="M355.48,366.21c-5.45-12.97-20.52-21.26-34.3-18.47
		c-7.57,1.53-14.26,5.92-21.66,8.12c-15.96,4.74-34.06-1-49.3,5.7c-16.3,7.17-24.15,28.84-15.7,44.51
		c6.94,11.88,25.42,17.79,39.32,18.14c13.9,0.34,28.95-2.26,42.57-5.06c10.51-2.17,20.84-8.14,29.19-14.88
		C356.54,395.44,360.93,379.18,355.48,366.21z"/>
	<path style="display:inline;fill:#F5F5F5;" d="M48.67,148.77c-7.37-10.01-19.95-15.39-32.37-15.82
		c-12.42-0.44-24.66,3.62-35.57,9.57c-21.38,12-28.15,37.16-33.64,61.05c-4.07,17.71-2.57,38.99,5.92,55.07
		c10.08,19.08,35.19,28.62,55.4,21.04c20.2-7.57,32.86-31.27,27.91-52.27c-1.82-7.73-5.71-15.6-3.53-23.23
		c2.48-8.65,11.68-13.33,17-20.59C57.15,173.56,56.04,158.77,48.67,148.77z"/>
</g>
<g id="Brush">
	<g>
		<path style="fill:#263238;" d="M312.16,248.32L312.16,248.32c-1.72,0.28-3.35-0.86-3.66-2.58L276.04,69.69l9.9-1.62l28.87,176.57
			C315.09,246.39,313.91,248.03,312.16,248.32z"/>
		<path style="fill:#E0E0E0;" d="M276.04,69.69c-0.2-1.21-1.08-27.97-1.08-27.97l3.08-0.5l7.89,26.86L276.04,69.69z"/>
		<polyline style="fill:#FF4B61;" points="278.05,41.21 278.49,19.27 270.81,20.25 272.9,33.05 269.46,20.47 268.03,20.7 
			274.96,41.72 276.92,41.4 		"/>
	</g>
</g>
<g id="Palette_4">
	<g>
		<g>
			<g>
				<rect x="289.48" y="328.46" style="fill:#3C3D55;" width="22.58" height="22.58"/>
			</g>
			<g>
				<polygon style="fill:#FAFAFA;" points="312.06,338.89 298.14,351.05 312.06,351.05 				"/>
			</g>
			<g>
				<g>
					<path style="fill:#263238;" d="M312.06,351.05c-0.01-0.01-0.02-0.16-0.03-0.44c-0.01-0.32-0.02-0.72-0.03-1.23
						c-0.01-1.11-0.03-2.66-0.06-4.61c-0.03-3.98-0.07-9.59-0.12-16.3l0.23,0.23c-6.58,0.01-14.32,0.02-22.58,0.04
						c-0.06,0.06,0.49-0.49,0.26-0.26v0.01v0.01v0.02v0.05v0.1v0.19v0.39v0.77c0,0.51,0,1.02,0,1.53c0,1.02,0,2.02,0,3.02
						c0,1.99,0,3.94-0.01,5.84c-0.01,3.79-0.02,7.37-0.03,10.65l-0.22-0.22c6.71,0.05,12.32,0.09,16.3,0.11
						c1.95,0.02,3.5,0.04,4.61,0.06c0.51,0.01,0.91,0.02,1.23,0.03C311.9,351.03,312.05,351.04,312.06,351.05
						c0.01,0.01-0.12,0.02-0.39,0.03c-0.31,0.01-0.7,0.02-1.19,0.03c-1.1,0.01-2.63,0.03-4.56,0.06c-4.02,0.03-9.67,0.07-16.44,0.12
						l-0.22,0l0-0.23c-0.01-3.29-0.02-6.86-0.03-10.65c0-1.9,0-3.85-0.01-5.84c0-1,0-2,0-3.02c0-0.51,0-1.02,0-1.53v-0.77v-0.39
						v-0.19v-0.1v-0.05v-0.02v-0.01v-0.01c-0.23,0.23,0.32-0.32,0.26-0.26c8.26,0.01,16.01,0.02,22.58,0.04h0.23l0,0.22
						c-0.05,6.77-0.09,12.43-0.11,16.44c-0.03,1.93-0.04,3.46-0.06,4.56c-0.01,0.49-0.02,0.88-0.03,1.19
						C312.08,350.92,312.07,351.06,312.06,351.05z"/>
				</g>
			</g>
		</g>
		<g>
			<g>
				<g>
					<rect x="317.56" y="328.46" style="fill:#6A8BFF;" width="22.58" height="22.58"/>
				</g>
			</g>
			<g>
				<polygon style="fill:#FAFAFA;" points="340.14,338.89 326.23,351.05 340.14,351.05 				"/>
			</g>
			<g>
				<g>
					<path style="fill:#263238;" d="M340.14,351.05c-0.01-0.01-0.02-0.16-0.03-0.44c-0.01-0.32-0.02-0.72-0.03-1.23
						c-0.01-1.11-0.03-2.66-0.06-4.61c-0.03-3.98-0.07-9.59-0.12-16.3l0.23,0.23c-6.58,0.01-14.32,0.02-22.58,0.04
						c-0.06,0.06,0.49-0.49,0.26-0.26v0.01v0.01v0.02v0.05v0.1v0.19v0.39v0.77c0,0.51,0,1.02,0,1.53c0,1.02,0,2.02,0,3.02
						c0,1.99,0,3.94-0.01,5.84c-0.01,3.79-0.02,7.37-0.03,10.65l-0.22-0.22c6.71,0.05,12.32,0.09,16.3,0.11
						c1.95,0.02,3.5,0.04,4.61,0.06c0.51,0.01,0.91,0.02,1.23,0.03C339.99,351.03,340.13,351.04,340.14,351.05
						c0.01,0.01-0.13,0.02-0.39,0.03c-0.31,0.01-0.7,0.02-1.19,0.03c-1.1,0.01-2.63,0.03-4.56,0.06c-4.02,0.03-9.67,0.07-16.44,0.12
						l-0.22,0l0-0.23c-0.01-3.29-0.02-6.86-0.03-10.65c0-1.9,0-3.85-0.01-5.84c0-1,0-2,0-3.02c0-0.51,0-1.02,0-1.53v-0.77v-0.39
						v-0.19v-0.1v-0.05v-0.02v-0.01v-0.01c-0.23,0.23,0.32-0.32,0.26-0.26c8.26,0.01,16.01,0.02,22.58,0.04h0.23l0,0.22
						c-0.05,6.77-0.09,12.43-0.11,16.44c-0.03,1.93-0.04,3.46-0.06,4.56c-0.01,0.49-0.02,0.88-0.03,1.19
						C340.16,350.92,340.15,351.06,340.14,351.05z"/>
				</g>
			</g>
		</g>
		<g>
			<g>
				<rect x="259.45" y="328.46" style="fill:#FF4B61;" width="22.58" height="22.58"/>
			</g>
			<g>
				<polygon style="fill:#FAFAFA;" points="282.04,338.89 268.12,351.05 282.04,351.05 				"/>
			</g>
			<g>
				<g>
					<path style="fill:#263238;" d="M282.04,351.05c-0.01-0.01-0.02-0.16-0.03-0.44c-0.01-0.32-0.02-0.72-0.03-1.23
						c-0.01-1.11-0.03-2.66-0.06-4.61c-0.03-3.98-0.07-9.59-0.12-16.3l0.23,0.23c-6.58,0.01-14.32,0.02-22.58,0.04
						c-0.06,0.06,0.49-0.49,0.26-0.26v0.01v0.01v0.02v0.05v0.1v0.19l0,0.39v0.77c0,0.51,0,1.02,0,1.53c0,1.02,0,2.02,0,3.02
						c0,1.99,0,3.94-0.01,5.84c-0.01,3.79-0.02,7.37-0.03,10.65l-0.22-0.22c6.71,0.05,12.32,0.09,16.3,0.11
						c1.95,0.02,3.5,0.04,4.61,0.06c0.51,0.01,0.91,0.02,1.23,0.03C281.88,351.03,282.03,351.04,282.04,351.05
						c0.01,0.01-0.12,0.02-0.39,0.03c-0.31,0.01-0.7,0.02-1.19,0.03c-1.1,0.01-2.63,0.03-4.56,0.06c-4.02,0.03-9.67,0.07-16.44,0.12
						l-0.22,0l0-0.23c-0.01-3.29-0.02-6.86-0.03-10.65c0-1.9,0-3.85-0.01-5.84c0-1,0-2,0-3.02c0-0.51,0-1.02,0-1.53v-0.77v-0.39
						v-0.19v-0.1v-0.05v-0.02v-0.01v-0.01c-0.23,0.23,0.32-0.32,0.26-0.26c8.26,0.01,16.01,0.02,22.58,0.04h0.23l0,0.22
						c-0.05,6.77-0.09,12.43-0.11,16.44c-0.03,1.93-0.04,3.46-0.06,4.56c-0.01,0.49-0.02,0.88-0.03,1.19
						C282.05,350.92,282.04,351.06,282.04,351.05z"/>
				</g>
			</g>
		</g>
		<g>
			<g>
				<rect x="228.36" y="328.46" style="fill:#263238;" width="22.58" height="22.58"/>
			</g>
			<g>
				<polygon style="fill:#FAFAFA;" points="250.94,338.89 237.03,351.05 250.94,351.05 				"/>
			</g>
			<g>
				<g>
					<path style="fill:#263238;" d="M250.94,351.05c-0.01-0.01-0.02-0.16-0.03-0.44c-0.01-0.32-0.02-0.72-0.03-1.23
						c-0.01-1.11-0.03-2.66-0.06-4.61c-0.03-3.98-0.07-9.59-0.12-16.3l0.23,0.23c-6.58,0.01-14.32,0.02-22.58,0.04
						c-0.06,0.06,0.49-0.49,0.26-0.26v0.01v0.01v0.02v0.05v0.1v0.19v0.39v0.77c0,0.51,0,1.02,0,1.53c0,1.02,0,2.02,0,3.02
						c0,1.99,0,3.94-0.01,5.84c-0.01,3.79-0.02,7.37-0.03,10.65l-0.22-0.22c6.71,0.05,12.32,0.09,16.3,0.11
						c1.95,0.02,3.5,0.04,4.61,0.06c0.51,0.01,0.91,0.02,1.23,0.03C250.78,351.03,250.93,351.04,250.94,351.05
						c0.01,0.01-0.13,0.02-0.39,0.03c-0.31,0.01-0.7,0.02-1.19,0.03c-1.1,0.01-2.63,0.03-4.56,0.06c-4.02,0.03-9.67,0.07-16.44,0.12
						l-0.22,0l0-0.23c-0.01-3.29-0.02-6.86-0.03-10.65c0-1.9,0-3.85-0.01-5.84c0-1,0-2,0-3.02c0-0.51,0-1.02,0-1.53v-0.77v-0.39
						v-0.19v-0.1v-0.05v-0.02v-0.01v-0.01c-0.23,0.23,0.32-0.32,0.26-0.26c8.26,0.01,16.01,0.02,22.58,0.04h0.23l0,0.22
						c-0.05,6.77-0.09,12.43-0.11,16.44c-0.03,1.93-0.04,3.46-0.06,4.56c-0.01,0.49-0.02,0.88-0.03,1.19
						C250.96,350.92,250.95,351.06,250.94,351.05z"/>
				</g>
			</g>
		</g>
	</g>
</g>
<g id="Palette_3">
	<g>
		<g>
			<g>
				<g>
					
						<rect x="261.3" y="113.75" transform="matrix(0.992 0.1264 -0.1264 0.992 18.2634 -32.4518)" style="fill:#EBEBEB;" width="7.23" height="27.96"/>
				</g>
				<g>
					
						<rect x="245.17" y="240.45" transform="matrix(0.992 0.1263 -0.1263 0.992 34.1255 -29.3826)" style="fill:#EBEBEB;" width="7.23" height="27.96"/>
				</g>
			</g>
			<g>
				<g>
					<path style="fill:#FFFFFF;" d="M324.49,312.61l-58.76-7.48c-12.18-1.55-20.8-12.68-19.25-24.87l21.63-169.79
						c1.55-12.18,12.68-20.8,24.87-19.25l58.76,7.48c12.18,1.55,20.8,12.68,19.25,24.87l-21.63,169.79
						C347.8,305.54,336.67,314.16,324.49,312.61z"/>
				</g>
				<g>
					<g>
						<path style="fill:#263238;" d="M324.49,312.61c0,0,0.53,0.02,1.55,0.09c0.51,0.06,1.15,0.05,1.9,0.01
							c0.38-0.02,0.79-0.01,1.23-0.05c0.44-0.06,0.9-0.12,1.4-0.18c1.96-0.32,4.39-0.92,6.97-2.29c2.57-1.35,5.29-3.47,7.56-6.5
							c2.24-3.04,3.9-7.05,4.3-11.66c0.58-4.59,1.21-9.57,1.88-14.92c1.35-10.71,2.89-22.9,4.59-36.37
							c3.42-26.95,7.48-59.04,12-94.67c0.57-4.45,1.14-8.96,1.72-13.52c0.29-2.28,0.58-4.57,0.87-6.88
							c0.33-2.31,0.55-4.61,0.34-6.93c-0.18-2.32-0.83-4.6-1.75-6.75c-0.94-2.15-2.2-4.18-3.81-5.92c-1.59-1.75-3.47-3.26-5.55-4.45
							c-2.07-1.2-4.39-1.98-6.75-2.43c-1.18-0.24-2.4-0.37-3.62-0.52c-1.22-0.15-2.44-0.31-3.66-0.47c-2.44-0.31-4.9-0.62-7.36-0.94
							c-4.93-0.63-9.9-1.26-14.9-1.9c-10.01-1.27-20.17-2.57-30.45-3.88c-5.09-0.63-10.33,0.55-14.61,3.27
							c-4.28,2.72-7.49,6.94-9.06,11.67c-0.83,2.36-1,4.87-1.35,7.36c-0.32,2.48-0.63,4.96-0.95,7.42
							c-0.63,4.93-1.25,9.82-1.87,14.67c-2.47,19.39-4.86,38.09-7.14,55.91c-2.28,17.81-4.44,34.74-6.47,50.59
							c-1.01,7.92-1.99,15.57-2.94,22.93c-0.47,3.68-0.93,7.28-1.38,10.81c-0.2,1.76-0.5,3.51-0.62,5.23
							c-0.03,0.43-0.08,0.86-0.09,1.29l0.03,1.28c-0.02,0.85,0.14,1.69,0.23,2.53c0.98,6.71,5.16,12.35,10.33,15.49
							c2.59,1.59,5.43,2.57,8.27,2.98c2.85,0.41,5.62,0.73,8.3,1.09c10.7,1.38,19.92,2.57,27.45,3.54
							c7.53,0.98,13.37,1.74,17.35,2.26c1.98,0.26,3.49,0.46,4.51,0.6C323.97,312.53,324.49,312.61,324.49,312.61
							s-0.52-0.05-1.54-0.17c-1.03-0.12-2.54-0.31-4.52-0.55c-3.98-0.5-9.83-1.22-17.36-2.16c-7.54-0.95-16.76-2.11-27.46-3.45
							c-2.68-0.35-5.45-0.67-8.3-1.07c-2.87-0.41-5.76-1.4-8.39-3c-5.25-3.17-9.51-8.9-10.52-15.71c-0.1-0.85-0.25-1.7-0.24-2.57
							l-0.03-1.3c0.01-0.44,0.06-0.87,0.09-1.31c0.11-1.75,0.41-3.48,0.61-5.25c0.45-3.53,0.9-7.13,1.37-10.81
							c0.93-7.36,1.9-15.01,2.91-22.93c2.01-15.85,4.16-32.78,6.42-50.6c2.26-17.82,4.64-36.52,7.11-55.91
							c0.62-4.85,1.24-9.74,1.87-14.67c0.31-2.46,0.63-4.94,0.94-7.42c0.17-1.24,0.29-2.49,0.5-3.74l0.34-1.88l0.53-1.84
							c1.6-4.85,4.9-9.16,9.27-11.95c4.37-2.79,9.74-4,14.95-3.35c10.28,1.31,20.44,2.6,30.45,3.88c5,0.64,9.97,1.27,14.9,1.9
							c2.46,0.31,4.92,0.63,7.36,0.94c1.22,0.16,2.44,0.31,3.66,0.47c1.22,0.16,2.43,0.29,3.65,0.53c2.42,0.46,4.79,1.26,6.91,2.49
							c2.13,1.21,4.04,2.76,5.67,4.56c1.65,1.78,2.94,3.86,3.9,6.06c0.94,2.2,1.6,4.53,1.79,6.91c0.21,2.37-0.02,4.75-0.35,7.04
							c-0.29,2.31-0.59,4.6-0.88,6.88c-0.58,4.56-1.16,9.07-1.73,13.52c-4.56,35.62-8.66,67.71-12.11,94.66
							c-1.73,13.47-3.29,25.66-4.67,36.36c-0.69,5.35-1.33,10.33-1.92,14.92c-0.41,4.63-2.11,8.7-4.38,11.75
							c-2.31,3.05-5.05,5.17-7.65,6.51c-2.61,1.36-5.06,1.95-7.03,2.25c-0.5,0.06-0.96,0.12-1.4,0.17
							c-0.44,0.04-0.85,0.03-1.23,0.04c-0.76,0.02-1.4,0.03-1.91-0.04C325.01,312.67,324.49,312.61,324.49,312.61z"/>
					</g>
				</g>
			</g>
			<g>
				<circle style="fill:#FF4B61;" cx="294.45" cy="117.87" r="11.81"/>
			</g>
			<g>
				<circle style="fill:#3C3D55;" cx="289.3" cy="158.33" r="11.81"/>
			</g>
			<g>
				<circle style="fill:#263238;" cx="284.15" cy="198.79" r="11.81"/>
			</g>
			<g>
				<circle style="fill:#E0E0E0;" cx="278.99" cy="239.25" r="11.81"/>
			</g>
			<g>
				<g>
					<circle style="fill:#6A8BFF;" cx="273.84" cy="279.71" r="11.81"/>
				</g>
			</g>
			<g>
				<circle style="fill:#FF725E;" cx="343.43" cy="124.11" r="11.81"/>
			</g>
			<g>
				<g>
					<circle style="fill:#6A8BFF;" cx="338.28" cy="164.57" r="11.81"/>
				</g>
			</g>
			<g>
				<circle style="fill:#FFC527;" cx="333.12" cy="205.03" r="11.81"/>
			</g>
			<g>
				<circle style="fill:#3C3D55;" cx="327.97" cy="245.48" r="11.81"/>
			</g>
			<g>
				<circle style="fill:#FF4B61;" cx="322.82" cy="285.94" r="11.81"/>
			</g>
			<g>
				<path style="fill:#E0E0E0;" d="M296.3,294.47L296.3,294.47c-1.76-0.22-3.01-1.84-2.79-3.6L316.3,112
					c0.22-1.76,1.84-3.01,3.6-2.79l0,0c1.76,0.22,3.01,1.84,2.79,3.6L299.9,291.68C299.68,293.45,298.07,294.69,296.3,294.47z"/>
			</g>
			<g>
				<g>
					<path style="fill:#263238;" d="M296.3,294.47c0-0.02,0.34,0.06,0.97-0.05c0.61-0.12,1.61-0.52,2.22-1.64
						c0.33-0.55,0.37-1.26,0.46-2.04s0.2-1.63,0.31-2.55c0.23-1.84,0.49-3.97,0.79-6.36c1.2-9.57,2.93-23.41,5.07-40.5
						c2.16-17.1,4.73-37.45,7.59-60.05c1.43-11.3,2.94-23.16,4.5-35.46c0.78-6.15,1.58-12.4,2.38-18.75
						c0.4-3.17,0.81-6.37,1.22-9.59c0.2-1.61,0.41-3.22,0.61-4.83c0.17-1.52-1.03-3.02-2.56-3.19c-1.52-0.23-3.07,0.91-3.29,2.42
						c-0.21,1.62-0.42,3.23-0.62,4.83c-0.41,3.22-0.82,6.42-1.22,9.59c-0.81,6.35-1.61,12.61-2.39,18.76
						c-1.57,12.3-3.09,24.16-4.53,35.46c-2.9,22.6-5.51,42.95-7.7,60.04c-2.21,17.08-4,30.9-5.24,40.47
						c-0.31,2.39-0.59,4.51-0.83,6.35c-0.12,0.92-0.23,1.77-0.34,2.54c-0.1,0.78-0.24,1.48-0.06,2.09c0.31,1.24,1.17,1.87,1.73,2.14
						C295.96,294.44,296.31,294.45,296.3,294.47c0,0-0.34,0.01-0.95-0.25c-0.58-0.25-1.48-0.89-1.81-2.16
						c-0.19-0.63-0.06-1.36,0.03-2.13c0.1-0.78,0.2-1.63,0.31-2.55c0.23-1.84,0.49-3.97,0.79-6.35c1.2-9.57,2.93-23.4,5.07-40.49
						c2.16-17.1,4.74-37.45,7.59-60.05c1.43-11.3,2.94-23.17,4.5-35.46c0.78-6.15,1.58-12.41,2.39-18.76
						c0.4-3.18,0.81-6.38,1.22-9.6c0.21-1.61,0.42-3.23,0.63-4.86c0.15-0.87,0.65-1.68,1.36-2.2c0.71-0.53,1.63-0.77,2.51-0.65
						c0.88,0.11,1.71,0.58,2.26,1.27c0.56,0.69,0.83,1.6,0.75,2.48c-0.2,1.62-0.41,3.24-0.61,4.86c-0.41,3.22-0.82,6.42-1.22,9.59
						c-0.81,6.35-1.61,12.61-2.39,18.75c-1.57,12.29-3.09,24.16-4.53,35.45c-2.9,22.59-5.51,42.94-7.7,60.04
						c-2.21,17.08-4,30.9-5.24,40.47c-0.31,2.39-0.59,4.51-0.83,6.35c-0.12,0.92-0.23,1.77-0.34,2.54c-0.1,0.77-0.16,1.51-0.5,2.07
						c-0.64,1.15-1.67,1.54-2.3,1.64C296.64,294.56,296.3,294.47,296.3,294.47z"/>
				</g>
			</g>
			<g>
				<g>
					<path style="fill:#263238;" d="M245.93,284.59c-0.14-0.02,4.62-38.33,10.64-85.57c6.02-47.25,11.01-85.53,11.15-85.51
						c0.14,0.02-4.62,38.33-10.64,85.58C251.06,246.32,246.07,284.61,245.93,284.59z"/>
				</g>
			</g>
			<g style="opacity:0.8;">
				<circle cx="343.43" cy="124.11" r="11.81"/>
			</g>
		</g>
		<g>
			<g>
				<g>
					<path style="fill:#263238;" d="M216.59,302.61c0,0,0.53,0.02,1.55,0.09c0.51,0.06,1.15,0.05,1.9,0.01
						c0.38-0.02,0.79-0.01,1.23-0.05c0.44-0.06,0.9-0.12,1.4-0.18c1.96-0.32,4.39-0.92,6.97-2.29c2.57-1.35,5.29-3.47,7.56-6.5
						c2.24-3.04,3.9-7.05,4.3-11.66c0.58-4.59,1.21-9.57,1.88-14.92c1.35-10.71,2.89-22.9,4.59-36.37
						c3.42-26.95,7.48-59.04,12-94.67c0.57-4.45,1.14-8.96,1.72-13.52c0.29-2.28,0.58-4.57,0.88-6.88c0.33-2.31,0.55-4.61,0.34-6.93
						c-0.18-2.32-0.83-4.6-1.75-6.75c-0.94-2.15-2.2-4.18-3.81-5.92c-1.59-1.75-3.47-3.26-5.55-4.45c-2.07-1.2-4.39-1.98-6.75-2.43
						c-1.18-0.24-2.4-0.37-3.62-0.52c-1.22-0.15-2.44-0.31-3.66-0.47c-2.44-0.31-4.9-0.62-7.36-0.94c-4.93-0.63-9.9-1.26-14.9-1.9
						c-10.01-1.27-20.17-2.57-30.45-3.88c-5.09-0.63-10.33,0.55-14.61,3.27c-4.28,2.72-7.49,6.94-9.06,11.68
						c-0.83,2.36-1,4.87-1.35,7.36c-0.32,2.48-0.63,4.96-0.95,7.42c-0.63,4.93-1.25,9.82-1.87,14.67
						c-2.48,19.39-4.86,38.09-7.14,55.91c-2.28,17.82-4.44,34.75-6.47,50.59c-1.01,7.92-1.99,15.57-2.94,22.93
						c-0.47,3.68-0.93,7.28-1.38,10.81c-0.2,1.76-0.5,3.51-0.62,5.23c-0.03,0.43-0.08,0.86-0.09,1.29l0.03,1.28
						c-0.02,0.85,0.14,1.69,0.23,2.53c0.98,6.71,5.16,12.35,10.33,15.49c2.59,1.59,5.43,2.57,8.27,2.98
						c2.85,0.41,5.62,0.73,8.3,1.09c10.7,1.38,19.92,2.57,27.45,3.54c7.53,0.98,13.37,1.74,17.35,2.26c1.98,0.26,3.49,0.46,4.51,0.6
						C216.07,302.52,216.59,302.61,216.59,302.61s-0.52-0.05-1.54-0.17c-1.03-0.13-2.54-0.31-4.52-0.55
						c-3.98-0.5-9.83-1.22-17.36-2.16c-7.54-0.95-16.76-2.11-27.46-3.45c-2.68-0.35-5.45-0.67-8.3-1.07c-2.87-0.4-5.76-1.4-8.39-3
						c-5.25-3.17-9.51-8.9-10.52-15.72c-0.1-0.85-0.25-1.7-0.24-2.57l-0.03-1.3c0.01-0.43,0.06-0.87,0.09-1.31
						c0.11-1.75,0.41-3.48,0.61-5.25c0.45-3.53,0.9-7.13,1.37-10.81c0.93-7.35,1.9-15.01,2.91-22.93
						c2.01-15.85,4.16-32.78,6.42-50.59c2.26-17.82,4.64-36.52,7.11-55.91c0.62-4.85,1.24-9.74,1.87-14.67
						c0.31-2.47,0.63-4.94,0.94-7.43c0.17-1.24,0.29-2.49,0.5-3.74l0.34-1.88l0.52-1.84c1.6-4.85,4.9-9.16,9.27-11.95
						c4.37-2.79,9.74-3.99,14.95-3.35c10.28,1.31,20.44,2.6,30.45,3.88c5,0.64,9.97,1.27,14.9,1.9c2.46,0.31,4.92,0.63,7.36,0.94
						c1.22,0.16,2.44,0.31,3.66,0.47c1.22,0.16,2.43,0.29,3.65,0.53c2.42,0.46,4.79,1.26,6.91,2.49c2.13,1.21,4.04,2.76,5.67,4.56
						c1.65,1.78,2.94,3.86,3.9,6.06c0.94,2.2,1.6,4.53,1.79,6.91c0.21,2.37-0.02,4.75-0.35,7.04c-0.29,2.31-0.59,4.6-0.88,6.88
						c-0.58,4.56-1.16,9.07-1.73,13.52c-4.56,35.62-8.66,67.71-12.11,94.66c-1.73,13.47-3.3,25.66-4.67,36.36
						c-0.69,5.35-1.33,10.33-1.92,14.92c-0.41,4.63-2.11,8.7-4.38,11.75c-2.31,3.05-5.05,5.17-7.65,6.51
						c-2.61,1.36-5.06,1.95-7.03,2.25c-0.5,0.06-0.97,0.12-1.4,0.17c-0.44,0.04-0.85,0.03-1.23,0.04c-0.76,0.02-1.4,0.03-1.91-0.04
						C217.11,302.67,216.59,302.61,216.59,302.61z"/>
				</g>
			</g>
			<g>
				<g>
					<path style="fill:#263238;" d="M178.95,197.89c-0.11-0.1,13.73-15.24,30.89-33.82c17.17-18.58,31.17-33.56,31.28-33.47
						s-13.72,15.24-30.89,33.82C193.06,183,179.05,197.98,178.95,197.89z"/>
				</g>
			</g>
			<g>
				<g>
					<path style="fill:#263238;" d="M158.83,229.05c-0.11-0.1,13.73-15.24,30.89-33.82c17.17-18.58,31.17-33.56,31.28-33.47
						c0.11,0.1-13.72,15.24-30.89,33.82C172.94,214.16,158.94,229.15,158.83,229.05z"/>
				</g>
			</g>
			<g>
				<g>
					<path style="fill:#FFFFFF;" d="M151.31,216.1c-0.14-0.02,2.75-23.65,6.46-52.78c3.71-29.14,6.83-52.74,6.98-52.72
						s-2.75,23.65-6.46,52.78C154.58,192.52,151.45,216.12,151.31,216.1z"/>
				</g>
			</g>
			<g>
				<g>
					<path style="fill:#FFFFFF;" d="M170.96,91.2c0.04,0.08-0.55,0.45-1.36,1.21c-0.81,0.76-1.8,1.95-2.53,3.47
						c-0.72,1.53-1.02,3.05-1.09,4.16c-0.08,1.11,0.01,1.81-0.08,1.82c-0.05,0.01-0.27-0.67-0.29-1.83
						c-0.02-1.15,0.23-2.77,0.99-4.37c0.76-1.6,1.85-2.82,2.76-3.53C170.27,91.41,170.94,91.15,170.96,91.2z"/>
				</g>
			</g>
		</g>
	</g>
</g>
<g id="Palette_2">
	<g>
		<g>
			
				<rect x="39.53" y="235.36" transform="matrix(0.9364 -0.351 0.351 0.9364 -90.3418 40.9293)" style="fill:#F5F5F5;" width="56.39" height="68.58"/>
		</g>
		<g>
			
				<rect x="36.45" y="235.92" transform="matrix(0.9364 -0.351 0.351 0.9364 -87.6538 39.3255)" style="fill:#E0E0E0;" width="56.39" height="51.03"/>
		</g>
		<g>
			<g>
				
					<ellipse transform="matrix(0.9364 -0.351 0.351 0.9364 -98.8516 42.3368)" style="fill:#263238;" cx="67.35" cy="293.82" rx="16.29" ry="0.19"/>
			</g>
		</g>
		<g>
			<g>
				
					<ellipse transform="matrix(0.9363 -0.3511 0.3511 0.9363 -101.628 40.1677)" style="fill:#263238;" cx="59.95" cy="300.34" rx="7.08" ry="0.19"/>
			</g>
		</g>
		<g>
			<g>
				<path style="fill:#263238;" d="M106.16,291.86c0,0-0.05-0.11-0.13-0.31c-0.08-0.21-0.2-0.51-0.35-0.9
					c-0.3-0.8-0.75-1.96-1.32-3.48c-1.15-3.04-2.83-7.49-4.97-13.12c-4.25-11.27-10.28-27.29-17.47-46.36l0.22,0.1
					c-15.66,5.88-33.69,12.64-52.79,19.81l0,0l0.11-0.24c8.89,23.75,17.16,45.84,24.04,64.23l-0.2-0.09
					c15.91-5.93,29.1-10.84,38.32-14.28c4.62-1.71,8.24-3.05,10.72-3.97c1.23-0.45,2.18-0.8,2.83-1.04
					C105.82,291.98,106.16,291.86,106.16,291.86s-0.31,0.13-0.94,0.37c-0.64,0.24-1.57,0.6-2.79,1.06
					c-2.46,0.93-6.07,2.3-10.66,4.04c-9.23,3.48-22.44,8.46-38.36,14.47l-0.15,0.06l-0.06-0.15c-6.9-18.38-15.19-40.47-24.1-64.21
					l-0.07-0.18l0.18-0.07l0.01,0c19.1-7.15,37.14-13.91,52.8-19.77l0.16-0.06l0.06,0.16c7.14,19.14,13.13,35.21,17.35,46.52
					c2.09,5.63,3.74,10.07,4.87,13.12c0.56,1.51,0.98,2.67,1.28,3.46c0.14,0.38,0.25,0.68,0.32,0.88
					C106.13,291.77,106.16,291.86,106.16,291.86z"/>
			</g>
		</g>
	</g>
	<g>
		<g>
			<g>
				
					<rect x="147.46" y="295.09" transform="matrix(0.992 0.1263 -0.1263 0.992 42.9807 -19.5235)" style="fill:#F5F5F5;" width="55.88" height="67.96"/>
			</g>
			<g>
				
					<rect x="148.56" y="295.16" transform="matrix(0.992 0.1264 -0.1264 0.992 41.906 -19.7339)" style="fill:#3C3D55;" width="55.88" height="50.57"/>
			</g>
			<g>
				<g>
					
						<ellipse transform="matrix(0.992 0.1263 -0.1263 0.992 45.5343 -17.8988)" style="fill:#263238;" cx="163.9" cy="350.08" rx="16.14" ry="0.19"/>
				</g>
			</g>
			<g>
				<g>
					
						<ellipse transform="matrix(0.992 0.1263 -0.1263 0.992 45.7547 -16.6833)" style="fill:#263238;" cx="154.4" cy="352.38" rx="7.01" ry="0.19"/>
				</g>
			</g>
			<g>
				<g>
					<path style="fill:#263238;" d="M198.83,366.31c0,0,0.01-0.11,0.03-0.33c0.03-0.22,0.06-0.54,0.11-0.95
						c0.1-0.84,0.25-2.07,0.45-3.66c0.4-3.2,0.98-7.87,1.71-13.8c1.49-11.84,3.6-28.67,6.12-48.71l0.15,0.19
						c-16.44-2.09-35.38-4.49-55.43-7.04l-0.01,0l0.21-0.16c-3.19,24.93-6.15,48.12-8.62,67.41l-0.14-0.18
						c16.68,2.16,30.52,3.95,40.19,5.2c4.84,0.63,8.64,1.13,11.23,1.47c1.29,0.17,2.28,0.3,2.96,0.4
						C198.47,366.25,198.83,366.31,198.83,366.31s-0.33-0.03-1-0.11c-0.67-0.08-1.66-0.2-2.94-0.36c-2.59-0.32-6.38-0.79-11.21-1.39
						c-9.71-1.22-23.58-2.96-40.31-5.05l-0.16-0.02l0.02-0.16c2.45-19.3,5.39-42.49,8.56-67.42l0.02-0.19l0.19,0.02l0.01,0
						c20.05,2.56,38.99,4.98,55.43,7.08l0.17,0.02l-0.02,0.17c-2.59,20.08-4.77,36.94-6.3,48.8c-0.77,5.9-1.38,10.56-1.79,13.75
						c-0.21,1.58-0.37,2.79-0.48,3.62c-0.06,0.4-0.1,0.71-0.13,0.92C198.85,366.21,198.83,366.31,198.83,366.31z"/>
				</g>
			</g>
		</g>
		<g>
			<g>
				
					<rect x="75.32" y="269.96" transform="matrix(0.9919 -0.127 0.127 0.9919 -37.7508 15.5684)" style="fill:#F5F5F5;" width="55.88" height="67.96"/>
			</g>
			<g>
				
					<rect x="74.21" y="270.03" transform="matrix(0.9919 -0.127 0.127 0.9919 -36.6648 15.3584)" style="fill:#263238;" width="55.88" height="50.57"/>
			</g>
			<g>
				<g>
					
						<ellipse transform="matrix(0.9919 -0.1269 0.1269 0.9919 -40.7458 15.0125)" style="fill:#263238;" cx="97.4" cy="327.17" rx="16.14" ry="0.19"/>
				</g>
			</g>
			<g>
				<g>
					
						<ellipse transform="matrix(0.9919 -0.127 0.127 0.9919 -41.4035 13.9577)" style="fill:#263238;" cx="88.79" cy="331.77" rx="7.02" ry="0.19"/>
				</g>
			</g>
			<g>
				<g>
					<path style="fill:#263238;" d="M135.29,334.1c0,0-0.02-0.11-0.05-0.32c-0.03-0.22-0.07-0.53-0.13-0.94
						c-0.11-0.84-0.27-2.06-0.49-3.65c-0.42-3.2-1.03-7.87-1.81-13.78c-1.53-11.83-3.72-28.66-6.32-48.69l0.19,0.14
						c-16.44,2.11-35.37,4.54-55.42,7.12h-0.01l0.16-0.21c3.18,24.93,6.14,48.12,8.6,67.42l-0.18-0.14
						c16.69-2.1,30.53-3.85,40.21-5.06c4.84-0.6,8.64-1.08,11.24-1.4c1.29-0.16,2.29-0.28,2.97-0.36
						C134.93,334.13,135.29,334.1,135.29,334.1s-0.33,0.05-0.99,0.14c-0.67,0.09-1.65,0.22-2.93,0.39
						c-2.59,0.34-6.38,0.84-11.2,1.47c-9.7,1.26-23.57,3.06-40.29,5.24l-0.16,0.02l-0.02-0.16c-2.48-19.3-5.46-42.48-8.66-67.41
						l-0.02-0.19l0.19-0.02h0.01c20.05-2.56,38.99-4.98,55.43-7.07l0.17-0.02l0.02,0.17c2.54,20.08,4.67,36.95,6.16,48.82
						c0.74,5.91,1.32,10.56,1.72,13.76c0.19,1.58,0.34,2.79,0.44,3.63c0.05,0.4,0.08,0.71,0.11,0.93
						C135.28,334,135.29,334.1,135.29,334.1z"/>
				</g>
			</g>
		</g>
		<g>
			<g>
				
					<rect x="115.22" y="251.16" transform="matrix(0.9734 0.2293 -0.2293 0.9734 69.1972 -25.2309)" style="fill:#F5F5F5;" width="55.89" height="67.96"/>
			</g>
			<g>
				
					<rect x="117.22" y="251.39" transform="matrix(0.9734 0.2293 -0.2293 0.9734 67.3108 -25.9139)" style="fill:#FF4B61;" width="55.88" height="50.57"/>
			</g>
			<g>
				<g>
					
						<ellipse transform="matrix(0.9734 0.2293 -0.2293 0.9734 73.3528 -21.5797)" style="fill:#263238;" cx="129.53" cy="304.84" rx="16.14" ry="0.19"/>
				</g>
			</g>
			<g>
				<g>
					
						<ellipse transform="matrix(0.9734 0.2293 -0.2293 0.9734 73.3837 -19.3245)" style="fill:#263238;" cx="119.85" cy="306.13" rx="7.01" ry="0.19"/>
				</g>
			</g>
			<g>
				<g>
					<path style="fill:#263238;" d="M162.57,324.62c0,0,0.02-0.11,0.07-0.32c0.05-0.22,0.12-0.53,0.21-0.93
						c0.19-0.82,0.47-2.03,0.83-3.59c0.73-3.14,1.79-7.73,3.14-13.54c2.71-11.62,6.58-28.14,11.18-47.81l0.13,0.2
						c-16.14-3.8-34.72-8.17-54.39-12.79l-0.01,0l0.23-0.14c-5.77,24.46-11.14,47.21-15.61,66.14l-0.12-0.19
						c16.37,3.89,29.94,7.12,39.43,9.37c4.75,1.14,8.47,2.03,11.02,2.64c1.27,0.31,2.24,0.54,2.91,0.7
						C162.23,324.53,162.57,324.62,162.57,324.62s-0.33-0.07-0.98-0.21c-0.66-0.15-1.63-0.37-2.88-0.66
						c-2.54-0.59-6.26-1.45-11-2.55c-9.52-2.22-23.14-5.4-39.56-9.24l-0.15-0.04l0.04-0.15c4.45-18.94,9.8-41.7,15.55-66.16
						l0.04-0.18l0.18,0.04l0.01,0c19.68,4.64,38.25,9.03,54.38,12.83l0.17,0.04l-0.04,0.16c-4.68,19.7-8.6,36.24-11.37,47.87
						c-1.38,5.79-2.47,10.35-3.22,13.48c-0.37,1.55-0.66,2.74-0.86,3.55c-0.1,0.39-0.17,0.69-0.22,0.91
						C162.6,324.53,162.57,324.62,162.57,324.62z"/>
				</g>
			</g>
		</g>
	</g>
</g>
<g id="Pallete_1">
	<g>
		<g>
			<g>
				<g>
					<g>
						<path style="fill:#FAFAFA;" d="M177.28,208.08l-33.88-19.36c-3.54-2.02-4.77-6.53-2.75-10.07l73.67-128.97
							c2.02-3.54,6.53-4.77,10.07-2.75l33.88,19.36c3.54,2.02,4.77,6.53,2.75,10.07l-73.68,128.97
							C185.32,208.87,180.82,210.1,177.28,208.08z"/>
					</g>
					<g>
						<g>
							<path style="fill:#263238;" d="M177.28,208.08c0.01-0.02,0.32,0.18,0.99,0.44c0.66,0.26,1.72,0.55,3.12,0.47
								c1.37-0.1,3.14-0.61,4.61-2.04c0.75-0.7,1.3-1.65,1.87-2.69c0.58-1.03,1.21-2.12,1.86-3.28
								c5.28-9.28,12.91-22.68,22.34-39.25c9.45-16.57,20.69-36.29,33.18-58.19c3.13-5.47,6.33-11.08,9.6-16.81
								c1.63-2.86,3.29-5.76,4.96-8.68c0.4-0.73,0.86-1.46,1.23-2.2c0.36-0.74,0.6-1.54,0.69-2.35c0.19-1.64-0.23-3.34-1.15-4.73
								c-0.46-0.69-1.03-1.32-1.71-1.8c-0.67-0.48-1.45-0.88-2.2-1.32c-1.5-0.86-3.01-1.72-4.53-2.58
								c-3.03-1.73-6.08-3.47-9.16-5.23c-6.15-3.51-12.39-7.08-18.71-10.69c-1.54-0.88-3.38-1.16-5.09-0.77
								c-1.71,0.37-3.27,1.4-4.28,2.81c-1.82,3.04-3.56,6.2-5.33,9.25c-3.51,6.15-6.98,12.21-10.38,18.17
								c-6.81,11.91-13.38,23.4-19.63,34.35c-12.52,21.88-23.8,41.59-33.27,58.14c-1.18,2.07-2.34,4.09-3.47,6.06
								c-0.56,0.98-1.12,1.96-1.67,2.91c-0.58,0.95-1.04,1.91-1.21,2.96c-0.38,2.07,0.18,4.23,1.42,5.78
								c1.21,1.61,3.13,2.33,4.73,3.32c6.57,3.77,12.22,7.02,16.85,9.67c4.62,2.66,8.2,4.72,10.64,6.13c1.21,0.7,2.13,1.24,2.76,1.6
								C176.96,207.88,177.28,208.08,177.28,208.08s-0.33-0.17-0.96-0.52c-0.63-0.36-1.57-0.88-2.78-1.56
								c-2.45-1.39-6.05-3.43-10.68-6.05c-4.64-2.64-10.31-5.86-16.89-9.6c-0.82-0.47-1.66-0.94-2.51-1.43
								c-0.86-0.49-1.67-1.14-2.3-1.95c-1.29-1.6-1.89-3.84-1.49-6c0.17-1.08,0.67-2.12,1.24-3.05c0.55-0.96,1.1-1.93,1.66-2.92
								c1.12-1.97,2.27-3.99,3.45-6.06c9.45-16.57,20.69-36.29,33.18-58.19c6.25-10.95,12.81-22.44,19.61-34.36
								c3.4-5.96,6.86-12.02,10.38-18.17c1.78-3.08,3.48-6.18,5.35-9.29c1.08-1.51,2.73-2.6,4.55-2.99
								c1.82-0.41,3.79-0.11,5.42,0.82c6.31,3.61,12.55,7.17,18.71,10.69c3.08,1.76,6.13,3.5,9.16,5.23
								c1.51,0.87,3.02,1.73,4.52,2.58c0.75,0.44,1.51,0.83,2.24,1.35c0.72,0.52,1.33,1.18,1.82,1.92c0.97,1.48,1.41,3.28,1.22,5.02
								c-0.1,0.87-0.35,1.72-0.73,2.5c-0.39,0.78-0.83,1.48-1.24,2.22c-1.67,2.92-3.32,5.82-4.96,8.68
								c-3.28,5.73-6.48,11.33-9.61,16.81c-12.52,21.88-23.79,41.59-33.27,58.14c-9.48,16.54-17.16,29.92-22.46,39.18
								c-0.66,1.16-1.29,2.25-1.88,3.27c-0.57,1.02-1.14,2.01-1.91,2.71c-1.51,1.45-3.31,1.95-4.7,2.04
								c-1.42,0.06-2.48-0.25-3.14-0.52c-0.34-0.12-0.57-0.27-0.74-0.35C177.36,208.13,177.28,208.08,177.28,208.08z"/>
						</g>
					</g>
				</g>
				<g style="opacity:0.2;">
					
						<rect x="205.09" y="64.09" transform="matrix(0.8683 0.496 -0.496 0.8683 68.3419 -103.8902)" style="fill:#3C3D55;" width="49.47" height="25.34"/>
				</g>
				<g style="opacity:0.5;">
					
						<rect x="187.28" y="95.26" transform="matrix(0.8683 0.496 -0.496 0.8683 81.4566 -90.9514)" style="fill:#3C3D55;" width="49.47" height="25.34"/>
				</g>
				<g style="opacity:0.7;">
					
						<rect x="169.48" y="126.43" transform="matrix(0.8683 0.496 -0.496 0.8683 94.5702 -78.0126)" style="fill:#3C3D55;" width="49.47" height="25.34"/>
				</g>
				<g>
					
						<rect x="151.67" y="157.6" transform="matrix(0.8683 0.496 -0.496 0.8683 107.6931 -65.077)" style="fill:#FF725E;" width="49.47" height="25.34"/>
				</g>
				<g>
					
						<rect x="151.67" y="157.6" transform="matrix(0.8683 0.496 -0.496 0.8683 107.6931 -65.077)" style="fill:#3C3D55;" width="49.47" height="25.34"/>
				</g>
			</g>
			<g>
				<g>
					<g>
						<path style="fill:#FAFAFA;" d="M171.84,203.97l-37.56-6.53c-4.26-0.74-7.11-4.79-6.37-9.06l25.3-145.45
							c0.74-4.26,4.79-7.11,9.05-6.37l37.56,6.53c4.26,0.74,7.11,4.79,6.37,9.06L180.9,197.6
							C180.15,201.86,176.1,204.71,171.84,203.97z"/>
					</g>
					<g>
						<g>
							<path style="fill:#263238;" d="M171.84,203.97c0,0,0.09,0,0.27,0.02c0.18,0.01,0.45,0.07,0.81,0.06
								c0.71,0.03,1.8-0.04,3.1-0.55c1.29-0.49,2.79-1.54,3.83-3.29c0.53-0.87,0.87-1.92,1.04-3.09c0.2-1.16,0.41-2.4,0.64-3.71
								c1.81-10.5,4.42-25.67,7.65-44.43c3.25-18.76,7.12-41.09,11.41-65.88c1.07-6.2,2.18-12.55,3.3-19.04
								c0.56-3.24,1.13-6.52,1.71-9.83c0.27-1.66,0.72-3.31,0.32-4.93c-0.33-1.61-1.19-3.13-2.45-4.21c-0.63-0.54-1.33-1-2.11-1.31
								c-0.78-0.32-1.59-0.47-2.46-0.61c-1.7-0.3-3.41-0.59-5.12-0.89c-3.43-0.6-6.89-1.2-10.37-1.8
								c-6.97-1.21-14.03-2.44-21.19-3.68c-1.74-0.3-3.57,0.02-5.09,0.89c-1.52,0.87-2.71,2.28-3.33,3.91
								c-0.33,0.81-0.42,1.69-0.59,2.57c-0.15,0.88-0.31,1.76-0.46,2.64c-0.31,1.75-0.61,3.5-0.91,5.24
								c-1.21,6.97-2.41,13.83-3.58,20.58c-2.35,13.49-4.62,26.51-6.78,38.9c-4.33,24.79-8.23,47.12-11.51,65.87
								c-0.41,2.34-0.81,4.63-1.2,6.86c-0.19,1.12-0.39,2.22-0.58,3.3c-0.21,1.09-0.36,2.14-0.2,3.19c0.28,2.09,1.44,3.97,3.03,5.15
								c0.79,0.59,1.69,1.02,2.62,1.27c0.93,0.23,1.9,0.35,2.82,0.53c7.44,1.31,13.86,2.44,19.1,3.36c5.23,0.93,9.3,1.65,12.07,2.14
								c1.37,0.25,2.42,0.44,3.14,0.57C171.48,203.89,171.84,203.97,171.84,203.97s-0.37-0.05-1.07-0.16
								c-0.72-0.12-1.77-0.29-3.14-0.52c-2.77-0.47-6.84-1.17-12.08-2.06c-5.25-0.9-11.66-2.01-19.11-3.29
								c-0.93-0.18-1.88-0.29-2.85-0.53c-0.96-0.25-1.89-0.69-2.71-1.31c-1.65-1.22-2.86-3.15-3.15-5.33
								c-0.17-1.08-0.02-2.22,0.19-3.28c0.19-1.09,0.38-2.19,0.57-3.3c0.39-2.23,0.78-4.52,1.19-6.86
								c3.25-18.76,7.12-41.09,11.41-65.88c2.15-12.4,4.41-25.41,6.75-38.91c1.17-6.75,2.37-13.61,3.58-20.58
								c0.3-1.74,0.61-3.49,0.91-5.25c0.15-0.88,0.31-1.76,0.46-2.64c0.16-0.87,0.26-1.79,0.61-2.65c0.65-1.73,1.92-3.22,3.53-4.15
								c1.61-0.92,3.55-1.26,5.4-0.95c7.15,1.24,14.22,2.47,21.19,3.69c3.48,0.61,6.94,1.21,10.37,1.81c1.71,0.3,3.42,0.6,5.12,0.89
								c0.84,0.14,1.73,0.3,2.55,0.64c0.82,0.33,1.57,0.81,2.24,1.39c1.34,1.15,2.25,2.75,2.59,4.46c0.19,0.85,0.21,1.74,0.09,2.6
								c-0.11,0.86-0.28,1.67-0.41,2.5c-0.58,3.31-1.15,6.59-1.71,9.83c-1.13,6.49-2.24,12.84-3.32,19.04
								c-4.33,24.79-8.23,47.11-11.51,65.86c-3.29,18.74-5.95,33.91-7.8,44.4c-0.23,1.31-0.45,2.55-0.66,3.71
								c-0.18,1.17-0.54,2.25-1.08,3.13c-1.08,1.78-2.61,2.82-3.92,3.3c-1.32,0.51-2.42,0.56-3.13,0.52c-0.36,0-0.63-0.06-0.81-0.08
								C171.93,203.99,171.84,203.97,171.84,203.97z"/>
						</g>
					</g>
				</g>
				<g style="opacity:0.3;">
					<g>
						
							<rect x="152.33" y="50.01" transform="matrix(0.9852 0.1714 -0.1714 0.9852 13.3622 -29.4176)" style="fill:#6A8BFF;" width="49.47" height="25.34"/>
					</g>
				</g>
				<g style="opacity:0.5;">
					<g>
						
							<rect x="146.18" y="85.38" transform="matrix(0.9852 0.1714 -0.1714 0.9852 19.331 -27.8386)" style="fill:#6A8BFF;" width="49.47" height="25.34"/>
					</g>
				</g>
				<g style="opacity:0.7;">
					<g>
						
							<rect x="140.03" y="120.75" transform="matrix(0.9852 0.1714 -0.1714 0.9852 25.3026 -26.2627)" style="fill:#6A8BFF;" width="49.47" height="25.34"/>
					</g>
				</g>
				<g>
					<g>
						
							<rect x="133.88" y="156.11" transform="matrix(0.9852 0.1714 -0.1714 0.9852 31.2727 -24.6851)" style="fill:#6A8BFF;" width="49.47" height="25.34"/>
					</g>
				</g>
			</g>
			<g>
				<g>
					<g>
						<path style="fill:#FAFAFA;" d="M173.68,200.33l-36.57,8.78c-4.34,1.04-8.71-1.63-9.75-5.97L93,60.09
							c-1.04-4.34,1.63-8.71,5.97-9.75l36.57-8.79c4.34-1.04,8.71,1.63,9.75,5.97l34.36,143.05
							C180.7,194.92,178.02,199.29,173.68,200.33z"/>
					</g>
					<g>
						<g>
							<path style="fill:#263238;" d="M173.68,200.33c0,0,0.09-0.03,0.26-0.09c0.17-0.06,0.44-0.11,0.77-0.26
								c0.66-0.25,1.65-0.73,2.64-1.71c0.99-0.96,2.01-2.46,2.35-4.47c0.44-2.04-0.46-4.32-1.02-6.91
								c-2.5-10.34-6.12-25.3-10.59-43.77c-4.46-18.49-9.76-40.49-15.65-64.93c-1.47-6.11-2.98-12.37-4.52-18.77
								c-0.77-3.2-1.55-6.43-2.33-9.69c-0.42-1.63-0.65-3.32-1.63-4.67c-0.9-1.38-2.28-2.44-3.83-3.02
								c-1.57-0.57-3.3-0.63-4.94-0.17c-1.68,0.4-3.36,0.81-5.05,1.21c-3.38,0.81-6.79,1.63-10.22,2.46
								c-6.87,1.65-13.84,3.32-20.89,5.02c-1.71,0.43-3.28,1.4-4.35,2.8c-1.07,1.38-1.7,3.11-1.67,4.86c0,0.88,0.17,1.72,0.39,2.59
								c0.21,0.87,0.42,1.73,0.62,2.6c0.42,1.73,0.83,3.45,1.24,5.17c1.65,6.87,3.27,13.64,4.87,20.29
								c3.19,13.3,6.27,26.14,9.2,38.36c5.85,24.45,11.13,46.47,15.55,64.96c0.55,2.31,1.09,4.57,1.62,6.77
								c0.26,1.1,0.52,2.19,0.78,3.26c0.24,1.08,0.52,2.11,1.06,3.02c1.05,1.83,2.81,3.14,4.71,3.68c0.95,0.27,1.94,0.36,2.9,0.26
								c0.95-0.09,1.88-0.37,2.8-0.58c7.34-1.75,13.67-3.25,18.85-4.49c5.17-1.22,9.18-2.17,11.91-2.82
								c1.36-0.32,2.39-0.56,3.1-0.72C173.32,200.4,173.68,200.33,173.68,200.33s-0.35,0.1-1.05,0.28
								c-0.71,0.17-1.74,0.43-3.09,0.77c-2.73,0.67-6.74,1.64-11.89,2.9c-5.17,1.25-11.49,2.79-18.83,4.56
								c-0.92,0.21-1.84,0.49-2.84,0.59c-0.99,0.1-2.01,0.01-3-0.26c-1.97-0.55-3.8-1.9-4.89-3.79c-0.56-0.93-0.87-2.03-1.1-3.09
								c-0.26-1.07-0.52-2.16-0.79-3.25c-0.53-2.2-1.08-4.45-1.63-6.76c-4.46-18.49-9.76-40.5-15.65-64.94
								c-2.94-12.22-6.03-25.05-9.23-38.35c-1.6-6.65-3.23-13.42-4.88-20.29c-0.41-1.72-0.83-3.44-1.24-5.17
								c-0.21-0.86-0.42-1.73-0.63-2.6c-0.22-0.85-0.41-1.78-0.41-2.7c-0.03-1.85,0.64-3.68,1.77-5.14c1.13-1.48,2.8-2.51,4.6-2.96
								c7.05-1.69,14.02-3.37,20.89-5.02c3.43-0.82,6.84-1.64,10.22-2.45c1.69-0.41,3.38-0.81,5.05-1.21
								c1.69-0.48,3.55-0.42,5.19,0.18c1.64,0.62,3.1,1.73,4.05,3.19c0.48,0.72,0.86,1.52,1.08,2.36c0.23,0.83,0.4,1.64,0.61,2.46
								c0.78,3.26,1.56,6.5,2.33,9.7c1.53,6.4,3.04,12.66,4.5,18.77c5.85,24.45,11.13,46.46,15.55,64.95
								c4.41,18.49,7.98,33.45,10.45,43.8c0.31,1.29,0.6,2.51,0.87,3.66c0.28,1.16,0.29,2.29,0.12,3.31
								c-0.36,2.05-1.41,3.56-2.42,4.52c-1.02,0.98-2.02,1.44-2.69,1.69C174.05,200.27,173.68,200.33,173.68,200.33z"/>
						</g>
					</g>
				</g>
				<g>
					
						<rect x="97.94" y="55.84" transform="matrix(0.9723 -0.2336 0.2336 0.9723 -12.609 30.5487)" style="fill:#FF725E;" width="49.47" height="25.34"/>
				</g>
				<g>
					
						<rect x="106.33" y="90.74" transform="matrix(0.9723 -0.2336 0.2336 0.9723 -20.5299 33.4724)" style="fill:#FF725E;" width="49.47" height="25.34"/>
				</g>
				<g>
					
						<rect x="114.71" y="125.65" transform="matrix(0.9723 -0.2336 0.2336 0.9723 -28.45 36.3947)" style="fill:#FF725E;" width="49.47" height="25.34"/>
				</g>
				<g>
					
						<rect x="123.1" y="160.56" transform="matrix(0.9723 -0.2336 0.2336 0.9723 -36.3723 39.3206)" style="fill:#FF725E;" width="49.47" height="25.34"/>
				</g>
				<g style="opacity:0.5;">
					
						<rect x="97.94" y="55.84" transform="matrix(0.9723 -0.2336 0.2336 0.9723 -12.609 30.5487)" style="fill:#FFFFFF;" width="49.47" height="25.34"/>
				</g>
				<g style="opacity:0.6;">
					
						<rect x="106.33" y="90.74" transform="matrix(0.9723 -0.2336 0.2336 0.9723 -20.5299 33.4724)" style="fill:#FFFFFF;" width="49.47" height="25.34"/>
				</g>
				<g style="opacity:0.7;">
					
						<rect x="114.71" y="125.65" transform="matrix(0.9723 -0.2336 0.2336 0.9723 -28.45 36.3947)" style="fill:#FFFFFF;" width="49.47" height="25.34"/>
				</g>
				<g style="opacity:0.8;">
					
						<rect x="123.1" y="160.56" transform="matrix(0.9723 -0.2336 0.2336 0.9723 -36.3723 39.3206)" style="fill:#FFFFFF;" width="49.47" height="25.34"/>
				</g>
			</g>
			<g>
				<g>
					<g>
						<path style="fill:#FAFAFA;" d="M173.63,200.34l-31.47,22.61c-3.37,2.42-8.07,1.65-10.49-1.72L45.17,100.81
							c-2.42-3.37-1.65-8.07,1.72-10.49l31.47-22.61c3.37-2.42,8.07-1.65,10.49,1.72l86.49,120.42
							C177.77,193.22,177,197.92,173.63,200.34z"/>
					</g>
					<g>
						<g>
							<path style="fill:#263238;" d="M173.63,200.34c-0.01-0.02,0.3-0.22,0.81-0.72c0.51-0.49,1.22-1.33,1.74-2.63
								c0.5-1.28,0.79-3.1,0.15-5.05c-0.29-0.98-0.9-1.9-1.62-2.85c-0.69-0.96-1.43-1.98-2.21-3.06
								c-6.24-8.65-15.25-21.16-26.39-36.62c-11.13-15.47-24.38-33.89-39.09-54.34c-3.68-5.11-7.45-10.36-11.29-15.71
								c-1.92-2.68-3.87-5.38-5.83-8.12c-0.5-0.67-0.97-1.39-1.49-2.03c-0.52-0.64-1.14-1.19-1.84-1.62
								c-1.41-0.85-3.12-1.22-4.77-1.01c-0.83,0.11-1.63,0.37-2.37,0.75c-0.74,0.37-1.41,0.92-2.12,1.42
								c-1.4,1.01-2.81,2.02-4.23,3.04c-2.83,2.03-5.68,4.08-8.56,6.15c-5.75,4.13-11.58,8.32-17.49,12.56
								c-1.43,1.03-2.47,2.58-2.85,4.3c-0.4,1.71-0.16,3.55,0.68,5.08c0.42,0.75,0.98,1.47,1.49,2.2l1.56,2.18
								c1.04,1.45,2.08,2.89,3.11,4.33c4.13,5.75,8.2,11.42,12.2,16.99c8,11.14,15.71,21.89,23.06,32.12
								c14.69,20.48,27.91,38.92,39.02,54.41c1.39,1.94,2.74,3.83,4.06,5.67c0.66,0.92,1.31,1.83,1.95,2.73
								c0.62,0.92,1.29,1.74,2.17,2.35c1.71,1.23,3.89,1.64,5.83,1.22c1.99-0.36,3.46-1.79,5.02-2.83c6.16-4.4,11.46-8.2,15.79-11.3
								c4.33-3.09,7.7-5.49,9.99-7.12c1.14-0.81,2.01-1.42,2.6-1.84C173.32,200.54,173.63,200.34,173.63,200.34
								s-0.29,0.23-0.87,0.65c-0.59,0.43-1.45,1.06-2.58,1.88c-2.28,1.65-5.63,4.07-9.94,7.19c-4.32,3.12-9.61,6.93-15.75,11.36
								c-0.77,0.55-1.55,1.11-2.35,1.68c-0.81,0.57-1.76,1-2.76,1.21c-2.01,0.44-4.27,0.03-6.06-1.25c-0.9-0.62-1.63-1.51-2.24-2.41
								c-0.64-0.9-1.3-1.8-1.96-2.72c-1.32-1.84-2.68-3.73-4.07-5.66c-11.13-15.47-24.38-33.89-39.1-54.35
								c-7.35-10.23-15.07-20.97-23.08-32.11c-4-5.57-8.07-11.24-12.2-16.99c-1.03-1.44-2.07-2.88-3.11-4.33l-1.56-2.18
								c-0.51-0.73-1.07-1.43-1.53-2.25c-0.9-1.62-1.15-3.58-0.73-5.4c0.41-1.82,1.51-3.47,3.03-4.56
								c5.9-4.24,11.74-8.43,17.49-12.56c2.88-2.06,5.73-4.11,8.56-6.15c1.42-1.02,2.83-2.03,4.23-3.04
								c0.7-0.49,1.38-1.04,2.18-1.45c0.79-0.4,1.64-0.68,2.52-0.79c1.75-0.22,3.56,0.17,5.06,1.08c0.74,0.46,1.4,1.05,1.95,1.72
								c0.54,0.68,1,1.37,1.5,2.05c1.96,2.73,3.9,5.44,5.83,8.12c3.84,5.36,7.61,10.6,11.28,15.72
								c14.68,20.47,27.91,38.91,39.01,54.4c11.09,15.49,20.06,28.03,26.27,36.7c0.77,1.08,1.5,2.11,2.19,3.07
								c0.35,0.48,0.68,0.94,0.97,1.42c0.13,0.25,0.25,0.49,0.37,0.73c0.09,0.25,0.2,0.49,0.28,0.74c0.64,1.99,0.33,3.83-0.19,5.12
								c-0.54,1.31-1.27,2.14-1.79,2.63c-0.25,0.26-0.48,0.41-0.62,0.52C173.7,200.29,173.63,200.34,173.63,200.34z"/>
						</g>
					</g>
				</g>
				<g style="opacity:0.2;">
					
						<rect x="51.43" y="85.19" transform="matrix(0.8122 -0.5834 0.5834 0.8122 -42.7883 62.8127)" style="fill:#FFC527;" width="49.47" height="25.34"/>
				</g>
				<g style="opacity:0.5;">
					
						<rect x="72.37" y="114.35" transform="matrix(0.8122 -0.5834 0.5834 0.8122 -55.8654 80.5063)" style="fill:#FFC527;" width="49.47" height="25.34"/>
				</g>
				<g style="opacity:0.7;">
					
						<rect x="93.32" y="143.51" transform="matrix(0.8122 -0.5834 0.5834 0.8122 -68.9412 98.1972)" style="fill:#FFC527;" width="49.47" height="25.34"/>
				</g>
				<g>
					
						<rect x="114.26" y="172.66" transform="matrix(0.8122 -0.5834 0.5834 0.8122 -82.018 115.8909)" style="fill:#FFC527;" width="49.47" height="25.34"/>
				</g>
			</g>
			<g>
				<path style="fill:#FAFAFA;" d="M174.52,197.03l-20.91,32.99c-2.18,3.44-6.73,4.46-10.16,2.28L17.96,152.77
					c-3.44-2.18-4.46-6.73-2.28-10.16l20.91-32.99c2.18-3.43,6.73-4.46,10.16-2.28l125.49,79.53
					C175.67,189.05,176.69,193.6,174.52,197.03z"/>
			</g>
			<g>
				<path style="fill:#FF4B61;" d="M46.39,107.12c-3.65-2.36-7.8-1.22-9.5,2.13l-21.31,33.62c-2.1,3.31-1.12,7.7,2.2,9.8
					l84.07,53.28c1.41,0.89,3.28,0.48,4.18-0.93l25.66-40.31c0.9-1.42,0.48-3.29-0.94-4.19L46.39,107.12z"/>
			</g>
			<g>
				<g>
					<circle style="fill:#455A64;" cx="165.23" cy="193.58" r="5.95"/>
				</g>
				<g>
					<g>
						<path style="fill:#263238;" d="M170.73,191.3c-0.04,0.02-0.23-0.48-0.8-1.22c-0.56-0.72-1.62-1.69-3.23-2.09
							c-1.57-0.42-3.74-0.12-5.34,1.37c-0.79,0.73-1.42,1.73-1.68,2.88c-0.29,1.14-0.19,2.4,0.28,3.55c0.49,1.14,1.32,2.1,2.33,2.7
							c1,0.62,2.15,0.88,3.23,0.83c2.19-0.08,3.93-1.41,4.74-2.83c0.85-1.43,0.91-2.86,0.79-3.76
							C170.91,191.8,170.68,191.31,170.73,191.3c0.01-0.01,0.07,0.11,0.17,0.34c0.1,0.23,0.22,0.59,0.3,1.06
							c0.18,0.93,0.17,2.42-0.69,3.95c-0.43,0.75-1.06,1.51-1.92,2.07c-0.86,0.56-1.92,0.97-3.08,1.02
							c-1.15,0.07-2.4-0.21-3.48-0.87c-1.09-0.64-1.99-1.67-2.52-2.91c-0.5-1.24-0.61-2.61-0.29-3.83c0.29-1.23,0.97-2.31,1.83-3.08
							c0.85-0.79,1.89-1.25,2.89-1.47c1.01-0.21,1.98-0.13,2.82,0.1c1.69,0.47,2.75,1.52,3.29,2.3c0.28,0.39,0.45,0.73,0.54,0.96
							C170.7,191.17,170.74,191.29,170.73,191.3z"/>
					</g>
				</g>
			</g>
			<g>
				<g>
					<path style="fill:#263238;" d="M174.64,196.83c-0.02-0.01,0.2-0.31,0.48-0.97c0.28-0.65,0.62-1.7,0.57-3.1
						c-0.06-1.38-0.57-3.15-1.99-4.63c-0.69-0.75-1.67-1.29-2.67-1.92c-1-0.63-2.07-1.3-3.2-2.01c-9.03-5.7-22.09-13.95-38.23-24.14
						c-16.13-10.21-35.34-22.36-56.66-35.85c-5.33-3.38-10.79-6.83-16.37-10.37c-2.79-1.77-5.61-3.55-8.46-5.36
						c-0.71-0.44-1.43-0.93-2.14-1.32c-0.72-0.38-1.52-0.64-2.33-0.75c-1.63-0.23-3.35,0.16-4.73,1.09
						c-0.69,0.46-1.3,1.05-1.78,1.73c-0.48,0.68-0.93,1.45-1.4,2.17c-0.93,1.46-1.86,2.93-2.79,4.41c-1.87,2.95-3.75,5.92-5.65,8.92
						c-3.8,5.99-7.65,12.07-11.54,18.22c-0.95,1.49-1.29,3.34-0.94,5.06c0.34,1.72,1.36,3.29,2.79,4.28
						c3.03,1.93,6.04,3.84,9.03,5.75c5.99,3.8,11.89,7.54,17.69,11.22c11.6,7.36,22.79,14.45,33.44,21.21
						c21.31,13.53,40.5,25.71,56.61,35.94c2.01,1.28,3.98,2.53,5.9,3.75c0.96,0.61,1.9,1.21,2.84,1.8c0.92,0.62,1.87,1.11,2.91,1.32
						c2.07,0.46,4.23-0.13,5.78-1.36c0.79-0.61,1.38-1.4,1.89-2.24c0.53-0.83,1.04-1.64,1.55-2.44c4.07-6.39,7.58-11.9,10.44-16.41
						c2.87-4.49,5.1-7.98,6.62-10.36c0.76-1.18,1.34-2.07,1.73-2.69C174.43,197.14,174.64,196.83,174.64,196.83
						s-0.18,0.32-0.56,0.93c-0.39,0.62-0.95,1.52-1.69,2.71c-1.5,2.39-3.71,5.89-6.54,10.4c-2.85,4.52-6.33,10.04-10.38,16.45
						c-0.51,0.8-1.02,1.62-1.54,2.45c-0.5,0.83-1.12,1.68-1.94,2.31c-1.6,1.29-3.86,1.9-6.01,1.43c-1.08-0.21-2.1-0.74-3.01-1.35
						c-0.93-0.59-1.88-1.19-2.84-1.79c-1.92-1.21-3.89-2.46-5.9-3.73c-16.13-10.21-35.34-22.36-56.67-35.86
						c-10.66-6.75-21.85-13.84-33.46-21.19c-5.8-3.68-11.71-7.42-17.7-11.21c-3-1.91-6.01-3.82-9.05-5.76
						c-1.52-1.06-2.62-2.73-2.98-4.56c-0.38-1.83-0.01-3.81,1-5.39c3.9-6.15,7.75-12.23,11.55-18.22c1.9-2.99,3.78-5.97,5.65-8.92
						c0.94-1.47,1.87-2.94,2.79-4.4c0.47-0.73,0.9-1.46,1.41-2.19c0.52-0.72,1.16-1.35,1.9-1.84c1.47-0.99,3.3-1.4,5.04-1.16
						c0.87,0.12,1.71,0.39,2.48,0.8c0.77,0.42,1.44,0.9,2.17,1.34c2.85,1.8,5.66,3.59,8.45,5.36c5.58,3.54,11.04,7,16.37,10.38
						c21.3,13.52,40.49,25.7,56.61,35.94c16.1,10.24,29.13,18.53,38.15,24.26c1.13,0.72,2.19,1.39,3.19,2.03
						c0.99,0.64,1.98,1.19,2.68,1.96c1.44,1.52,1.94,3.33,1.99,4.72c0.03,1.42-0.33,2.47-0.62,3.12c-0.14,0.33-0.29,0.56-0.38,0.72
						C174.7,196.76,174.64,196.83,174.64,196.83z"/>
				</g>
			</g>
		</g>
		<g>
			<path style="fill:#263238;" d="M116,208.97c-1.51-0.96-1.85-2.8-0.87-4.36c0.55-0.87,1.32-1.39,2.19-1.5l0.21,1.18
				c-0.6,0.09-1.07,0.39-1.38,0.89c-0.59,0.94-0.36,2.02,0.59,2.62c0.94,0.6,2.02,0.35,2.62-0.59c0.32-0.5,0.38-1.05,0.2-1.63
				l1.16-0.31c0.28,0.84,0.14,1.76-0.42,2.63C119.33,209.45,117.51,209.92,116,208.97z"/>
			<path style="fill:#263238;" d="M119.26,203.83c-1.49-0.94-1.85-2.8-0.85-4.38c1-1.57,2.83-2.05,4.33-1.1
				c1.5,0.95,1.85,2.81,0.85,4.38C122.58,204.31,120.74,204.77,119.26,203.83z M121.99,199.52c-0.95-0.6-2.03-0.34-2.6,0.55
				c-0.57,0.89-0.34,1.98,0.61,2.58s2.03,0.34,2.6-0.55C123.16,201.21,122.94,200.13,121.99,199.52z"/>
			<path style="fill:#263238;" d="M120.78,195.89l0.73-1.16l4.06,2.58l1.59-2.51l0.94,0.6l-2.33,3.67L120.78,195.89z"/>
			<path style="fill:#263238;" d="M125.77,193.56c-1.49-0.94-1.85-2.8-0.85-4.38c1-1.57,2.83-2.05,4.33-1.1
				c1.5,0.95,1.85,2.81,0.85,4.38C129.09,194.04,127.26,194.5,125.77,193.56z M128.5,189.25c-0.95-0.6-2.03-0.34-2.59,0.55
				c-0.57,0.89-0.34,1.98,0.61,2.58s2.03,0.34,2.6-0.55C129.68,190.94,129.45,189.85,128.5,189.25z"/>
			<path style="fill:#263238;" d="M134.32,185.6l-2.01,0.08l-0.04,0.06l-0.64,1.01l1.4,0.88l-0.73,1.16l-5.01-3.17l1.37-2.17
				c0.85-1.34,2.07-1.74,3.2-1.02c0.75,0.48,1.06,1.2,0.93,2.03l2.32-0.1L134.32,185.6z M129.57,184.11l-0.6,0.94l1.75,1.11
				l0.6-0.94c0.45-0.71,0.35-1.27-0.2-1.62C130.57,183.25,130.02,183.4,129.57,184.11z"/>
		</g>
		<g>
			<g>
				
					<ellipse transform="matrix(0.4979 -0.8672 0.8672 0.4979 -117.8507 211.806)" style="fill:#263238;" cx="123.99" cy="207.68" rx="4.91" ry="0.23"/>
			</g>
		</g>
	</g>
</g>
</svg>
