<?xml version="1.0" encoding="utf-8"?>
<!-- Generator: Adobe Illustrator 16.0.0, SVG Export Plug-In . SVG Version: 6.00 Build 0)  -->
<!DOCTYPE svg PUBLIC "-//W3C//DTD SVG 1.1//EN" "http://www.w3.org/Graphics/SVG/1.1/DTD/svg11.dtd">
<svg version="1.1" id="Capa_1" xmlns="http://www.w3.org/2000/svg" xmlns:xlink="http://www.w3.org/1999/xlink" x="0px" y="0px"
	 width="483px" height="437px" viewBox="0 0 483 437" enable-background="new 0 0 483 437" xml:space="preserve">
<pattern  x="-152" y="470" width="35.333" height="35.333" patternUnits="userSpaceOnUse" id="Unnamed_Pattern_10" viewBox="0 -35.333 35.333 35.333" overflow="visible">
	<g>
		<polygon fill="none" points="0,-35.333 35.333,-35.333 35.333,0 0,0 		"/>
		<polygon fill="#474797" points="35.333,-35.333 0,-35.333 0,0 35.333,0 		"/>
	</g>
</pattern>
<pattern  x="-152" y="470" width="35.333" height="35.333" patternUnits="userSpaceOnUse" id="Unnamed_Pattern_13" viewBox="0 -35.333 35.333 35.333" overflow="visible">
	<g>
		<polygon fill="none" points="0,-35.333 35.333,-35.333 35.333,0 0,0 		"/>
		<polygon fill="#474797" points="35.333,-35.333 0,-35.333 0,0 35.333,0 		"/>
	</g>
</pattern>
<pattern  x="-152" y="470" width="35.333" height="35.333" patternUnits="userSpaceOnUse" id="Unnamed_Pattern_16" viewBox="0 -35.333 35.333 35.333" overflow="visible">
	<g>
		<polygon fill="none" points="0,-35.333 35.333,-35.333 35.333,0 0,0 		"/>
		<polygon fill="#474797" points="35.333,-35.333 0,-35.333 0,0 35.333,0 		"/>
	</g>
</pattern>
<pattern  x="-152" y="470" width="300" height="300" patternUnits="userSpaceOnUse" id="Unnamed_Pattern_2" viewBox="0 -300 300 300" overflow="visible">
	<g>
		<polygon fill="none" points="0,-300 300,-300 300,0 0,0 		"/>
		<path fill="#1C1556" d="M150-100.047c-27.588,0-49.953-22.365-49.953-49.953c0-27.589,22.365-49.953,49.953-49.953
			c27.589,0,49.953,22.364,49.953,49.953C199.953-122.412,177.589-100.047,150-100.047"/>
		<path fill="#1C1556" d="M49.953,0H0v-49.953C27.588-49.953,49.953-27.588,49.953,0"/>
		<path fill="#1C1556" d="M0-250.047V-300h49.953C49.953-272.412,27.588-250.047,0-250.047"/>
		<path fill="#1C1556" d="M300-49.953V0h-49.953C250.047-27.589,272.412-49.953,300-49.953"/>
		<path fill="#1C1556" d="M300-250.047c-27.588,0-49.953-22.365-49.953-49.953H300V-250.047z"/>
	</g>
</pattern>
<pattern  x="-152" y="470" width="35.333" height="35.333" patternUnits="userSpaceOnUse" id="Unnamed_Pattern_20" viewBox="0 -35.333 35.333 35.333" overflow="visible">
	<g>
		<polygon fill="none" points="0,-35.333 35.333,-35.333 35.333,0 0,0 		"/>
		<polygon fill="#A5A3D6" points="35.333,-35.333 0,-35.333 0,0 35.333,0 		"/>
	</g>
</pattern>
<pattern  x="-152" y="470" width="35.333" height="35.333" patternUnits="userSpaceOnUse" id="Unnamed_Pattern_21" viewBox="0 -35.333 35.333 35.333" overflow="visible">
	<g>
		<polygon fill="none" points="0,-35.333 35.333,-35.333 35.333,0 0,0 		"/>
		<polygon fill="#A5A3D6" points="35.333,-35.333 0,-35.333 0,0 35.333,0 		"/>
	</g>
</pattern>
<pattern  x="-152" y="470" width="35.333" height="35.333" patternUnits="userSpaceOnUse" id="Unnamed_Pattern_22" viewBox="0 -35.333 35.333 35.333" overflow="visible">
	<g>
		<polygon fill="none" points="0,-35.333 35.333,-35.333 35.333,0 0,0 		"/>
		<polygon fill="#A5A3D6" points="35.333,-35.333 0,-35.333 0,0 35.333,0 		"/>
	</g>
</pattern>
<pattern  x="-152" y="470" width="35.333" height="35.333" patternUnits="userSpaceOnUse" id="Unnamed_Pattern_23" viewBox="0 -35.333 35.333 35.333" overflow="visible">
	<g>
		<polygon fill="none" points="0,-35.333 35.333,-35.333 35.333,0 0,0 		"/>
		<polygon fill="#A5A3D6" points="35.333,-35.333 0,-35.333 0,0 35.333,0 		"/>
	</g>
</pattern>
<pattern  x="-152" y="470" width="35.333" height="35.333" patternUnits="userSpaceOnUse" id="Unnamed_Pattern_25" viewBox="0 -35.333 35.333 35.333" overflow="visible">
	<g>
		<polygon fill="none" points="0,-35.333 35.333,-35.333 35.333,0 0,0 		"/>
		<polygon fill="#474797" points="35.333,-35.333 0,-35.333 0,0 35.333,0 		"/>
	</g>
</pattern>
<pattern  x="-152" y="470" width="35.333" height="35.333" patternUnits="userSpaceOnUse" id="Unnamed_Pattern_26" viewBox="0 -35.333 35.333 35.333" overflow="visible">
	<g>
		<polygon fill="none" points="0,-35.333 35.333,-35.333 35.333,0 0,0 		"/>
		<polygon fill="#474797" points="35.333,-35.333 0,-35.333 0,0 35.333,0 		"/>
	</g>
</pattern>
<pattern  x="-152" y="470" width="35.333" height="35.333" patternUnits="userSpaceOnUse" id="Unnamed_Pattern_27" viewBox="0 -35.333 35.333 35.333" overflow="visible">
	<g>
		<polygon fill="none" points="0,-35.333 35.333,-35.333 35.333,0 0,0 		"/>
		<polygon fill="#474797" points="35.333,-35.333 0,-35.333 0,0 35.333,0 		"/>
	</g>
</pattern>
<pattern  x="-152" y="470" width="300" height="300" patternUnits="userSpaceOnUse" id="Unnamed_Pattern_3" viewBox="0 -300 300 300" overflow="visible">
	<g>
		<polygon fill="none" points="0,-300 300,-300 300,0 0,0 		"/>
		<path fill="#1C1556" d="M150-100.047c-27.588,0-49.953-22.365-49.953-49.953c0-27.589,22.365-49.953,49.953-49.953
			c27.589,0,49.953,22.364,49.953,49.953C199.953-122.412,177.589-100.047,150-100.047"/>
		<path fill="#1C1556" d="M49.953,0H0v-49.953C27.588-49.953,49.953-27.588,49.953,0"/>
		<path fill="#1C1556" d="M0-250.047V-300h49.953C49.953-272.412,27.588-250.047,0-250.047"/>
		<path fill="#1C1556" d="M300-49.953V0h-49.953C250.047-27.589,272.412-49.953,300-49.953"/>
		<path fill="#1C1556" d="M300-250.047c-27.588,0-49.953-22.365-49.953-49.953H300V-250.047z"/>
	</g>
</pattern>
<pattern  x="-152" y="470" width="35.333" height="35.333" patternUnits="userSpaceOnUse" id="Unnamed_Pattern_30" viewBox="0 -35.333 35.333 35.333" overflow="visible">
	<g>
		<polygon fill="none" points="0,-35.333 35.333,-35.333 35.333,0 0,0 		"/>
		<polygon fill="#474797" points="35.333,-35.333 0,-35.333 0,0 35.333,0 		"/>
	</g>
</pattern>
<pattern  x="-152" y="470" width="35.333" height="35.333" patternUnits="userSpaceOnUse" id="Unnamed_Pattern_31" viewBox="0 -35.333 35.333 35.333" overflow="visible">
	<g>
		<polygon fill="none" points="0,-35.333 35.333,-35.333 35.333,0 0,0 		"/>
		<polygon fill="#A5A3D6" points="35.333,-35.333 0,-35.333 0,0 35.333,0 		"/>
	</g>
</pattern>
<pattern  x="-152" y="470" width="35.333" height="35.333" patternUnits="userSpaceOnUse" id="Unnamed_Pattern_34" viewBox="0 -35.333 35.333 35.333" overflow="visible">
	<g>
		<polygon fill="none" points="0,-35.333 35.333,-35.333 35.333,0 0,0 		"/>
		<polygon fill="#A5A3D6" points="35.333,-35.333 0,-35.333 0,0 35.333,0 		"/>
	</g>
</pattern>
<pattern  x="-152" y="470" width="35.333" height="35.333" patternUnits="userSpaceOnUse" id="Unnamed_Pattern_35" viewBox="0 -35.333 35.333 35.333" overflow="visible">
	<g>
		<polygon fill="none" points="0,-35.333 35.333,-35.333 35.333,0 0,0 		"/>
		<polygon fill="#A5A3D6" points="35.333,-35.333 0,-35.333 0,0 35.333,0 		"/>
	</g>
</pattern>
<pattern  x="-152" y="470" width="35.333" height="35.333" patternUnits="userSpaceOnUse" id="Unnamed_Pattern_36" viewBox="0 -35.333 35.333 35.333" overflow="visible">
	<g>
		<polygon fill="none" points="0,-35.333 35.333,-35.333 35.333,0 0,0 		"/>
		<polygon fill="#A5A3D6" points="35.333,-35.333 0,-35.333 0,0 35.333,0 		"/>
	</g>
</pattern>
<pattern  x="-152" y="470" width="35.333" height="35.333" patternUnits="userSpaceOnUse" id="Unnamed_Pattern_37" viewBox="0 -35.333 35.333 35.333" overflow="visible">
	<g>
		<polygon fill="none" points="0,-35.333 35.333,-35.333 35.333,0 0,0 		"/>
		<polygon fill="#A5A3D6" points="35.333,-35.333 0,-35.333 0,0 35.333,0 		"/>
	</g>
</pattern>
<pattern  x="-152" y="470" width="35.333" height="35.333" patternUnits="userSpaceOnUse" id="Unnamed_Pattern_39" viewBox="0 -35.333 35.333 35.333" overflow="visible">
	<g>
		<polygon fill="none" points="0,-35.333 35.333,-35.333 35.333,0 0,0 		"/>
		<polygon fill="#474797" points="35.333,-35.333 0,-35.333 0,0 35.333,0 		"/>
	</g>
</pattern>
<pattern  x="-152" y="470" width="35.333" height="35.333" patternUnits="userSpaceOnUse" id="Unnamed_Pattern_4" viewBox="0 -35.333 35.333 35.333" overflow="visible">
	<g>
		<polygon fill="none" points="0,-35.333 35.333,-35.333 35.333,0 0,0 		"/>
		<polygon fill="#474797" points="35.333,-35.333 0,-35.333 0,0 35.333,0 		"/>
	</g>
</pattern>
<pattern  x="-152" y="470" width="35.333" height="35.333" patternUnits="userSpaceOnUse" id="Unnamed_Pattern_42" viewBox="0 -35.333 35.333 35.333" overflow="visible">
	<g>
		<polygon fill="none" points="0,-35.333 35.333,-35.333 35.333,0 0,0 		"/>
		<polygon fill="#474797" points="35.333,-35.333 0,-35.333 0,0 35.333,0 		"/>
	</g>
</pattern>
<pattern  x="-152" y="470" width="35.333" height="35.333" patternUnits="userSpaceOnUse" id="Unnamed_Pattern_45" viewBox="0 -35.333 35.333 35.333" overflow="visible">
	<g>
		<polygon fill="none" points="0,-35.333 35.333,-35.333 35.333,0 0,0 		"/>
		<polygon fill="#474797" points="35.333,-35.333 0,-35.333 0,0 35.333,0 		"/>
	</g>
</pattern>
<pattern  x="-152" y="470" width="32.565" height="32.565" patternUnits="userSpaceOnUse" id="Unnamed_Pattern_47" viewBox="0 -32.566 32.565 32.565" overflow="visible">
	<g>
		<polygon fill="none" points="0,-32.566 32.565,-32.566 32.565,-0.001 0,-0.001 		"/>
		<polygon fill="#67C4B2" points="32.566,-32.566 0.001,-32.566 0.001,0 32.566,0 		"/>
	</g>
</pattern>
<pattern  x="-152" y="470" width="35.333" height="35.333" patternUnits="userSpaceOnUse" id="Unnamed_Pattern_49" viewBox="0 -35.333 35.333 35.333" overflow="visible">
	<g>
		<polygon fill="none" points="0,-35.333 35.333,-35.333 35.333,0 0,0 		"/>
		<polygon fill="#A5A3D6" points="35.333,-35.333 0,-35.333 0,0 35.333,0 		"/>
	</g>
</pattern>
<pattern  x="-152" y="470" width="300" height="300" patternUnits="userSpaceOnUse" id="Unnamed_Pattern_5" viewBox="0 -300 300 300" overflow="visible">
	<g>
		<polygon fill="none" points="0,-300 300,-300 300,0 0,0 		"/>
		<path fill="#1C1556" d="M150-100.047c-27.588,0-49.953-22.365-49.953-49.953c0-27.589,22.365-49.953,49.953-49.953
			c27.589,0,49.953,22.364,49.953,49.953C199.953-122.412,177.589-100.047,150-100.047"/>
		<path fill="#1C1556" d="M49.953,0H0v-49.953C27.588-49.953,49.953-27.588,49.953,0"/>
		<path fill="#1C1556" d="M0-250.047V-300h49.953C49.953-272.412,27.588-250.047,0-250.047"/>
		<path fill="#1C1556" d="M300-49.953V0h-49.953C250.047-27.589,272.412-49.953,300-49.953"/>
		<path fill="#1C1556" d="M300-250.047c-27.588,0-49.953-22.365-49.953-49.953H300V-250.047z"/>
	</g>
</pattern>
<pattern  x="-152" y="470" width="35.333" height="35.333" patternUnits="userSpaceOnUse" id="Unnamed_Pattern_50" viewBox="0 -35.333 35.333 35.333" overflow="visible">
	<g>
		<polygon fill="none" points="0,-35.333 35.333,-35.333 35.333,0 0,0 		"/>
		<polygon fill="#A5A3D6" points="35.333,-35.333 0,-35.333 0,0 35.333,0 		"/>
	</g>
</pattern>
<pattern  x="-152" y="470" width="35.333" height="35.333" patternUnits="userSpaceOnUse" id="Unnamed_Pattern_7" viewBox="0 -35.333 35.333 35.333" overflow="visible">
	<g>
		<polygon fill="none" points="0,-35.333 35.333,-35.333 35.333,0 0,0 		"/>
		<polygon fill="#474797" points="35.333,-35.333 0,-35.333 0,0 35.333,0 		"/>
	</g>
</pattern>
<pattern  x="-152" y="470" width="35.333" height="35.333" patternUnits="userSpaceOnUse" id="Unnamed_Pattern_8" viewBox="0 -35.333 35.333 35.333" overflow="visible">
	<g>
		<polygon fill="none" points="0,-35.333 35.333,-35.333 35.333,0 0,0 		"/>
		<polygon fill="#474797" points="35.333,-35.333 0,-35.333 0,0 35.333,0 		"/>
	</g>
</pattern>
<pattern  id="SVGID_1_" xlink:href="#Unnamed_Pattern_2" patternTransform="matrix(-0.0239 0 0 0.0239 -7820.103 -8633.2002)">
</pattern>
<path fill="url(#SVGID_1_)" d="M29.335,281.889c0-5.62,4.556-10.177,10.176-10.177c5.621,0,10.177,4.557,10.177,10.177
	s-4.556,10.176-10.177,10.176C33.892,292.064,29.335,287.509,29.335,281.889"/>
<pattern  id="SVGID_2_" xlink:href="#Unnamed_Pattern_3" patternTransform="matrix(-0.0239 0 0 0.0239 -7798.2529 -8596.792)">
</pattern>
<path fill="url(#SVGID_2_)" d="M132.513,224.925c0,24.52-19.877,44.396-44.396,44.396c-24.52,0-44.397-19.877-44.397-44.396
	c0-24.52,19.877-44.396,44.397-44.396C112.636,180.529,132.513,200.405,132.513,224.925"/>
<g>
	<pattern  id="SVGID_3_" xlink:href="#Unnamed_Pattern_34" patternTransform="matrix(1.267 0 0 -0.9943 2050.5469 -645.3154)">
	</pattern>
	<rect x="24.662" y="217.478" fill="url(#SVGID_3_)" width="79.197" height="16.406"/>
	<pattern  id="SVGID_4_" xlink:href="#Unnamed_Pattern_35" patternTransform="matrix(1.267 0 0 -1.1666 2049.6572 614.5371)">
	</pattern>
	<polygon fill="url(#SVGID_4_)" points="45.915,233.748 43.695,247.736 16.32,409.2 8.487,409.2 30.096,247.736 31.852,233.748 	"/>
	<pattern  id="SVGID_5_" xlink:href="#Unnamed_Pattern_36" patternTransform="matrix(-1.267 0 0 -1.1666 -17340.168 614.5371)">
	</pattern>
	<polygon fill="url(#SVGID_5_)" points="120.042,409.2 112.198,409.2 84.823,247.736 82.603,233.748 96.667,233.748 98.422,247.736 
			"/>
	<pattern  id="SVGID_6_" xlink:href="#Unnamed_Pattern_37" patternTransform="matrix(-1.267 0 0 -1.1666 -17340.168 603.4863)">
	</pattern>
	<rect x="19.463" y="354.726" fill="url(#SVGID_6_)" width="87.358" height="4.923"/>
	<polygon fill="#100E3A" points="30.096,246.993 43.695,246.993 45.915,233.748 31.852,233.748 	"/>
	<polygon fill="#100E3A" points="98.422,246.993 84.823,246.993 82.603,233.748 96.667,233.748 	"/>
	<path fill="#6A8BFF" d="M77.814,133.872c-13.804,13.514-16.121,34.42-13.212,52.733c0.076,0.415,0.718,0.302,0.718-0.088
		c0-4.169-0.126-8.3-0.113-12.418c0.075-0.189,0.138-0.366,0.214-0.555c3.602-2.619,6.914-5.579,8.967-9.634
		c2.305-4.534,3.212-9.648,4.975-14.383c0.163-0.453-0.32-0.32-0.636-0.087c-8.396,6.193-11.073,12.857-13.482,21.762
		c0.113-4.622,0.465-9.245,1.461-13.867c1.813-8.45,5.402-16.826,11.473-23.098C78.406,133.998,78.053,133.633,77.814,133.872"/>
	<pattern  id="SVGID_7_" xlink:href="#Unnamed_Pattern_39" patternTransform="matrix(-0.8659 0 0 -0.8659 -14261.0313 -1703.4272)">
	</pattern>
	<path fill="url(#SVGID_7_)" d="M80.408,135.447c2.375,0.081,3.863,3.876,5.714,4.983c0.979,0.59,1.932,0.554,2.62-0.412
		c1.834-2.559-0.682-5.717-3.047-7.483c1.692,0.695,3.095,1.918,4.919,2.265c1.106,0.202,1.964-0.207,2.222-1.331
		c0.804-3.489-3.573-5.042-6.576-5.115c1.456-1.012,5.628-3.763,3.412-5.116c-2.247-1.358-7.143,2.575-8.741,3.871
		c-2.347,1.905-5.147,4.751-5.252,7.73C75.541,138.316,78.581,136.176,80.408,135.447"/>
	<path fill="#6A8BFF" d="M79.721,136.033c3.036-1.38,8.869,0.606,9.365-0.543c1.005-2.339-3.656-3.943-6.172-4.254
		c2.318-0.628,6.757-1.628,6.62-3.862c-0.166-2.729-6.809-0.383-10.171,2.196c-4.236,3.248-4.208,6.381-3.508,7.009
		C76.815,137.44,79.22,136.261,79.721,136.033"/>
	<path fill="#6A8BFF" d="M50.328,134.4c14.308,12.979,17.418,33.782,15.208,52.192c-0.06,0.418-0.706,0.329-0.721-0.061
		c-0.158-4.166-0.19-8.298-0.359-12.413c-0.083-0.186-0.152-0.36-0.235-0.546c-3.699-2.481-7.122-5.312-9.328-9.287
		c-2.475-4.443-3.575-9.518-5.518-14.183c-0.18-0.447,0.307-0.332,0.633-0.11c8.626,5.868,11.553,12.426,14.3,21.233
		c-0.289-4.615-0.817-9.22-1.987-13.801c-2.134-8.376-6.039-16.608-12.344-22.645C49.742,134.548,50.08,134.17,50.328,134.4"/>
	
		<pattern  id="SVGID_8_" xlink:href="#Unnamed_Pattern_42" patternTransform="matrix(0.8653 -0.0329 -0.0329 -0.8653 -666.2993 -1940.5586)">
	</pattern>
	<path fill="url(#SVGID_8_)" d="M47.795,136.073c-2.37,0.17-3.713,4.02-5.521,5.197c-0.955,0.626-1.909,0.626-2.634-0.312
		c-1.93-2.488,0.465-5.739,2.761-7.594c-1.664,0.759-3.02,2.035-4.829,2.45c-1.097,0.244-1.97-0.132-2.271-1.244
		c-0.936-3.457,3.379-5.175,6.377-5.362c-1.493-0.956-5.768-3.547-3.604-4.984c2.193-1.442,7.236,2.303,8.881,3.537
		c2.418,1.813,5.324,4.551,5.543,7.524C52.769,138.755,49.649,136.732,47.795,136.073"/>
	<path fill="#6A8BFF" d="M48.504,136.632c-3.086-1.264-8.839,0.943-9.379-0.187c-1.094-2.298,3.503-4.079,6.005-4.485
		c-2.339-0.539-6.813-1.37-6.762-3.608c0.063-2.733,6.79-0.641,10.248,1.807c4.356,3.085,4.448,6.218,3.772,6.871
		C51.461,137.927,49.013,136.84,48.504,136.632"/>
	<path fill="#6A8BFF" d="M59.146,168.678c1.057,6.84,2.366,13.913,4.442,20.522c0.199,0.602,1.093,0.448,1-0.202
		c-0.94-6.324-2.652-12.531-3.592-18.855c-0.955-6.399-1.466-12.887-1.1-19.359c0.603-10.656,3.497-21.992,10.451-30.331
		c0.153-0.197-0.172-0.477-0.329-0.293c-13.922,16.233-11.707,36.136-11.695,37.919c-1.97-6.72-4.002-14.423-11.457-21.266
		c-0.322-0.296-0.573-0.155-0.519,0.346c1.333,12.465,4.799,18.973,12.025,25.637C58.577,164.771,58.832,166.737,59.146,168.678"/>
	
		<pattern  id="SVGID_9_" xlink:href="#Unnamed_Pattern_45" patternTransform="matrix(-0.8644 0.0513 -0.0513 -0.8644 -13825.0703 -1348.5522)">
	</pattern>
	<path fill="url(#SVGID_9_)" d="M70.473,122.321c2.504-1.112,5.959,2.077,8.437,2.294c1.313,0.119,2.283-0.398,2.512-1.746
		c0.614-3.58-3.586-5.589-6.93-6.231c2.106-0.13,4.177,0.433,6.244-0.126c1.249-0.346,1.934-1.203,1.636-2.499
		c-0.923-4.025-6.246-3.433-9.399-1.997c1.002-1.783,3.946-6.738,0.965-7.026c-3.014-0.278-6.114,6.268-7.119,8.416
		c-1.477,3.158-2.949,7.52-1.559,10.665C66.868,127.748,68.944,123.997,70.473,122.321"/>
	<path fill="#6A8BFF" d="M70.054,123.274c2.456-2.96,9.507-3.835,9.443-5.277c-0.134-2.933-5.777-2.252-8.544-1.308
		c2.088-1.818,6.191-5.09,4.925-7.339c-1.547-2.748-7.258,3.03-9.449,7.398c-2.76,5.503-1.154,8.74-0.111,9.039
		C67.748,126.196,69.649,123.763,70.054,123.274"/>
	<path fill="#FF4B61" d="M51.849,170.564l-6.14,46.914h37.364c-0.77-4.157-7.724-46.968-7.724-46.968L51.849,170.564z"/>
</g>
<g>
	<rect x="396.139" y="72.145" fill="#FFFFFF" width="79.357" height="100.786"/>
	<rect x="396.139" y="72.145" fill="none" stroke="#D7D7FA" stroke-miterlimit="10" width="79.357" height="100.786"/>
	<rect x="404.295" y="79.881" fill="#FFFFFF" width="63.047" height="85.314"/>
	<rect x="404.295" y="79.881" fill="none" stroke="#D7D7FA" stroke-miterlimit="10" width="63.047" height="85.314"/>
	<rect x="412.902" y="97.775" fill="#FFC527" width="21.807" height="41.255"/>
	<path fill="#FF4B61" d="M458.734,135.792c0,8.628-6.996,15.623-15.623,15.623c-8.629,0-15.625-6.995-15.625-15.623
		s6.996-15.623,15.625-15.623C451.738,120.169,458.734,127.164,458.734,135.792"/>
	
		<pattern  id="SVGID_10_" xlink:href="#Unnamed_Pattern_4" patternTransform="matrix(-1.5061 -0.0854 -0.0728 1.2837 -18564.0273 -19281.418)">
	</pattern>
	<polygon fill="url(#SVGID_10_)" points="438.223,153.305 423.807,153.305 431.016,141.347 	"/>
	<pattern  id="SVGID_11_" xlink:href="#Unnamed_Pattern_5" patternTransform="matrix(0 -0.0239 -0.0239 0 -7721.3477 -8993.5088)">
	</pattern>
	<rect x="431.215" y="89.762" fill="url(#SVGID_11_)" width="21.299" height="21.299"/>
</g>
<path fill="#6A8BFF" d="M157.267,125.359c0,9.24-5.647,16.88-12.966,18.06c-1.164,4.34-1.311,24.82-1.419,28.1
	c-0.107,3.27,3.239,7.13,0,7.13c-3.238,0-2.114-2.91-1.445-7.13c0.629-3.94,0.857-24.78-0.843-27.62
	c-0.401,0.24-0.669,0.58-0.749,0.98c-1.057,5.37-4.308,9.28-8.176,9.28c-4.71,0-8.523-5.82-8.523-13c0-4.69,1.632-8.8,4.067-11.09
	c0.348-0.32,0.522-0.72,0.455-1.14c-0.187-1.15-0.28-2.35-0.28-3.57c0-2.26,0.334-4.43,0.963-6.43c0.161-0.54-0.067-1.09-0.589-1.48
	c-1.311-0.97-2.167-2.6-2.167-4.44c0-2.98,2.247-5.4,5.017-5.4c1.084,0,2.074,0.37,2.89,0.99c0.71,0.54,1.86,0.6,2.677,0.15
	c1.873-1.04,3.947-1.61,6.141-1.61h0.027c1.071,0,1.954-0.57,2.087-1.36c0.643-3.63,3.145-6.34,6.143-6.34
	c3.479,0,6.302,3.66,6.302,8.17c0,0.4-0.027,0.79-0.067,1.17c3.238,0.11,5.807,2.93,5.807,6.38c0,2.87-1.793,5.29-4.255,6.09
	c-0.803,0.26-1.325,0.87-1.244,1.52C157.212,123.62,157.267,124.479,157.267,125.359"/>
<pattern  id="SVGID_12_" xlink:href="#Unnamed_Pattern_7" patternTransform="matrix(-0.8767 -0.0535 -0.0424 0.804 -14009.9678 -15242.9365)">
</pattern>
<path fill="url(#SVGID_12_)" d="M122.603,123.008c-1.318,0.274-1.333,2.833,0,3.25S124.603,122.591,122.603,123.008"/>
<pattern  id="SVGID_13_" xlink:href="#Unnamed_Pattern_8" patternTransform="matrix(-0.8767 -0.0535 -0.0424 0.804 -14009.9678 -15242.9365)">
</pattern>
<path fill="url(#SVGID_13_)" d="M146.444,165.841c-2.427,0.529-1.175,5.5,1.159,5.25
	C149.936,170.841,149.119,165.258,146.444,165.841"/>
<path fill="#FFC527" d="M224.105,297.488c-1.801-1.401-0.852-6.093,2.127-5.305C229.197,292.959,225.907,298.902,224.105,297.488"/>
<path fill="#FFC527" d="M265.338,291.163c3.143-0.682,7.355,4.585,3.814,7.092C265.635,300.76,262.184,291.834,265.338,291.163"/>
<path fill="#FFC527" d="M231.387,293.61c-1.877,0.5-2.777-3.266-1.25-3.629C232.162,289.519,233.264,293.109,231.387,293.61"/>
<path fill="#FFC527" d="M259.406,314.443c-1.877,0.5-2.777-3.266-1.251-3.628C260.182,310.353,261.281,313.942,259.406,314.443"/>
<path fill="#FF4B61" d="M138.145,413.2c-3.79,0-7.38-0.154-10.583-0.431c-1.558,1.094-5.425,1.878-9.954,1.878
	c-5.899,0-10.671-1.325-10.671-2.949c0-1.237,2.75-2.298,6.661-2.729c-0.022-0.077-0.033-0.144-0.033-0.221
	c0-2.464,11.003-4.464,24.58-4.464c1.292,0,2.552,0.022,3.789,0.056c1.503-0.574,3.778-0.95,6.33-0.95
	c4.276,0,7.777,1.039,8.153,2.364c3.933,0.795,6.319,1.855,6.319,2.994C162.736,411.201,151.722,413.2,138.145,413.2"/>
<path fill="#FF4B61" d="M157.739,421.066c0,1.115-1.956,2.021-4.364,2.021c-2.419,0-4.374-0.906-4.374-2.021
	c0-1.116,1.955-2.011,4.374-2.011C155.783,419.056,157.739,419.95,157.739,421.066"/>
<path fill="#FF4B61" d="M172.974,402.636c0,0.574-1.23,1.035-2.753,1.035c-1.516,0-2.747-0.461-2.747-1.035s1.231-1.046,2.747-1.046
	C171.744,401.59,172.974,402.062,172.974,402.636"/>
<path fill="#FF4B61" d="M356.014,407.527c0,2.354-7.236,4.265-16.152,4.265c0.32,0.354,0.498,0.707,0.498,1.082
	c0,2.717-9.146,4.916-20.438,4.916c-4.629,0-8.893-0.376-12.318-0.994c-0.838,0.817-3.082,1.403-5.711,1.403
	c-3.348,0-6.064-0.939-6.064-2.11c0-0.938,1.801-1.745,4.275-2.011c-0.408-0.387-0.619-0.784-0.619-1.204
	c0-2.718,9.158-4.916,20.438-4.916c1.336,0,2.641,0.033,3.91,0.089c-0.088-0.166-0.133-0.343-0.133-0.52
	c0-2.354,7.236-4.253,16.162-4.253C348.777,403.274,356.014,405.174,356.014,407.527"/>
<path fill="#DB6A57" d="M307.041,404.368c0-0.608,1.193-1.094,2.662-1.094c1.48,0,2.674,0.485,2.674,1.094
	c0,0.607-1.193,1.094-2.674,1.094C308.234,405.462,307.041,404.976,307.041,404.368"/>
<polygon fill="#DB6A57" points="190.987,416.621 175.877,416.621 172.023,274.422 171.422,252.185 165.419,30.545 171.422,31.141 
	182.638,252.185 183.772,274.422 "/>
<polygon fill="#100E3A" points="183.772,274.422 172.022,274.422 171.421,252.185 182.638,252.185 "/>
<polygon fill="#DB6A57" points="285.66,416.621 268.146,416.621 244.145,274.422 240.398,252.185 203.634,34.334 209.745,34.941 
	252.957,252.185 257.381,274.422 "/>
<polygon fill="#100E3A" points="257.382,274.422 244.145,274.422 240.398,252.185 252.957,252.185 "/>
<polygon fill="#DB6A57" points="220.394,258.719 206.102,258.719 182.474,6.739 187.576,7.244 "/>
<polygon fill="#DB6A57" points="167.016,117.597 167.016,147.811 147.942,226.444 96.52,416.621 82.721,416.621 146.445,194.596 "/>
<polygon fill="#100E3A" points="167.016,117.597 167.016,147.811 147.942,226.444 146.445,194.596 "/>
<polygon fill="#FFFFFF" points="161.089,248.161 265.898,248.161 226.965,67.064 154.518,59.883 "/>
<polygon fill="none" stroke="#D7D7FA" stroke-miterlimit="10" points="161.089,248.161 265.898,248.161 226.965,67.064 
	154.518,59.883 "/>
<polygon fill="#D7D7FA" points="153.983,59.386 149.801,66.612 155.667,248.161 161.088,248.161 "/>
<rect x="151.108" y="247.517" fill="#DB6A57" width="119.39" height="6.813"/>
<path fill="#FF9ABB" d="M204.453,213.775c0,8.374-6.788,15.162-15.162,15.162c-8.373,0-15.161-6.788-15.161-15.162
	c0-8.374,6.788-15.162,15.161-15.162C197.665,198.613,204.453,205.401,204.453,213.775"/>
<polygon fill="#FFC527" points="170.369,134.958 196.905,85.125 237.145,167.076 "/>
<path fill="#6A8BFF" d="M215.935,124.299c-12.498,14.416-11.525,36.717-5.404,56.251c0.149,0.444,0.816,0.323,0.751-0.093
	c-0.687-4.448-1.502-8.854-2.167-13.247c0.049-0.202,0.088-0.39,0.137-0.591c3.411-2.795,6.457-5.952,7.978-10.278
	c1.712-4.837,1.836-10.292,2.937-15.343c0.1-0.483-0.394-0.341-0.692-0.092c-7.937,6.605-9.694,13.715-10.797,23.214
	c-0.64-4.931-1.026-9.862-0.726-14.792c0.542-9.015,2.991-17.949,8.433-24.64C216.586,124.433,216.15,124.044,215.935,124.299"/>
<pattern  id="SVGID_14_" xlink:href="#Unnamed_Pattern_10" patternTransform="matrix(-0.9237 0 -0.1427 -0.9237 -13601.4736 -1277.4595)">
</pattern>
<path fill="url(#SVGID_14_)" d="M218.961,125.979c2.546,0.085,4.759,4.134,6.917,5.316c1.141,0.628,2.151,0.59,2.727-0.44
	c1.535-2.73-1.669-6.099-4.484-7.982c1.92,0.741,3.618,2.046,5.621,2.416c1.213,0.215,2.061-0.221,2.15-1.419
	c0.283-3.724-4.643-5.379-7.857-5.457c1.385-1.08,5.385-4.015,2.797-5.458c-2.621-1.449-7.196,2.747-8.686,4.129
	c-2.191,2.032-4.708,5.068-4.33,8.246C214.242,129.041,217.132,126.757,218.961,125.979"/>
<path fill="#6A8BFF" d="M218.325,126.604c3.011-1.472,9.562,0.647,9.899-0.579c0.688-2.495-4.549-4.207-7.283-4.538
	c2.367-0.67,6.939-1.737,6.426-4.12c-0.628-2.91-7.327-0.408-10.489,2.342c-3.984,3.465-3.438,6.808-2.587,7.478
	C215.458,128.105,217.828,126.847,218.325,126.604"/>
<path fill="#6A8BFF" d="M186.702,124.862c17.401,13.845,24.147,36.037,24.822,55.675c0.006,0.446-0.698,0.351-0.779-0.065
	c-0.855-4.443-1.569-8.852-2.428-13.241c-0.119-0.199-0.222-0.384-0.341-0.582c-4.354-2.647-8.472-5.667-11.48-9.907
	c-3.372-4.739-5.382-10.153-8.223-15.13c-0.266-0.476,0.273-0.354,0.657-0.118c10.168,6.261,14.372,13.256,18.752,22.65
	c-1.068-4.922-2.391-9.835-4.394-14.721c-3.655-8.935-9.178-17.717-16.898-24.157C186.1,125.021,186.398,124.617,186.702,124.862"/>
<pattern  id="SVGID_15_" xlink:href="#Unnamed_Pattern_13" patternTransform="matrix(0.9176 -0.0351 -0.1777 -0.9231 934.2119 -1431.0337)">
</pattern>
<path fill="url(#SVGID_15_)" d="M184.276,126.647c-2.5,0.182-3.298,4.288-5.032,5.544c-0.917,0.668-1.934,0.668-2.862-0.333
	c-2.469-2.654-0.45-6.122,1.694-8.101c-1.65,0.81-2.886,2.171-4.748,2.614c-1.13,0.261-2.123-0.141-2.627-1.328
	c-1.569-3.688,2.751-5.52,5.919-5.719c-1.751-1.02-6.738-3.784-4.666-5.316c2.102-1.539,8.098,2.456,10.056,3.772
	c2.879,1.935,6.43,4.854,7.153,8.027C190.022,129.508,186.362,127.35,184.276,126.647"/>
<path fill="#6A8BFF" d="M185.124,127.243c-3.5-1.348-9.273,1.006-10.035-0.199c-1.546-2.452,3.065-4.351,5.667-4.785
	c-2.585-0.575-7.494-1.461-7.808-3.848c-0.384-2.916,7.137-0.684,11.229,1.928c5.155,3.29,5.769,6.632,5.156,7.33
	C188.492,128.625,185.702,127.466,185.124,127.243"/>
<path fill="#6A8BFF" d="M201.756,161.428c2.254,7.297,4.816,14.841,8.121,21.892c0.31,0.642,1.238,0.477,1.033-0.216
	c-2.045-6.746-4.895-13.367-6.94-20.114c-2.072-6.825-3.686-13.746-4.361-20.649c-1.114-11.368,0.105-23.46,6.149-32.355
	c0.131-0.211-0.261-0.509-0.399-0.313c-12.176,17.316-6.534,38.547-6.227,40.449c-3.209-7.169-6.646-15.386-15.726-22.686
	c-0.392-0.315-0.636-0.165-0.496,0.37c3.476,13.297,8.244,20.239,17.051,27.347C200.506,157.261,201.101,159.358,201.756,161.428"/>
<pattern  id="SVGID_16_" xlink:href="#Unnamed_Pattern_16" patternTransform="matrix(-0.9137 0.0547 -0.1972 -0.9221 -13080.7295 -764.5986)">
</pattern>
<path fill="url(#SVGID_16_)" d="M206.201,111.977c2.488-1.187,6.699,2.215,9.378,2.447c1.419,0.127,2.37-0.425,2.391-1.863
	c0.065-3.818-4.746-5.961-8.418-6.646c2.225-0.139,4.527,0.461,6.64-0.135c1.275-0.369,1.864-1.283,1.333-2.665
	c-1.648-4.294-7.228-3.662-10.355-2.13c0.775-1.903,3.099-7.189-0.128-7.496c-3.262-0.297-5.49,6.687-6.208,8.979
	c-1.055,3.368-1.907,8.021,0.094,11.375C203.249,117.766,204.846,113.765,206.201,111.977"/>
<path fill="#6A8BFF" d="M205.911,112.994c2.132-3.158,9.51-4.091,9.204-5.629c-0.626-3.129-6.535-2.402-9.33-1.395
	c1.928-1.939,5.765-5.43,4.044-7.83c-2.103-2.93-7.243,3.234-8.86,7.893c-2.037,5.869,0.209,9.322,1.371,9.641
	C203.933,116.111,205.559,113.515,205.911,112.994"/>
<path fill="#D7D7FA" d="M194.722,182.048c0.346,5.234,0.562,10.471,0.775,15.708l0.246,7.858c0.07,2.62,0.177,5.238,0.207,7.859
	l-0.486-0.475c4.469,0.046,8.939,0.017,13.408,0.124c4.47,0.073,8.939,0.174,13.409,0.363c-4.47,0.188-8.939,0.289-13.409,0.362
	c-4.469,0.107-8.939,0.078-13.408,0.123l-0.469,0.005l-0.017-0.479c-0.094-2.619-0.111-5.24-0.165-7.86l-0.125-7.86
	C194.655,192.534,194.623,187.293,194.722,182.048"/>
<path fill="#FF4B61" d="M222.104,213.489c0.21-0.482,0.272-1,0.173-1.557c-1.68-9.228-11.897-11.971-17.345-12.799
	c-5.399-0.803-9.847-4.855-10.143-14.43c-0.013-0.074-0.013-0.16-0.013-0.234l-0.494-21.027l25.054-0.062
	c0,0,14.48,45.674,15.988,50.109H222.104z"/>
<path fill="#9595C9" d="M194.283,163.442l12.939-0.773l12.943-0.686l0.272-0.015l0.083,0.268c2.631,8.494,5.129,17.027,7.695,25.54
	c2.563,8.514,5.013,17.062,7.523,25.59l0.166,0.561l-0.58-0.005l-18.213-0.15c-6.071-0.062-12.142-0.158-18.213-0.283
	c6.071-0.125,12.142-0.22,18.213-0.282l18.213-0.151l-0.416,0.556c-2.537-8.522-5.135-17.025-7.619-25.562
	c-2.482-8.538-5.031-17.056-7.448-25.613l0.354,0.254l-12.954,0.418L194.283,163.442z"/>
<path fill="#EB9481" d="M353.02,118.655c0.609,8.94-5.6,58.123-22.018,71.039c-13.48,10.606-52.889-2.878-63.357-4.48
	c-3.818-0.585-0.82-27.08,2.189-29.91c5.973,0.45,43.758,8.185,46.543,6.849s15.359-28.169,24.826-41.013
	C346.811,113.531,352.59,112.357,353.02,118.655"/>
<path fill="#EB9481" d="M278.748,186.954c-1.006-0.294-9.906-1.623-16.652-2.485c-2.707-4.504-9.146-12.844-10.842-15.06
	c-1.465-2.788-6.187-7.913-6.43-7.724c-0.459,0.354-2.078,1.604-4.164,2.964c-2.759,1.792-6.324,3.788-9.091,4.185
	c-1.51,0.214-2.766-0.04-3.548-1.044c-1.4-1.804,2.422-5.036,6.615-9.26c5.703-5.761,13.023-12.527,17.373-12.176
	c6.427,0.517,13.947,6.67,16.396,8.242c2.459,1.569,11.721,3.856,11.721,3.856C286.068,173.004,280.094,187.336,278.748,186.954"/>
<path fill="#FFC527" d="M215.702,185.953c0,0,8.653-9.194,17.192-19.108c8.539-9.915,31.188-27.433,32.225-27.108
	c1.039,0.325-18.059,22.418-27.588,31.117c-9.531,8.7-19.737,16.889-19.737,16.889L215.702,185.953z"/>
<polygon fill="#D7D7FA" points="215.408,186.053 221.079,179.448 224.332,182.853 217.696,188.284 "/>
<path fill="#100E3A" d="M215.408,186.053c-1.752,0.445-3.581,1.415-4.801,4.031c-1.473,3.158-3.684,3.766-3.684,3.766
	s8.286,1.154,10.773-5.566L215.408,186.053z"/>
<path fill="#EB9481" d="M206.612,193.974c0.231-0.434,2.293-1.012,3.215-2.659c0.869-1.552,5.388,1.232,3.083,2.118
	C210.292,194.439,206.188,194.772,206.612,193.974"/>
<path fill="#EB9481" d="M262.096,184.469c-2.305-0.288-4.359-0.521-5.76-0.64c-5.514-0.466-8.426-2.515-11.148-5.119
	c-2.701-2.607-13.957-3.652-9.481-7.921c4.486-4.271,15.323,1.621,15.938,0.087c0.113-0.291-0.045-0.816-0.391-1.468
	C252.949,171.625,259.389,179.965,262.096,184.469"/>
<path fill="#6A8BFF" d="M353.75,124.655c-0.4,15.9-4.74,37.29-5.939,37.33c-0.451,0.02-4.051-1.53-8.42-3.51
	c-7.281-3.31-16.701-7.81-17.15-8.19c-0.73-0.63,9.1-16.12,16.67-26.91c6.5-9.24,13.061-13.38,14.551-4.36
	C353.699,120.515,353.811,122.385,353.75,124.655"/>
<path fill="#100E3A" d="M324.787,146.099c4.852,1.496,22.324,8.959,23.621,10.17c0.027,0.027-0.027,0.163-0.064,0.149
	c-4.137-1.616-12.807-4.761-23.646-10.107C324.635,146.281,324.723,146.078,324.787,146.099"/>
<path fill="#100E3A" d="M353.75,124.655c-0.4,15.9-4.74,37.29-5.939,37.33c-0.451,0.02-4.051-1.53-8.42-3.51l14.07-39.46
	C353.699,120.515,353.811,122.385,353.75,124.655"/>
<path fill="#EB9481" d="M417.682,418.327c2.166-1.544,44.635-59.938,44.846-63.188c0.088-1.231-8.057-7.913-18.125-15.707
	c-2.174-1.683-4.43-3.407-6.73-5.146c-14.922-11.307-31.02-22.955-31.02-22.955l-28.521,38.979l31.805,21.883l6.977,4.809
	c0,0-6.26,29.63-6.109,33.22C410.961,413.799,415.516,419.87,417.682,418.327"/>
<path fill="#FFFFFF" d="M417.682,418.327c2.166-1.544,44.635-59.938,44.846-63.188c0.1-1.501-11.941-11.052-24.855-20.854
	l-27.736,37.907l6.977,4.809c0,0-6.26,29.63-6.109,33.22C410.961,413.799,415.516,419.87,417.682,418.327"/>
<path fill="#FFC527" d="M417.682,418.327c2.166-1.544,44.635-59.938,44.846-63.188c0.088-1.231-8.057-7.913-18.125-15.707
	l-27.49,37.569c0,0-6.26,29.63-6.109,33.22C410.961,413.799,415.516,419.87,417.682,418.327"/>
<path fill="#100E3A" d="M415.955,415.791c6.879-9.964,35.563-49.5,43.119-58.826c0.061-0.076,0.113-0.037,0.061,0.045
	c-6.602,10.024-35.605,49.327-43.02,58.898C415.959,416.109,415.809,416.001,415.955,415.791"/>
<path fill="#100E3A" d="M411.434,404.938c1.594-2.391,4.346-3.857,6.65-4.118c2.211-0.25,4.836,0.068,6.816,1.613
	c0.057,0.045-0.02,0.153-0.086,0.118c-4.238-2.227-10.137-1.189-13.258,2.476C411.494,405.101,411.379,405.02,411.434,404.938"/>
<path fill="#100E3A" d="M415.125,381.506c2.795-3.957,7.48-7.494,12.457-7.599c0.191-0.004,0.195,0.271,0.051,0.343
	c-4.402,2.214-8.211,4.592-12.074,7.674C415.285,382.142,414.926,381.789,415.125,381.506"/>
<path fill="#100E3A" d="M414.105,385.388c2.795-3.957,7.48-7.494,12.455-7.598c0.193-0.005,0.195,0.27,0.051,0.343
	c-4.4,2.214-8.209,4.591-12.074,7.674C414.266,386.023,413.904,385.672,414.105,385.388"/>
<path fill="#100E3A" d="M413.084,389.271c2.795-3.958,7.482-7.494,12.457-7.599c0.191-0.004,0.195,0.27,0.051,0.343
	c-4.402,2.214-8.211,4.591-12.074,7.674C413.244,389.905,412.885,389.554,413.084,389.271"/>
<path fill="#100E3A" d="M412.064,393.152c2.795-3.958,7.479-7.494,12.455-7.599c0.191-0.005,0.195,0.27,0.051,0.343
	c-4.402,2.214-8.211,4.592-12.074,7.674C412.225,393.788,411.863,393.436,412.064,393.152"/>
<path fill="#100E3A" d="M447.963,352.696c3.211-4.386,10.033,0.595,6.818,4.988C451.57,362.071,444.748,357.091,447.963,352.696"/>
<path fill="#100E3A" d="M407.561,382.001c4.266-0.131,8.326-2.104,12.285-3.489c0.41-0.144,0.416-0.646,0.195-0.935
	c0.051-0.062,0.064-0.148-0.023-0.204c-3.535-2.237-8.402-3.695-12.607-3.726c-2.598-0.02-6.021,1.311-5.818,4.489
	C401.783,381.144,405.07,382.077,407.561,382.001 M404.184,379.821c-3.979-3.489,2.092-4.954,4.006-4.863
	c1.229,0.058,2.475,0.266,3.684,0.49c2.531,0.472,4.949,1.295,7.41,2.015c-1.986,0.562-3.906,1.288-5.869,1.923
	C411.074,380.142,406.377,381.746,404.184,379.821"/>
<path fill="#100E3A" d="M427.637,361.643c-2.781-1.553-5.457,0.963-6.559,3.314c-1.787,3.808-2.568,8.827-2.074,12.982
	c0.012,0.103,0.096,0.128,0.174,0.108c0.164,0.321,0.621,0.534,0.926,0.226c2.959-2.973,6.488-5.785,8.445-9.578
	C429.691,366.481,430.268,363.112,427.637,361.643 M423.666,372.849c-1.418,1.498-2.902,2.917-4.266,4.467
	c0.412-2.531,0.711-5.067,1.379-7.556c0.318-1.187,0.666-2.4,1.145-3.534c0.744-1.766,4.682-6.612,6.115-1.518
	C428.83,367.518,425.357,371.063,423.666,372.849"/>
<path fill="#3C3D55" d="M435.818,330.703l-32.701,42.244c0,0-29.064-19.277-55.457-43.813
	c-10.029-9.313-19.674-19.388-27.197-29.452c-7.479-10.008-12.859-19.995-14.416-29.219c-5.137-30.281,47.469-95.172,47.469-95.172
	h52.895c0,0-21.652,34.224-34.898,59.511v0.012c-5.844,11.146-10.041,20.548-10.041,24.524c0,4.176,2.805,9.423,7.324,15.168
	C387.541,298.334,435.818,330.703,435.818,330.703"/>
<path fill="#100E3A" d="M361.471,259.338c0,4.176,2.805,9.423,7.324,15.168l-21.135,54.628
	c-10.029-9.313-19.674-19.388-27.197-29.451l51.049-64.869C365.668,245.96,361.471,255.361,361.471,259.338"/>
<path fill="#100E3A" d="M396.396,365.222c5.043-6.689,3.506-4.837,8.621-11.474c2.502-3.247,18.967-24.572,21.807-27.213
	c0.063-0.059,0.168,0.025,0.127,0.1c-1.893,3.385-18.707,24.435-21.27,27.636c-5.234,6.541-3.799,4.609-9.104,11.095
	C396.479,365.486,396.301,365.348,396.396,365.222"/>
<path fill="#100E3A" d="M422.973,327.742c-20.533-16.076-64.58-53.623-65.684-67.319c-0.859-10.653,35.232-68.949,41.875-81.645
	c0.049-0.094-0.088-0.17-0.143-0.082c-12.92,20.649-43.635,71.348-42.898,82.026c1.004,14.537,54.135,57.856,66.424,67.436
	C422.848,328.392,423.275,327.979,422.973,327.742"/>
<path fill="#EB9481" d="M188.278,429.167c2.643,0.876,78.218,0.656,81.095-1.173c1.096-0.688,1.705-11.697,2.064-25.021
	c0.078-2.877,30.736-49.258,30.736-49.258h-51.928l-22.783,40.392l-4.751,8.866c0,0-28.898,13.026-31.838,15.372
	C187.949,420.691,185.635,428.291,188.278,429.167"/>
<path fill="#FFFFFF" d="M188.278,429.167c2.643,0.876,78.218,0.656,81.095-1.173c1.072-0.681,1.633-11.272,2.041-24.245
	c0.023-0.775,3.734-6.753,5.094-9.642h-49.045l-4.751,8.866c0,0-28.898,13.026-31.838,15.372
	C187.949,420.691,185.635,428.291,188.278,429.167"/>
<path fill="#FFC527" d="M188.278,429.167c2.643,0.876,78.218,0.656,81.095-1.173c1.096-0.688,1.705-11.697,2.064-25.021h-48.726
	c0,0-28.898,13.026-31.838,15.372C187.949,420.691,185.635,428.291,188.278,429.167"/>
<path fill="#100E3A" d="M195.727,415.613c3.004-0.132,5.945,1.287,7.588,3.071c1.579,1.715,2.933,4.129,2.851,6.756
	c-0.002,0.075-0.142,0.078-0.153,0c-0.738-4.955-5.26-9.297-10.286-9.669C195.625,415.764,195.624,415.617,195.727,415.613"/>
<path fill="#100E3A" d="M217.801,404.248c5.071-0.085,10.955,1.687,14.119,5.826c0.121,0.16-0.107,0.332-0.259,0.255
	c-4.591-2.35-8.953-4.098-13.945-5.456C217.364,404.777,217.438,404.255,217.801,404.248"/>
<path fill="#100E3A" d="M213.892,405.786c5.07-0.086,10.955,1.687,14.118,5.825c0.122,0.16-0.107,0.332-0.26,0.255
	c-4.59-2.351-8.953-4.098-13.944-5.456C213.454,406.314,213.529,405.792,213.892,405.786"/>
<path fill="#100E3A" d="M209.981,407.323c5.071-0.085,10.955,1.687,14.119,5.825c0.123,0.161-0.107,0.332-0.259,0.255
	c-4.59-2.351-8.953-4.098-13.945-5.456C209.544,407.852,209.618,407.329,209.981,407.323"/>
<path fill="#100E3A" d="M206.071,408.86c5.071-0.085,10.955,1.687,14.118,5.826c0.122,0.16-0.107,0.332-0.258,0.255
	c-4.591-2.351-8.954-4.098-13.945-5.456C205.634,409.39,205.708,408.867,206.071,408.86"/>
<path fill="#100E3A" d="M262.436,414.181c5.688,0,5.697,8.842,0,8.842C256.745,423.022,256.736,414.181,262.436,414.181"/>
<path fill="#100E3A" d="M212.708,398.165c2.747,3.522,6.922,5.732,10.54,8.22c0.375,0.258,0.803-0.049,0.91-0.412
	c0.084,0.006,0.165-0.038,0.158-0.146c-0.295-4.37-2.071-9.383-4.645-12.953c-1.589-2.206-4.829-4.276-7.389-2.141
	C209.86,392.754,211.105,396.108,212.708,398.165 M212.461,393.965c0.489-5.519,5.478-1.295,6.584,0.377
	c0.712,1.074,1.306,2.255,1.863,3.415c1.167,2.431,1.966,4.981,2.879,7.505c-1.702-1.33-3.502-2.503-5.252-3.77
	C216.449,399.983,212.191,397.007,212.461,393.965"/>
<path fill="#100E3A" d="M242.313,402.541c-0.405-3.31-4.187-4.015-6.854-3.493c-4.319,0.845-9.043,3.286-12.248,6.271
	c-0.078,0.074-0.049,0.161,0.016,0.214c-0.17,0.339-0.066,0.855,0.383,0.924c4.34,0.66,8.898,1.904,13.311,1.213
	C239.496,407.267,242.699,405.671,242.313,402.541 M230.394,406.112c-2.142-0.272-4.259-0.649-6.41-0.843
	c2.394-1.217,4.722-2.53,7.233-3.505c1.201-0.466,2.441-0.921,3.695-1.218c1.95-0.463,8.479-0.131,5.062,4.229
	C238.088,407.179,232.947,406.438,230.394,406.112"/>
<pattern  id="SVGID_17_" xlink:href="#Unnamed_Pattern_20" patternTransform="matrix(1.267 0 0 -0.9943 2021.8721 -675)">
</pattern>
<rect x="354.135" y="222.925" fill="url(#SVGID_17_)" width="79.197" height="16.405"/>
<pattern  id="SVGID_18_" xlink:href="#Unnamed_Pattern_21" patternTransform="matrix(1.267 0 0 -1.1666 2020.9834 619.9824)">
</pattern>
<polygon fill="url(#SVGID_18_)" points="375.389,239.194 373.168,253.183 345.793,425.694 337.961,425.694 359.568,253.183 
	361.324,239.194 "/>
<pattern  id="SVGID_19_" xlink:href="#Unnamed_Pattern_22" patternTransform="matrix(-1.267 0 0 -1.1666 -17368.8438 619.9824)">
</pattern>
<polygon fill="url(#SVGID_19_)" points="449.516,425.694 441.672,425.694 414.297,253.183 412.076,239.194 426.139,239.194 
	427.895,253.183 "/>
<pattern  id="SVGID_20_" xlink:href="#Unnamed_Pattern_23" patternTransform="matrix(-1.267 0 0 -1.1666 -17368.8438 619.9824)">
</pattern>
<rect x="348.936" y="371.22" fill="url(#SVGID_20_)" width="87.357" height="4.924"/>
<polygon fill="#100E3A" points="359.568,252.44 373.168,252.44 375.389,239.194 361.326,239.194 "/>
<polygon fill="#100E3A" points="427.895,252.44 414.297,252.44 412.076,239.194 426.139,239.194 "/>
<path fill="#3C3D55" d="M218.095,388.962H287.1c0,0,90.449-142.745,104.447-155.724c22.957-21.285,30.549-33.895,16.512-60.491
	l-54.912,2.907c0,0,2.756,20.683,2.199,21.387C333.768,224.359,218.095,388.962,218.095,388.962"/>
<path fill="#100E3A" d="M231.068,379.899c10.984-0.538,52.34-0.566,55.973,0.035c0.08,0.013,0.08,0.148,0,0.161
	c-3.633,0.602-28.764,1.185-55.973,0.035C230.919,380.124,230.919,379.906,231.068,379.899"/>
<path fill="#100E3A" d="M351.73,176.292c0.676,5.377,0.885,14.594,4.014,14.594c3.029,0,2.061-11.242,2.027-13.834
	c-0.029-2.352,0.791-2.069,1.008,0.696c0.584,7.5,0.699,14.134-3.311,14.013c-4.084-0.124-4.508-11.77-4.533-14.433
	C350.924,175.954,351.518,174.596,351.73,176.292"/>
<path fill="#100E3A" d="M355.557,191.251c0.234,1.037,0.383,2.099,0.482,3.157c0.076,0.822,0.219,1.721-0.016,2.522
	c-0.045,0.156-0.258,0.134-0.324,0.011c-0.408-0.764-0.469-1.72-0.623-2.567c-0.178-0.982-0.377-1.961-0.527-2.947
	C354.447,190.772,355.41,190.612,355.557,191.251"/>
<path fill="#100E3A" d="M355.514,196.051c-8.498,12.014-17.688,24.209-26.098,36.287c-4.184,6.01-21.803,28.777-25.15,34.774
	c-0.131,0.233,0.285,0.393,0.426,0.178c3.846-5.882,22.057-28.673,26.256-34.676c8.326-11.9,16.842-23.75,25.078-35.708
	C356.326,196.47,355.814,195.625,355.514,196.051"/>
<path fill="#100E3A" d="M404.85,175.399c-0.051-0.131-0.266-0.079-0.215,0.06c2.584,7.216,3.697,14.929,1.934,22.482
	c-1.73,7.412-6.424,13.5-10.807,19.54c-9.256,12.75-18.465,25.537-27.627,38.356c-18.426,25.786-36.662,51.71-54.703,77.769
	c-10.102,14.591-20.164,29.212-30.076,43.932c-0.152,0.228,0.213,0.437,0.365,0.214c36.73-53.44,73.807-106.618,111.906-159.096
	c4.619-6.364,9.68-12.739,11.473-20.569C408.828,190.545,407.691,182.521,404.85,175.399"/>
<pattern  id="SVGID_21_" xlink:href="#Unnamed_Pattern_25" patternTransform="matrix(-1.1578 -0.0657 -0.056 0.9869 -16023.2637 -16787.9922)">
</pattern>
<path fill="url(#SVGID_21_)" d="M293.008,286.65c-4.664,3.976-2.436,8.067-2.805,10.461c-0.367,2.394-4.234,9.943-1.287,11.231
	c2.945,1.289,8.285-9.942,11.967-11.6s11.047,0,13.441-6.075c2.393-6.076-4.234-9.202-5.34-14.083
	c-1.105-4.882-3.514-6.171-6.49-3.133S296.639,283.554,293.008,286.65"/>
<pattern  id="SVGID_22_" xlink:href="#Unnamed_Pattern_26" patternTransform="matrix(-1.1578 -0.0657 -0.056 0.9869 -16023.2637 -16787.9922)">
</pattern>
<path fill="url(#SVGID_22_)" d="M319.064,280.854c-0.58,2.655,4.834,1.251,4.465-1.05
	C323.162,277.503,319.479,278.959,319.064,280.854"/>
<pattern  id="SVGID_23_" xlink:href="#Unnamed_Pattern_27" patternTransform="matrix(-1.1578 -0.0657 -0.056 0.9869 -16023.2637 -16787.9922)">
</pattern>
<path fill="url(#SVGID_23_)" d="M314.84,279.805c0.467,1.032,3.213-0.553,2.338-1.979
	C316.303,276.398,314.115,278.193,314.84,279.805"/>
<path fill="#FF4B61" d="M365.51,231.127c-6.701,1.7-11.594,7.066-8.836,9.092c2.76,2.025,7.986,0.23,10.805,3.683
	s6.373,3.452,7.91-3.176C376.924,234.097,371.77,229.539,365.51,231.127"/>
<path fill="#FF4B61" d="M354.83,247.215c-1.078,4.312,7.244,2.94,6.508,0.347S355.566,244.27,354.83,247.215"/>
<path fill="#6A8BFF" d="M410.75,177.155c-1.271,1.27-14.461,13.17-31.539,14.7c-0.842,0.08-1.672,0.14-2.48,0.2
	c-15.68,1.11-25.85-0.99-28.451-2.69c-2.74-1.78-3.43-48.6-3.66-56.74c-0.229-8.15,3.32-18.24,5.051-18.97
	c1.73-0.74,13.57-4.71,17.65-3.48c1.57,0.47,3.109,1.06,4.59,1.75c8.619,3.98,15.68,11.26,20.16,18.56
	C397.33,139.035,412.01,175.885,410.75,177.155"/>
<path fill="#100E3A" d="M347.389,118.869c-0.037-0.226,0.273-0.325,0.35-0.098c0.918,2.784,1.578,6.015,4.389,7.542
	c3.104,1.687,6.592-0.75,8.859-2.794c3.535-3.189,5.643-7.542,7.074-12.01c0.053-0.165,0.305-0.102,0.264,0.069
	c-1.432,5.832-4.678,11.753-10.072,14.782C352.16,129.778,348.314,124.617,347.389,118.869"/>
<path fill="#100E3A" d="M410.75,177.155c-1.271,1.27-14.461,13.17-31.539,14.7c-0.842,0.08-1.672,0.14-2.48,0.2l-4.82-80.13
	c8.619,3.98,15.68,11.26,20.16,18.56C397.33,139.035,412.01,175.885,410.75,177.155"/>
<path fill="#3C3D55" d="M346.965,189.039c-0.51-1.042-2.766-52.309-2.232-59.956s0.842-12.799,1.258-13.812
	c0.418-1.013,3.266-3.084,3.908-2.462c0.645,0.622-0.49,20.043,0.246,22.068s13.902-1.013,14.822-1.657s-0.309-22.576,0.486-23.521
	c0.803-0.955,2.793-1.138,3.426-0.368c1.059,1.289,3.176,25.822,4.648,29.965c1.475,4.143,11.785,13.554,17.584,14.487
	c5.801,0.933,12.047,0.379,13.533,0c1.486-0.378,9.908,26.237,10.479,38.579C415.691,204.705,350.461,196.158,346.965,189.039"/>
<path fill="#100E3A" d="M348.166,143.675c0.123,2.736,0.188,13.023,1.203,14.196c1.25,1.446,8.365,2.279,10.17,2.274
	c2.012-0.005,9.895-3.451,11.174-5.418c0.748-1.146-0.574-12.314-1.984-13.612c-0.791-0.729-1.77-0.343-2.932-0.226
	c-3.881,0.391-16.721,1.512-17.598,2.66c-0.195,0.255,0.24,0.505,0.432,0.252c0.893-1.168,14.561-2.169,17.756-2.471
	c1.096-0.104,1.377-0.269,2,0.335c0.674,0.653,2.996,11.236,1.535,13.005c-1.662,2.013-7.547,4.11-9.977,4.7
	c-1.645,0.399-9.439-1.537-9.818-1.893c-0.322-0.305-0.5-0.774-0.691-1.649c-0.012-0.06-0.023-0.119-0.035-0.179
	c-0.262-1.349-0.619-9.387-0.734-11.974C348.652,143.355,348.15,143.353,348.166,143.675"/>
<path fill="#FFC527" d="M378.561,158.086c-1.699-1.868-6.773-3.362-9.16-0.333c-2.387,3.028,2.002,6.178,1.684,7.609
	c-0.316,1.431-3.389,1.559-3.713,3.377c-0.322,1.818,0.877,2.822,1.625,3.855c0.75,1.033,0.469,5.383,4.434,6.156
	c3.967,0.773,5.221-4.367,7.174-5.764c1.955-1.397,6.602-2.672,6.109-5.937c-0.494-3.265-6.242-1.941-6.967-3.471
	C379.021,162.047,380.455,160.17,378.561,158.086"/>
<path fill="#FFC527" d="M367.463,164.774c-0.408-1.839-3.219-0.975-2.855,0.837C364.969,167.423,367.648,165.605,367.463,164.774"/>
<path fill="#FFC527" d="M366.502,159.792c-0.883,0.249-0.385,1.827,0.621,1.625C368.131,161.214,367.186,159.6,366.502,159.792"/>
<path fill="#EB9481" d="M365.441,110.639c-1.744,5.435-8.219,15.102-11.555,12.627c-1.492-1.105-3.447-5.535-5.148-10.086
	c-2.109-5.634-3.834-11.479-3.834-11.479l11.037-5.015l3.336-1.513c0,0,0.508-0.42,0.982-0.696c0.398-0.232,0.764-0.387,0.807-0.133
	c0.52,2.707,1.293,5.612,2.045,8.197C364.371,106.817,365.563,110.274,365.441,110.639"/>
<path fill="#100E3A" d="M360.26,94.477c-0.33,13.963-7.811,17.708-11.521,18.703c-2.109-5.634-3.834-11.478-3.834-11.478
	l11.037-5.016l3.336-1.513C359.277,95.173,359.785,94.753,360.26,94.477"/>
<path fill="#EB9481" d="M361.697,75.122c2.35,5.949,0.541,23.822-3.48,28.097c-5.832,6.198-16.082,7.568-21.525,0.397
	c-5.275-6.95-2.508-30.202,2.051-34.159C345.457,63.627,358.227,66.334,361.697,75.122"/>
<path fill="none" stroke="#F5A79E" stroke-width="0" stroke-linecap="round" stroke-linejoin="round" d="M358.639,103.013
	c0.006,0,0.006-0.007,0-0.006"/>
<path fill="#100E3A" d="M346.867,88.002c0.014-0.045,0.09,0.066,0.082,0.115c-0.152,1.201-0.127,2.602,0.924,3.107
	c0.033,0.016,0.023,0.076-0.018,0.067C346.545,90.976,346.529,89.115,346.867,88.002"/>
<path fill="#100E3A" d="M348.064,86.848c1.951,0.04,1.729,3.939-0.078,3.903C346.207,90.715,346.428,86.815,348.064,86.848"/>
<path fill="#100E3A" d="M339.467,87.418c-0.006-0.047-0.098,0.052-0.1,0.102c-0.029,1.21-0.268,2.59-1.385,2.929
	c-0.033,0.011-0.033,0.072,0.008,0.068C339.334,90.406,339.633,88.569,339.467,87.418"/>
<path fill="#100E3A" d="M338.461,86.095c-1.936-0.258-2.309,3.63-0.518,3.869C339.707,90.2,340.082,86.312,338.461,86.095"/>
<path fill="#100E3A" d="M349.705,85.153c-0.523-0.164-0.979-0.402-1.479-0.618c-0.566-0.243-1.043-0.379-1.391-0.918
	c-0.188-0.29-0.074-0.783,0.189-0.991c0.615-0.485,1.381-0.359,2.072-0.093c0.754,0.287,1.258,0.702,1.658,1.398
	C351.143,84.606,350.395,85.369,349.705,85.153"/>
<path fill="#100E3A" d="M337.064,84.045c0.545-0.058,1.039-0.201,1.572-0.314c0.604-0.127,1.096-0.166,1.543-0.626
	c0.24-0.247,0.229-0.752,0.01-1.008c-0.506-0.597-1.283-0.624-2.014-0.501c-0.793,0.134-1.371,0.44-1.9,1.044
	C335.762,83.226,336.344,84.122,337.064,84.045"/>
<path fill="#100E3A" d="M345.875,98.575c-0.307,0.267-0.617,0.64-1.057,0.651c-0.424,0.012-0.904-0.206-1.281-0.378
	c-0.037-0.016-0.078,0.022-0.057,0.06c0.287,0.481,0.93,0.809,1.496,0.743c0.553-0.065,0.85-0.522,1.012-1.014
	C346.01,98.567,345.92,98.536,345.875,98.575"/>
<path fill="#100E3A" d="M346.215,95.189c-0.736,1.01-1.764,1.526-2.852,1.673c-0.484,0.07-0.99,0.057-1.482-0.016
	c-0.098-0.008-0.193-0.024-0.281-0.049c-0.088-0.015-0.166-0.03-0.262-0.055c-0.141-0.029-0.211-0.15-0.229-0.284v-0.009
	c0.006-0.045,0.008-0.08,0.02-0.123l0.002-0.01l0.008-0.106c0.027-0.931,0.197-2.34,0.197-2.34c-0.35,0.151-2.125,0.831-2.07,0.347
	c0.469-4.009,0.99-8.467,2.305-12.358c0.037-0.13,0.238-0.088,0.219,0.043c-0.299,3.871-1.275,7.663-1.639,11.547
	c0.566-0.178,1.49-0.516,1.977-0.478c0.129,0.045-0.379,2.718-0.357,3.137c0,0-0.002,0.018,0.004,0.045
	c1.553,0.288,2.758-0.116,4.334-1.079C346.201,95.01,346.293,95.097,346.215,95.189"/>
<path fill="#100E3A" d="M342.512,96.608c0,0,0.848,1.098,1.986,1.479c0.42,0.141,0.869,0.191,1.338,0.057
	c0.961-0.273,0.967-1.16,0.775-1.915c-0.156-0.621-0.455-1.153-0.455-1.153S344.771,96.424,342.512,96.608"/>
<path fill="#FF9CBD" d="M344.498,98.087c0.42,0.142,0.869,0.192,1.338,0.058c0.961-0.273,0.967-1.16,0.775-1.915
	C345.578,96.356,344.566,97.079,344.498,98.087"/>
<path fill="#100E3A" d="M336.588,76.969c6.01,4.129,14.244-2.1,14.244-2.1c1.934,4.705,6.633,4.146,6.633,4.146
	s1.174,10.183,3.855,10.165c4.09-0.022,5.365-13.903,4.078-16.632c-1.285-2.73-4.754-3.432-4.754-3.432s-0.254-2.116-2.779-4.05
	c-2.789-2.14-12.432,0.73-12.432,0.73s-0.66-1.796-2.465-3.335c-1.146-0.971-2.67-0.777-3.641,0.331
	c0.469,0.67,0.818,1.518,0.979,2.511c0.48,2.981-1.955,2.976-1.93,0.272c0.012-1.202,0.391-2.146,0.951-2.783
	c-1.199-1.768-3.16-2.345-4.354-1.4C332.813,63.108,331.588,73.539,336.588,76.969"/>
<path fill="#EB9481" d="M359.322,90.937c0,0,3.646-5.944,6.32-4.677c2.674,1.268,0.17,9.717-2.799,11.03
	c-2.973,1.313-4.242-1.413-4.242-1.413L359.322,90.937z"/>
<path fill="#100E3A" d="M364.865,88.664c0.049-0.007,0.061,0.061,0.02,0.08c-2.078,0.991-3.082,3.034-3.744,5.13
	c0.586-0.827,1.424-1.311,2.525-0.62c0.057,0.036,0.01,0.127-0.051,0.118c-0.885-0.135-1.506,0.054-2.053,0.789
	c-0.389,0.52-0.637,1.163-0.9,1.752c-0.088,0.196-0.439,0.115-0.379-0.109c0.004-0.016,0.01-0.034,0.014-0.05
	C360.08,93.04,361.965,89.112,364.865,88.664"/>
<path fill="#EB9481" d="M378.674,113.581c19.545,16.543,41.355,47.067,36.416,64.718c-3.756,13.422-39.135,26.727-47.168,30.483
	c-3.5,1.637-15.754-20.985-14.135-24.786s31.879-18.015,33.893-20.357c2.014-2.343-3.891-16.884-14.686-39.778
	C366.586,110.27,373.855,109.501,378.674,113.581"/>
<path fill="#EB9481" d="M368.59,208.475c-10.484,4.776-30.732,3.093-33.361,2.021c-2.244-0.905-2.889-2.354-2.889-2.354
	c-4.055-1.547-4.967-3.953-4.967-3.953s-5.215-0.409-5.49-3.602c-0.32-3.579,7.082-2.264,11.555-4.087
	c1.271-0.52,4.309-2.055,6.506-3.292h0.012c0.045-0.022,0.09-0.055,0.133-0.078c1.148-0.662,2.055-1.215,2.287-1.491
	c0.012-0.011,0.021-0.022,0.033-0.033c5.07-3.447,12.428-8.937,15.035-10.661L368.59,208.475z"/>
<path fill="#100E3A" d="M347.229,199.795c-3.053,1.142-6.021,2.343-9.211,3.066c-3.5,0.792-7.002,0.968-10.561,1.236
	c-0.111,0.009-0.111,0.164,0,0.173c6.521,0.535,14.133-1.115,19.881-4.215C347.477,199.981,347.381,199.737,347.229,199.795"/>
<path fill="#100E3A" d="M351.951,205.019c-3.031,0.946-9.725,3.203-19.609,3.017c-0.033-0.001-0.045,0.053-0.01,0.059
	c6.404,0.974,13.756-0.347,19.703-2.768C352.221,205.252,352.152,204.957,351.951,205.019"/>
<path fill="#FFC527" d="M338.963,181.636c-18.855-4.133-71.908,2.446-71.313,15.186c0.709,15.185,82.893,9.177,82.254-1.083
	c-0.355-5.705-19.299-3.636-19.455-6.97C330.33,186.216,345.635,183.098,338.963,181.636"/>
<pattern  id="SVGID_24_" xlink:href="#Unnamed_Pattern_30" patternTransform="matrix(-1.1578 -0.0657 -0.056 0.9869 -16023.2637 -16787.9922)">
</pattern>
<path fill="url(#SVGID_24_)" d="M309.412,200.543c0.104-0.045,0.215-0.101,0.33-0.162c0.377-0.162,0.73-0.347,1.025-0.589
	c0.338-0.275,0.57-0.594,0.713-0.925c0.129-0.244,0.191-0.496,0.145-0.748c-0.021-0.641-0.422-1.252-1.264-1.627
	c-1.08-0.48-2.322-0.284-3.475-0.389c-1.689-0.155-2.943-1.077-4.682-0.82c-1.918,0.284-4.107,1.451-4.389,3.221
	C297.07,203.211,306.891,201.649,309.412,200.543"/>
<pattern  id="SVGID_25_" xlink:href="#Unnamed_Pattern_31" patternTransform="matrix(1.1047 0 0 -1.1047 820.3164 176.3662)">
</pattern>
<path fill="url(#SVGID_25_)" d="M322.082,186.855c-0.541,1.768-2.432,1.878-3.988,1.922c-1.559,0.055-3.117,0.11-4.674,0.133
	c-0.916,0.01-2.121,0.176-2.928-0.431c-0.055-0.044-0.088-0.089-0.143-0.144c-0.52-0.254-0.861-0.74-0.785-1.536
	c0.145-1.381,1.525-1.844,2.795-2.187c0.443-0.166,0.896-0.298,1.369-0.398c2.066-0.707,4.375-1.889,6.553-0.905
	C321.617,183.928,322.535,185.387,322.082,186.855"/>
<path fill="#DB6A57" d="M301.92,185.839c2.045,2.198-1.381,4.264-3.248,4.584c-1.711,0.288-7.18,0.962-7.104-1.944
	c0.033-1.745,1.857-2.441,3.635-2.618C297.469,184.922,300.518,184.326,301.92,185.839"/>
<path fill="#6A8BFF" d="M277,193.163c-2.066,2.751,1.139,5.446,3.723,5.767c1.912,0.232,4.176,0.011,6.088-0.243
	c1.281-0.177,2.617-0.774,2.838-2.199c0.41-2.783-2.375-3.679-4.914-3.91C281.971,191.55,278.646,190.965,277,193.163"/>
<path fill="#EB9481" d="M342.408,191.605c1.016-1.171,0.408-1.712-2.297-1.193c-2.74,0.519-12.98,4.872-14.197,1.16
	c-1.225-3.723,13.367-9.644,17.941-10.163c4.574-0.531,13.588-0.465,13.588-0.465C354.836,182.668,347.479,188.159,342.408,191.605"
	/>
<path fill="#6A8BFF" d="M381.998,152c1.205,0.867,23.566-9.206,24.303-10.495s-14.775-19.793-25.547-27.526
	c-10.77-7.733-12.41-1.85-9.701,9.292C374.264,136.488,379.373,150.113,381.998,152"/>
<path fill="#100E3A" d="M380.205,147.93c4.41-2.516,21.805-10.159,23.574-10.277c0.039-0.003,0.102,0.131,0.064,0.148
	c-4.008,1.914-12.23,6.088-23.545,10.341C380.234,148.166,380.145,147.964,380.205,147.93"/>
<path fill="#FFC527" d="M137.231,338.003c0,0,3.786,12.623,8.281,25.519c4.496,12.896,8.49,42.511,7.654,43.279
	c-0.836,0.768-10.819-28.03-13.699-41.187c-2.881-13.156-4.946-26.655-4.946-26.655L137.231,338.003z"/>
<polygon fill="#D7D7FA" points="137.295,337.685 140.299,346.26 135.522,347.42 134.084,338.586 "/>
<path fill="#100E3A" d="M137.295,337.685c0.514-1.816,0.592-3.975-1.134-6.444c-2.084-2.98-1.477-5.297-1.477-5.297
	s-5.372,6.886-0.6,12.643L137.295,337.685z"/>
<pattern  id="SVGID_26_" xlink:href="#Unnamed_Pattern_47" patternTransform="matrix(1.0983 -0.1191 -0.1191 -1.0983 1705.4336 -767.7148)">
</pattern>
<path fill="url(#SVGID_26_)" d="M134.733,325.599c0.271,0.436-0.284,2.601,0.723,4.295c0.948,1.596-3.929,4.224-3.524,1.678
	C132.392,328.68,134.234,324.798,134.733,325.599"/>
<path fill="#FF4B61" d="M160.783,345.393c0,0-3.659,10.217-7.913,20.628s-8.818,34.594-8.164,35.262
	c0.655,0.668,10.108-22.584,13.045-33.279c2.937-10.695,5.22-21.708,5.22-21.708L160.783,345.393z"/>
<polygon fill="#D7D7FA" points="160.745,345.128 157.904,352.05 161.783,353.211 163.347,346.008 "/>
<path fill="#100E3A" d="M160.745,345.128c0.412-5.699,4.934-10.339,4.934-10.339s1.841,6.689-2.332,11.219L160.745,345.128z"/>
<path fill="#6A8BFF" d="M149.527,331.992c0,0,1.444,10.756,3.431,21.825c1.986,11.071,1.4,35.673,0.621,36.189
	c-0.78,0.517-5.17-24.197-5.809-35.27c-0.639-11.072-0.571-22.319-0.571-22.319L149.527,331.992z"/>
<polygon fill="#D7D7FA" points="149.62,331.741 150.953,339.104 146.917,339.429 146.891,332.059 "/>
<path fill="#100E3A" d="M146.891,332.059c0,0,2.584-0.259,2.729-0.317c0.144-0.059,2.077-7.47,1.916-7.677
	c-0.162-0.207-8.7,0.99-8.654,1.795C142.928,326.665,146.891,332.059,146.891,332.059"/>
<pattern  id="SVGID_27_" xlink:href="#Unnamed_Pattern_49" patternTransform="matrix(-1.267 0 0 -1.1666 -17381.043 621.9473)">
</pattern>
<path fill="url(#SVGID_27_)" d="M158.352,410.644h-21.349c-2.418,0-4.379-1.961-4.379-4.38v-29.148c0-2.419,1.961-4.379,4.379-4.379
	h21.349c2.418,0,4.379,1.96,4.379,4.379v29.148C162.73,408.683,160.77,410.644,158.352,410.644"/>
<pattern  id="SVGID_28_" xlink:href="#Unnamed_Pattern_50" patternTransform="matrix(-1.267 0 0 -1.1666 -17380.7422 621.9473)">
</pattern>
<rect x="136.423" y="366.753" fill="url(#SVGID_28_)" width="22.509" height="5.983"/>
<path fill="#100E3A" d="M137.805,372.604c5.23-0.256,18.041-0.27,19.77,0.017c0.038,0.006,0.038,0.07,0,0.077
	c-1.73,0.286-13.675,0.646-19.77,0.017C137.734,372.707,137.734,372.607,137.805,372.604"/>
</svg>
