<svg width="562" height="449" viewBox="0 0 562 449" fill="none" xmlns="http://www.w3.org/2000/svg">
<path d="M119.988 75.7336H63V133.561H119.988V75.7336Z" stroke="#282A2B" stroke-width="0.9921" stroke-miterlimit="10"/>
<path d="M185 33H92.4792V90.8274H185V33Z" stroke="#282A2B" stroke-width="0.9921" stroke-miterlimit="10"/>
<path d="M177.39 59.5031L158.355 40.4673H177.39V59.5031Z" fill="#282A2B"/>
<path d="M174.277 43.5803L151.669 65.7924" stroke="#282A2B" stroke-width="0.9921" stroke-miterlimit="10"/>
<path d="M230.011 177.17H228.212V159.153C228.212 154.922 224.782 151.491 220.549 151.491C216.317 151.491 212.887 154.922 212.887 159.153V177.17H211.088L124.39 339.375L129.47 343.782C146.693 358.706 158.564 378.498 163.832 400.225H144.848C140.615 400.225 137.184 403.655 137.184 407.888C137.184 412.121 140.615 415.552 144.848 415.552H166.411C166.733 418.945 166.925 422.36 166.925 425.802V448.441H274.174H274.623V416.365C274.647 416.094 274.662 415.823 274.688 415.55H296.251C300.484 415.55 303.915 412.12 303.915 407.887C303.915 403.654 300.484 400.223 296.251 400.223H277.267C282.535 378.496 294.408 358.706 311.631 343.779L316.707 339.373L230.011 177.17Z" fill="#7687FB"/>
<path d="M331.643 177.17H329.844V159.153C329.844 154.922 326.413 151.491 322.182 151.491C317.949 151.491 314.518 154.922 314.518 159.153V177.17H312.719L226.023 339.375L231.102 343.782C248.325 358.706 260.197 378.498 265.465 400.225H246.479C242.246 400.225 238.817 403.655 238.817 407.888C238.817 412.121 242.246 415.552 246.479 415.552H268.042C268.365 418.945 268.556 422.36 268.556 425.802V448.441H375.806H376.254V416.365C376.279 416.094 376.294 415.823 376.322 415.55H397.883C402.116 415.55 405.547 412.12 405.547 407.887C405.547 403.654 402.116 400.223 397.883 400.223H378.899C384.167 378.496 396.039 358.706 413.262 343.779L418.34 339.373L331.643 177.17Z" fill="#FCDA1C"/>
<path d="M280.891 176.751H279.09V158.734C279.09 154.501 275.659 151.07 271.428 151.07C267.195 151.07 263.766 154.501 263.766 158.734V176.751H261.965L175.27 338.954L180.348 343.361C197.571 358.287 209.443 378.077 214.711 399.804H195.725C191.492 399.804 188.063 403.235 188.063 407.468C188.063 411.7 191.492 415.131 195.725 415.131H217.288C217.611 418.524 217.802 421.94 217.802 425.381V448.02H233.13V425.381C233.13 421.943 232.95 418.528 232.668 415.131H257.91V448.02H309.726H325.054H325.5V415.944C325.525 415.673 325.54 415.402 325.568 415.13H347.131C351.362 415.13 354.793 411.699 354.793 407.466C354.793 403.233 351.362 399.802 347.131 399.802H328.145C333.413 378.075 345.285 358.285 362.508 343.358L367.587 338.952L280.891 176.751ZM312.402 399.802H230.453C225.302 375.367 212.852 352.902 194.495 335.501L263.764 205.898V332.808C260.232 335.247 257.908 339.313 257.908 343.931C257.908 351.396 263.961 357.449 271.426 357.449C278.892 357.449 284.944 351.396 284.944 343.931C284.944 339.313 282.621 335.247 279.088 332.808V205.898L348.359 335.501C330.004 352.902 317.554 375.369 312.402 399.802Z" fill="#282A2B"/>
<path d="M17.9408 401.698C17.9408 262.429 130.84 149.532 270.107 149.532C409.374 149.532 522.273 262.429 522.273 401.698" stroke="#282A2B" stroke-width="2.8347" stroke-miterlimit="10" stroke-linecap="round" stroke-linejoin="round"/>
<path d="M18.748 386.858C29.1027 386.858 37.4978 395.253 37.4978 405.606C37.4978 415.963 29.1027 424.356 18.748 424.356C8.39341 424.356 2.65759e-07 415.963 2.65759e-07 405.606C-0.00172464 395.253 8.39341 386.858 18.748 386.858Z" fill="#282A2B"/>
<path d="M521.251 386.858C531.605 386.858 540 395.253 540 405.606C540 415.963 531.605 424.356 521.251 424.356C510.896 424.356 502.502 415.963 502.502 405.606C502.502 395.253 510.896 386.858 521.251 386.858Z" fill="#282A2B"/>
<path d="M288.182 133H254.672V166.512H288.182V133Z" fill="white" stroke="black" stroke-width="2.126" stroke-miterlimit="10"/>
<path d="M545.819 173.889H507.891V211.817H545.819V173.889Z" fill="#FF4B61"/>
<path d="M526.855 160V225.71" stroke="#282A2B" stroke-width="2.8347" stroke-miterlimit="10" stroke-linecap="round" stroke-linejoin="round"/>
<path d="M559.71 192.853H494" stroke="#282A2B" stroke-width="2.8347" stroke-miterlimit="10" stroke-linecap="round" stroke-linejoin="round"/>
<path d="M521.702 6.62564H414.626V113.703H521.702V6.62564Z" stroke="#282A2B" stroke-width="2.126" stroke-miterlimit="10"/>
<path d="M473.39 2H463.263V12.1257H473.39V2Z" fill="white" stroke="#282A2B" stroke-width="2.126" stroke-miterlimit="10"/>
<path d="M473.39 108.28H463.263V118.405H473.39V108.28Z" fill="white" stroke="#282A2B" stroke-width="2.126" stroke-miterlimit="10"/>
<path d="M526.653 2H516.526V12.1257H526.653V2Z" fill="white" stroke="#282A2B" stroke-width="2.126" stroke-miterlimit="10"/>
<path d="M526.653 108.28H516.526V118.405H526.653V108.28Z" fill="white" stroke="#282A2B" stroke-width="2.126" stroke-miterlimit="10"/>
<path d="M420.126 2H410V12.1257H420.126V2Z" fill="white" stroke="#282A2B" stroke-width="2.126" stroke-miterlimit="10"/>
<path d="M420.126 108.28H410V118.405H420.126V108.28Z" fill="white" stroke="#282A2B" stroke-width="2.126" stroke-miterlimit="10"/>
<path d="M527.313 55.1387H517.188V65.2655H527.313V55.1387Z" fill="white" stroke="#282A2B" stroke-width="2.126" stroke-miterlimit="10"/>
<path d="M420.126 55.1387H410V65.2655H420.126V55.1387Z" fill="white" stroke="#282A2B" stroke-width="2.126" stroke-miterlimit="10"/>
</svg>
