<?xml version="1.0" encoding="utf-8"?>
<!-- Generator: Adobe Illustrator 16.0.0, SVG Export Plug-In . SVG Version: 6.00 Build 0)  -->
<!DOCTYPE svg PUBLIC "-//W3C//DTD SVG 1.1//EN" "http://www.w3.org/Graphics/SVG/1.1/DTD/svg11.dtd">
<svg version="1.1" xmlns="http://www.w3.org/2000/svg" xmlns:xlink="http://www.w3.org/1999/xlink" x="0px" y="0px"
	 width="1509.15px" height="1871.354px" viewBox="0 0 1509.15 1871.354" enable-background="new 0 0 1509.15 1871.354"
	 xml:space="preserve">
<pattern  x="-11142.754" y="1288.445" width="300" height="300" patternUnits="userSpaceOnUse" id="Unnamed_Pattern_3" viewBox="0 -300 300 300" overflow="visible">
	<g>
		<polygon fill="none" points="0,-300 300,-300 300,0 0,0 		"/>
		<path fill="#1C1556" d="M150-100.047c-27.588,0-49.953-22.365-49.953-49.953c0-27.589,22.365-49.953,49.953-49.953
			c27.589,0,49.953,22.364,49.953,49.953C199.953-122.412,177.589-100.047,150-100.047"/>
		<path fill="#1C1556" d="M49.953,0H0v-49.953C27.588-49.953,49.953-27.588,49.953,0"/>
		<path fill="#1C1556" d="M0-250.047V-300h49.953C49.953-272.412,27.588-250.047,0-250.047"/>
		<path fill="#1C1556" d="M300-49.953V0h-49.953C250.047-27.589,272.412-49.953,300-49.953"/>
		<path fill="#1C1556" d="M300-250.047c-27.588,0-49.953-22.365-49.953-49.953H300V-250.047z"/>
	</g>
</pattern>
<g id="Background">
</g>
<g id="Illustration">
	<pattern  id="SVGID_1_" xlink:href="#Unnamed_Pattern_3" patternTransform="matrix(-0.1027 0 0 0.1027 16456.7949 -7514.2393)">
	</pattern>
	<path fill="url(#SVGID_1_)" d="M1490.515,455.34c0,105.154-85.242,190.397-190.394,190.397
		c-105.157,0-190.399-85.244-190.399-190.397c0-105.156,85.242-190.395,190.399-190.395
		C1405.272,264.945,1490.515,350.184,1490.515,455.34"/>
	<pattern  id="SVGID_2_" xlink:href="#Unnamed_Pattern_3" patternTransform="matrix(-0.1205 0 0 0.1205 17420.0293 -6970.2256)">
	</pattern>
	<path fill="url(#SVGID_2_)" d="M467.931,1012.081c0,123.354-99.994,223.353-223.348,223.353
		c-123.357,0-223.354-99.998-223.354-223.353c0-123.356,99.996-223.35,223.354-223.35
		C367.937,788.731,467.931,888.724,467.931,1012.081"/>
	<circle fill="#3C3D55" cx="1388.876" cy="800.971" r="7.276"/>
	<circle fill="#3C3D55" cx="169.876" cy="334.971" r="7.276"/>
	<circle fill="#3C3D55" cx="889.876" cy="1542.97" r="7.276"/>
	<g>
		<path d="M784.016,151.701c8.526,0,8.54-13.25,0-13.25C775.49,138.451,775.477,151.701,784.016,151.701z"/>
	</g>
	
		<rect x="1076.105" y="1231.945" transform="matrix(-0.9961 0.0877 -0.0877 -0.9961 2330.375 2776.7729)" width="56.123" height="415.306"/>
	
		<rect x="624.99" y="1229.451" transform="matrix(-0.9985 -0.0546 0.0546 -0.9985 1226.6816 2907.7129)" width="56.122" height="415.306"/>
	
		<rect x="167.263" y="1235.689" transform="matrix(-0.9722 -0.2341 0.2341 -0.9722 47.352 2892.3049)" width="56.123" height="415.306"/>
	<g>
		<path fill="#FFFFFF" d="M1265.952,1373.149c7.524-0.339,13.586-6.289,14.062-13.806l81.47-1296.254
			c0.557-8.763-38.624-35.317-47.395-34.922l-977.828,9.978c-7.523,0.339,7.113,39.457,6.637,46.973l-131.358,1275.09
			C210.982,1368.97,1265.952,1373.149,1265.952,1373.149z"/>
		<path d="M1265.945,1375.357c-2.615-0.011-264.569-1.06-524.148-3.158c-526.101-4.252-529.967-8.387-531.824-10.375
			c-0.416-0.444-0.678-1.149-0.639-1.757L340.701,84.892c0.145-2.28-1.76-9.499-3.6-16.479c-4.378-16.604-6.83-26.966-3.979-30.84
			c0.731-0.999,1.813-1.579,3.04-1.634l977.904-9.98c0.082-0.003,0.168-0.005,0.254-0.005c8.017,0,32.445,15.827,43.27,26.853
			c4.33,4.411,6.267,7.724,6.097,10.424l-81.469,1296.252c-0.55,8.66-7.498,15.483-16.165,15.874
			C1266.016,1375.356,1265.981,1375.357,1265.945,1375.357z M213.91,1358.734c36.155,6.492,700.473,10.813,1051.996,12.206
			c6.385-0.313,11.499-5.35,11.903-11.736l81.469-1296.253c0.013-0.206-0.013-2.134-4.842-7.052
			c-11.341-11.552-34.73-25.773-40.25-25.526L336.575,40.35c-1.548,2.87,2.566,18.474,4.798,26.937
			c2.434,9.232,3.916,15.04,3.729,17.972L213.91,1358.734z"/>
	</g>
	<g>
		<path fill="#FFFFFF" d="M182.02,1370.472h973.541c12.264,0,22.561-9.235,23.886-21.428L1320.137,55.67
			c1.546-14.214-9.588-26.624-23.885-26.624H322.711c-12.264,0-22.56,9.236-23.886,21.428l-140.69,1293.374
			C156.589,1358.062,167.723,1370.472,182.02,1370.472z"/>
		<path d="M1155.562,1372.68H182.02c-7.439,0-14.56-3.176-19.527-8.714c-4.97-5.539-7.356-12.959-6.553-20.356L296.63,50.234
			c1.452-13.338,12.663-23.396,26.081-23.396h973.54c7.442,0,14.559,3.177,19.529,8.716c4.969,5.539,7.356,12.958,6.552,20.354
			l-140.691,1293.375C1180.191,1362.623,1168.979,1372.68,1155.562,1372.68z M322.711,31.254c-11.158,0-20.483,8.365-21.69,19.458
			L160.332,1344.088c-0.669,6.151,1.316,12.322,5.448,16.928c4.133,4.606,10.051,7.248,16.239,7.248h973.542
			c11.16,0,20.482-8.365,21.688-19.458L1317.941,55.432c0.669-6.153-1.317-12.323-5.449-16.928
			c-4.133-4.607-10.052-7.25-16.241-7.25H322.711z"/>
	</g>
	<path d="M1120.345,1328.001H233.979c-6.718,0-13.179-2.899-17.725-7.955c-4.701-5.227-6.967-12.271-6.217-19.328L338.131,93.933
		c1.328-12.524,11.621-21.969,23.941-21.969h886.365c6.718,0,13.179,2.9,17.726,7.955c4.701,5.227,6.967,12.272,6.217,19.329
		l-128.092,1206.785C1142.958,1318.556,1132.665,1328.001,1120.345,1328.001z M362.072,76.38c-10.056,0-18.46,7.747-19.551,18.018
		L214.428,1301.184c-0.616,5.814,1.247,11.613,5.112,15.909c3.762,4.186,8.891,6.491,14.439,6.491h886.365
		c10.056,0,18.46-7.746,19.551-18.018L1267.989,98.782c0.616-5.815-1.246-11.614-5.111-15.91c-3.763-4.186-8.894-6.491-14.44-6.491
		H362.072z"/>
	<path fill="#F5B816" d="M830.081,1110.412c-54.879,0.002-103.815-68.107-139.996-118.462
		c-26.058-36.269-80.273-111.726-117.032-195.609c-45.874-104.688-47.987-185.387-6.285-239.852
		c29.376-38.369,78.937-61.862,143.317-67.937c51.773-4.89,111.3,2.292,167.612,20.211c58.406,18.585,110.314,47.203,150.11,82.76
		c1.515,1.353,4.696,4.245,8.983,8.409c0.874,0.85,0.895,2.249,0.043,3.123c-0.845,0.875-2.247,0.895-3.123,0.045
		c-4.227-4.108-7.355-6.954-8.846-8.284C946.468,524.77,817.19,482.882,710.499,492.949
		c-63.125,5.956-111.615,28.857-140.226,66.225c-40.65,53.092-38.354,132.29,6.825,235.394
		c36.571,83.458,90.604,158.66,116.568,194.799c37.283,51.889,88.361,122.939,143.843,116.178
		c28.772-3.504,42.84-26.051,66.146-63.404c19.791-31.72,46.895-75.161,95.607-125.242c6.17-6.342,12.419-12.519,18.581-18.357
		c0.887-0.84,2.283-0.802,3.12,0.083c0.839,0.886,0.802,2.283-0.084,3.122c-6.116,5.798-12.322,11.932-18.452,18.231
		c-48.382,49.741-75.341,92.95-95.025,124.5c-23.178,37.149-38.49,61.69-69.357,65.451
		C835.377,1110.253,832.72,1110.412,830.081,1110.412z"/>
	<g>
		<path fill="#FFFFFF" d="M968.032,502.221c13.92,3.055,24.481,15.3,24.82,30.181l3.013,131.913
			c0.191,8.389-2.955,16.51-8.752,22.578c-5.795,6.067-13.766,9.583-22.154,9.774l-96.403,2.202l2.466,108.043
			c0.399,17.469-13.438,31.953-30.906,32.352l-139.509,3.187c-17.457,0.401-31.953-13.438-32.351-30.907
			c-0.4-17.468,13.437-31.953,30.906-32.352l107.878-2.464l-2.465-108.043c-0.4-17.468,13.437-31.953,30.906-32.352l96.403-2.202
			l-2.29-100.284c-0.398-17.468,13.438-31.953,30.907-32.352C963.087,501.437,965.612,501.69,968.032,502.221z"/>
		<path d="M699.858,844.667c-8.74,0-17.004-3.31-23.351-9.373c-6.539-6.246-10.255-14.664-10.462-23.7
			c-0.205-9.038,3.12-17.616,9.364-24.152c6.245-6.537,14.662-10.25,23.702-10.456l105.669-2.416l-2.415-105.834
			c-0.425-18.658,14.406-34.184,33.064-34.609l94.196-2.152l-2.24-98.076c-0.204-9.038,3.12-17.616,9.363-24.152
			c6.246-6.538,14.664-10.251,23.704-10.456c2.727-0.065,5.42,0.197,8.049,0.775c15.282,3.353,26.203,16.63,26.559,32.287
			l3.013,131.914c0.207,9.037-3.118,17.615-9.361,24.152c-6.246,6.538-14.665,10.251-23.705,10.457l-94.194,2.152l2.415,105.834
			c0.207,9.038-3.118,17.617-9.363,24.154c-6.244,6.538-14.663,10.251-23.7,10.456l-139.511,3.186
			C700.39,844.664,700.124,844.667,699.858,844.667z M961.249,503.696c-0.233,0-0.464,0.002-0.694,0.007
			c-7.86,0.179-15.181,3.409-20.61,9.092c-5.431,5.684-8.32,13.142-8.142,21l2.291,100.284c0.028,1.22-0.938,2.231-2.158,2.258
			l-96.405,2.202c-16.222,0.371-29.117,13.871-28.747,30.094l2.466,108.042c0.027,1.219-0.939,2.231-2.16,2.258l-107.877,2.465
			c-7.858,0.18-15.178,3.409-20.607,9.093c-5.431,5.683-8.32,13.141-8.142,21c0.18,7.858,3.41,15.177,9.096,20.608
			c5.688,5.431,13.148,8.278,20.994,8.143l139.513-3.187c7.858-0.179,15.176-3.409,20.605-9.092
			c5.431-5.685,8.322-13.143,8.142-21.001l-2.465-108.042c-0.028-1.22,0.938-2.231,2.158-2.258l96.402-2.202
			c7.861-0.18,15.181-3.41,20.611-9.093c5.427-5.685,8.319-13.143,8.138-21l-3.013-131.913c-0.309-13.616-9.804-25.16-23.086-28.075
			h-0.002C965.496,503.925,963.375,503.696,961.249,503.696z"/>
	</g>
	<path fill="#6A8BFF" d="M404.665,1075.049c-64.41,0-116.813-52.402-116.813-116.812c0-64.41,52.402-116.812,116.813-116.812
		c64.409,0,116.812,52.401,116.812,116.812C521.477,1022.647,469.074,1075.049,404.665,1075.049z M404.665,845.843
		c-61.976,0-112.396,50.42-112.396,112.395s50.421,112.396,112.396,112.396c61.975,0,112.396-50.421,112.396-112.396
		S466.64,845.843,404.665,845.843z"/>
	<polygon fill="#FFFFFF" points="731.27,961.497 731.27,982.994 411.795,982.994 411.795,877.895 644.419,877.895 	"/>
	<path d="M731.269,985.202H411.796c-1.22,0-2.208-0.988-2.208-2.208V877.895c0-1.22,0.988-2.208,2.208-2.208h192.549
		c1.221,0,2.208,0.989,2.208,2.208c0,1.219-0.987,2.208-2.208,2.208h-190.34v100.683h315.056v-19.288
		c0-1.22,0.987-2.209,2.208-2.209c1.222,0,2.209,0.989,2.209,2.209v21.496C733.478,984.213,732.49,985.202,731.269,985.202z"/>
	<path d="M629.281,350.524H447.625c-1.221,0-2.208-0.989-2.208-2.208V166.662c0-1.22,0.987-2.208,2.208-2.208h181.656
		c1.221,0,2.208,0.988,2.208,2.208v181.654C631.489,349.536,630.502,350.524,629.281,350.524z M449.834,346.108h177.239V168.87
		H449.834V346.108z"/>
	<rect x="988.489" y="145.966" fill="#F5B816" width="181.654" height="181.654"/>
	<g>
		<g>
			<path fill="#FFFFFF" d="M580.883,1096.126c-38.334,0-74.742,9.417-107.564,26.325c-14.29,7.361-24.91,20.851-29.291,37.158
				c-4.35,16.197-8.103,36.709-7.818,62.265c0.412,36.993,8.916,51.392,0,60.455c-9.883,10.048-35.104,7.376-58.836-3.574
				c-18.135-8.367-39.146,1.402-45.077,21.554c-8.84,30.048-13.633,62.222-13.633,95.678c0,165.607,117.398,299.859,262.22,299.859
				s262.22-134.252,262.22-299.859C843.103,1230.378,725.704,1096.126,580.883,1096.126z M498.208,1402.856
				c-16.901,7.918-38.463-4.256-48.161-27.19c-9.696-22.936-3.854-47.946,13.049-55.864s38.465,4.256,48.161,27.191
				C520.954,1369.927,515.111,1394.939,498.208,1402.856z"/>
			<path d="M580.884,1698.055c-145.808,0-264.428-135.508-264.428-302.068c0-32.954,4.616-65.354,13.723-96.3
				c3.057-10.389,10.216-18.802,19.648-23.083c9.017-4.094,19.393-4.042,28.469,0.146c24.037,11.091,47.734,12.781,56.338,4.03
				c4.624-4.7,3.729-11.615,2.105-24.168c-1.147-8.865-2.573-19.897-2.739-34.715c-0.239-21.627,2.345-42.188,7.896-62.86
				c4.533-16.876,15.618-30.927,30.412-38.551c34.227-17.629,70.756-26.568,108.576-26.568
				c145.805,0,264.426,135.508,264.426,302.068S726.688,1698.055,580.884,1698.055z M363.866,1277.949
				c-4.145,0-8.283,0.892-12.214,2.677c-8.26,3.751-14.544,11.151-17.237,20.308c-8.987,30.541-13.543,62.521-13.543,95.054
				c0,164.126,116.642,297.651,260.012,297.651s260.01-133.525,260.01-297.651s-116.64-297.651-260.01-297.651
				c-37.11,0-72.959,8.773-106.553,26.079c-13.693,7.054-23.96,20.092-28.169,35.769c-5.446,20.278-7.98,40.448-7.745,61.666
				c0.163,14.557,1.569,25.447,2.703,34.197c1.741,13.47,2.795,21.601-3.337,27.831c-10.034,10.196-35.256,8.916-61.337-3.116
				C372.383,1278.886,368.12,1277.949,363.866,1277.949z M487.261,1407.496c-3.819,0-7.746-0.754-11.681-2.265
				c-11.705-4.491-21.751-14.954-27.566-28.706c-10.139-23.978-3.791-50.321,14.146-58.725c7.227-3.386,15.378-3.515,23.565-0.373
				c11.703,4.491,21.751,14.954,27.564,28.706c10.139,23.978,3.792,50.32-14.146,58.724
				C495.391,1406.615,491.389,1407.496,487.261,1407.496z M474.048,1319.586c-3.492,0-6.864,0.738-10.016,2.215
				c-15.813,7.407-21.175,31.185-11.95,53.005c5.27,12.466,14.646,22.298,25.081,26.301c7.041,2.701,13.992,2.614,20.108-0.251
				c15.814-7.407,21.175-31.185,11.951-53.004c-5.271-12.465-14.644-22.298-25.08-26.301
				C480.729,1320.241,477.336,1319.586,474.048,1319.586z"/>
		</g>
		<path d="M464.257,1557.982c-2.892,0-5.838-2.294-9.127-4.853c-4.99-3.885-11.826-9.205-22.187-10.674
			c-11.147-1.584-19.028,2.368-25.976,5.855c-6.398,3.21-12.441,6.244-19.517,4.11c-13.166-3.967-22.502-23.03-25.916-40.163
			c-4.098-20.569-0.323-37.94,10.096-46.467c19.961-16.337,57.457,1.596,75.744,20.237c19.666,20.044,26.073,48.965,24.21,62.2
			c-0.651,4.615-2.206,7.649-4.622,9.018C466.061,1557.757,465.16,1557.982,464.257,1557.982z M427.957,1537.68
			c1.786,0,3.652,0.125,5.608,0.402c11.523,1.635,18.895,7.372,24.277,11.563c3.07,2.387,5.73,4.456,6.942,3.759
			c0.412-0.233,1.799-1.336,2.426-5.791c1.741-12.365-4.362-39.507-22.988-58.492c-17.505-17.841-52.523-34.05-69.793-19.911
			c-10.755,8.802-11.475,27.563-8.562,42.187c3.73,18.735,13.131,33.865,22.855,36.796c5.387,1.621,10.188-0.78,16.263-3.829
			C411.022,1541.334,418.305,1537.68,427.957,1537.68z"/>
		<path d="M557.384,1671.103c-7.902,0-15.957-1.179-23.483-3.595c-13.304-4.272-22.74-11.731-26.573-21.005
			c-9.154-22.143,14.908-51.199,33.317-65.328c33.47-25.69,81.188-25.767,104.377-17.611c5.875,2.066,13.169,5.705,14.54,11.312
			c1.141,4.668-2.193,7.528-8.243,12.723c-4.815,4.132-11.408,9.792-19.849,19.373c-12.945,14.696-18.635,25.486-23.207,34.157
			c-4.832,9.165-8.324,15.787-17.429,21.462C581.851,1668.189,569.81,1671.103,557.384,1671.103z M541.987,1582.928l1.345,1.752
			c-16.667,12.792-40.069,40.429-31.925,60.137c3.33,8.052,11.798,14.617,23.846,18.486c18.19,5.843,39.59,4.048,53.243-4.461
			c8.094-5.043,11.184-10.903,15.859-19.774c4.683-8.877,10.507-19.925,23.802-35.017c8.644-9.813,15.648-15.826,20.285-19.805
			c5.442-4.673,7.303-6.388,6.828-8.322c-0.685-2.791-5.063-5.854-11.713-8.193c-22.256-7.824-68.059-7.739-100.226,16.949
			L541.987,1582.928z"/>
		<path fill="#F5B816" d="M710.11,1454.955c-23.627,3.807-41.434,39.209-32.62,67.751c8.337,27.003,40.337,47.33,62.731,37.64
			c17.836-7.719,23.457-31.828,22.585-47.678C761.171,1483.007,735.061,1450.935,710.11,1454.955z"/>
		<path d="M774.159,1423.932c-0.749,0-1.45-0.123-2.102-0.371c-5.856-2.224-4.835-12.652-3.418-27.084
			c1.706-17.4,3.83-39.054-7.011-45.88c-6.349-3.999-14.316-1.185-22.017,1.54c-7.181,2.538-13.967,4.938-18.469,0.711
			c-6.788-6.376-3.361-23.695,2.107-37.776c8.414-21.653,24.671-43.604,42.035-43.83c7.945-0.135,16.222,4.27,23.828,12.642
			c16.576,18.244,26.484,50.893,23.563,77.631c-3.095,28.319-20.733,53.194-32.275,60.263
			C778.059,1423.212,775.968,1423.932,774.159,1423.932z M754.32,1344.219c3.328,0,6.61,0.719,9.663,2.641
			c13.149,8.279,10.876,31.439,9.052,50.049c-0.891,9.072-2.109,21.499,0.593,22.524c0.637,0.244,2.144,0,4.467-1.423
			c10.768-6.594,27.25-30.062,30.191-56.975c2.797-25.594-6.64-56.791-22.439-74.183c-6.732-7.411-13.855-11.272-20.504-11.195
			c-15.303,0.2-30.1,20.742-37.975,41.013c-5.931,15.269-7.276,29.13-3.201,32.958c2.543,2.388,7.842,0.513,13.973-1.655
			C743.07,1346.229,748.757,1344.219,754.32,1344.219z"/>
		<path d="M683.245,1260.807c-18.59,0.002-37.832-11.987-51.128-24.998c-20.112-19.682-29.722-43.25-24.486-60.043
			c7.091-22.736,39.402-34.721,65.103-31.646c23.686,2.83,51.66,19.519,57.114,49.474c5.44,29.865-13.599,58.343-34.089,65.223
			C691.675,1260.186,687.476,1260.807,683.245,1260.807z M664.332,1148.042c-23.912,0-47.319,12.479-52.482,29.039
			c-4.676,14.991,4.71,37.323,23.356,55.57c19.335,18.923,42.557,27.546,59.146,21.977c18.775-6.304,36.187-32.594,31.152-60.243
			c-5.056-27.752-31.169-43.237-53.293-45.879C669.594,1148.194,666.958,1148.042,664.332,1148.042z M609.74,1176.424h0.021H609.74z
			"/>
		<path fill="#6A8BFF" d="M489.295,1191.48c4.078-27.064,32.328-52.618,50.185-47.677c15.645,4.33,20.188,31.201,25.094,60.223
			c4.333,25.637,10.332,61.122-2.51,67.751C544.025,1281.087,482.478,1236.735,489.295,1191.48z"/>
	</g>
	<g>
		<g>
			<g>
				<polygon fill="#FFFFFF" points="1139.252,1736.472 1142.651,1789.711 1101.134,1786.877 1084.086,1732.502 				"/>
				<path d="M1142.652,1791.92c-0.05,0-0.1-0.003-0.151-0.006l-41.518-2.835c-0.908-0.062-1.685-0.674-1.956-1.542l-17.048-54.374
					c-0.218-0.697-0.078-1.458,0.376-2.031c0.455-0.573,1.138-0.871,1.891-0.833l55.166,3.971c1.099,0.08,1.972,0.96,2.044,2.062
					l3.4,53.239c0.041,0.635-0.193,1.257-0.647,1.705C1143.795,1791.691,1143.234,1791.92,1142.652,1791.92z M1102.79,1784.777
					l37.499,2.561l-3.119-48.801l-50.005-3.599L1102.79,1784.777z"/>
			</g>
			<g>
				<path fill="#FFFFFF" d="M1306.185,1642.486c6.337,4.854,42.678,61.534,42.678,61.534l-34.855,37.616l-47.642-60.557
					L1306.185,1642.486z"/>
				<path d="M1314.006,1743.844c-0.03,0-0.061-0.001-0.089-0.003c-0.646-0.025-1.248-0.333-1.647-0.841l-47.641-60.556
					c-0.698-0.889-0.612-2.163,0.198-2.951l39.821-38.594c0.789-0.762,2.012-0.832,2.882-0.168
					c6.456,4.948,39.449,56.262,43.19,62.097c0.545,0.846,0.444,1.953-0.239,2.692l-34.856,37.615
					C1315.207,1743.588,1314.621,1743.844,1314.006,1743.844z M1269.333,1681.279l44.811,56.96l31.938-34.466
					c-13.421-20.881-33.442-51.008-39.896-58.211L1269.333,1681.279z"/>
			</g>
			<g>
				<g>
					<path fill="#FFFFFF" d="M1338.811,1671.12l37.926,41.057c7.792,8.436,8.11,21.349,0.728,30.144
						c-29.152,34.727-98.913,115.575-112.99,111.245c-33.19-10.207,24.909-135.987,24.909-135.987l22.323,9.454L1338.811,1671.12z"
						/>
					<path d="M1265.721,1855.953c-0.725,0-1.346-0.106-1.897-0.276c-4.178-1.285-7.296-4.174-9.266-8.586
						c-13.327-29.856,30.93-126.346,32.819-130.438c0.5-1.086,1.774-1.571,2.866-1.107l20.392,8.636l26.189-54.023
						c0.317-0.658,0.94-1.115,1.663-1.222c0.722-0.103,1.451,0.148,1.945,0.686l37.925,41.058c8.527,9.231,8.87,23.444,0.798,33.062
						c-16.115,19.197-39.995,46.988-62.24,70.371C1283.415,1849.324,1271.409,1855.952,1265.721,1855.953z M1290.506,1720.452
						c-6.275,13.987-43.446,99.007-31.915,124.838c1.448,3.242,3.584,5.259,6.531,6.164c6.562,2.057,39.451-25.738,110.651-110.555
						c6.646-7.918,6.362-19.621-0.659-27.223l-35.728-38.681l-25.693,53c-0.512,1.06-1.767,1.528-2.847,1.07L1290.506,1720.452z"/>
				</g>
				<path d="M1269.093,1838.029c-0.502,0-1.009-0.172-1.425-0.523c-0.93-0.788-1.045-2.182-0.256-3.113l100.471-118.642
					c0.785-0.928,2.174-1.048,3.113-0.258c0.929,0.788,1.045,2.182,0.256,3.113l-100.472,118.642
					C1270.344,1837.763,1269.721,1838.029,1269.093,1838.029z"/>
				<path d="M1297.907,1769.779c-0.377,0-0.762-0.097-1.113-0.302l-21.428-12.526c-1.052-0.616-1.406-1.968-0.791-3.021
					c0.614-1.051,1.967-1.407,3.021-0.792l21.428,12.526c1.052,0.616,1.406,1.969,0.792,3.021
					C1299.406,1769.387,1298.666,1769.779,1297.907,1769.779z"/>
				<path d="M1280.51,1790.455c-0.439,0-0.886-0.132-1.274-0.405l-11.696-8.281c-0.995-0.705-1.232-2.083-0.527-3.078
					c0.706-0.995,2.081-1.231,3.08-0.527l11.698,8.281c0.993,0.705,1.23,2.083,0.525,3.078
					C1281.884,1790.13,1281.202,1790.455,1280.51,1790.455z"/>
			</g>
			<path fill="#3C3D55" d="M1317.353,1636.332l-50.932,55.947c0,0-140.911-125.267-195.846-194.219
				s-150.888-175.491-109.513-370.205l155.376-0.775C1116.438,1127.08,1154.946,1442.763,1317.353,1636.332z"/>
			<g>
				<g>
					<path fill="#FFFFFF" d="M1147.551,1773.61l10.392,54.816c-1.362,12.202-11.577,21.497-23.854,21.686
						c-48.472,0.743-162.644,0.946-168.997-13.462c-14.979-33.969,127.346-75.046,127.346-75.046l7.983,24.659L1147.551,1773.61z"/>
					<path d="M1099.368,1852.594c-20.973,0-44.235-0.322-65.677-1.325c-59.094-2.768-68.606-9.16-70.62-13.729
						c-1.867-4.233-1.715-8.731,0.452-13.37c14.775-31.606,123.675-63.352,128.303-64.688c1.154-0.325,2.347,0.309,2.714,1.441
						l7.336,22.663l45.103-12.109c0.595-0.158,1.228-0.063,1.746,0.262c0.523,0.327,0.882,0.856,0.996,1.46l10.391,54.816
						c0.041,0.216,0.051,0.438,0.026,0.656c-1.484,13.276-12.668,23.442-26.014,23.648
						C1123.999,1852.475,1112.104,1852.594,1099.368,1852.594z M1091,1764.333c-15.26,4.58-110.601,34.162-123.474,61.707
						c-1.628,3.48-1.761,6.659-0.414,9.718c3.114,7.062,48.611,13.961,166.941,12.145c11.022-0.169,20.277-8.484,21.656-19.4
						l-9.886-52.143l-44.829,12.036c-1.15,0.312-2.315-0.336-2.675-1.452L1091,1764.333z"/>
				</g>
				<path d="M982.67,1830.174c-1.21,0-2.195-0.973-2.208-2.184c-0.013-1.22,0.964-2.219,2.185-2.233l166.213-1.834
					c1.199-0.002,2.222,0.965,2.23,2.184c0.015,1.22-0.963,2.219-2.184,2.233l-166.213,1.834
					C982.685,1830.174,982.679,1830.174,982.67,1830.174z"/>
				<path d="M1057.996,1805.694c-1.044,0-1.971-0.74-2.169-1.803l-4.873-26.086c-0.224-1.199,0.566-2.352,1.765-2.576
					c1.197-0.23,2.354,0.567,2.577,1.766l4.874,26.086c0.223,1.198-0.567,2.352-1.766,2.575
					C1058.268,1805.682,1058.13,1805.694,1057.996,1805.694z"/>
				<path d="M1029.109,1806.105c-1.123,0-2.083-0.854-2.194-1.994l-1.494-15.25c-0.118-1.213,0.769-2.293,1.982-2.412
					c1.244-0.133,2.295,0.77,2.413,1.983l1.492,15.25c0.119,1.213-0.768,2.293-1.981,2.412
					C1029.254,1806.102,1029.181,1806.105,1029.109,1806.105z"/>
			</g>
			<path fill="#3C3D55" d="M1204.892,1098.538c0,0,13.166,103.414-13.925,216.563c-27.091,113.148-49.558,387.984-41.355,440.152
				l-68.435,0.341c0,0-127.272-425.791-27.402-632.474L1204.892,1098.538z"/>
			<path fill="#FFFFFF" d="M1159.019,1596.31c-1.164,0-2.14-0.911-2.202-2.088c-1.71-31.43,6.459-102.165,6.541-102.877
				c0.142-1.21,1.237-2.08,2.447-1.938c1.212,0.14,2.079,1.236,1.94,2.448c-0.082,0.707-8.209,71.071-6.521,102.126
				c0.066,1.218-0.867,2.26-2.084,2.325C1159.1,1596.309,1159.06,1596.31,1159.019,1596.31z"/>
			<path fill="#FFFFFF" d="M1023.538,1443.585c-1.114,0-2.072-0.838-2.194-1.971c-9.077-83.532-10.779-145.683-5.512-201.521
				c0.115-1.214,1.175-2.104,2.403-1.991c1.215,0.114,2.107,1.191,1.991,2.405c-5.234,55.529-3.537,117.405,5.508,200.63
				c0.131,1.212-0.744,2.303-1.956,2.434C1023.696,1443.581,1023.616,1443.585,1023.538,1443.585z"/>
		</g>
		<g>
			<g>
				<path fill="#FFFFFF" d="M970.523,803.984c-77.598,46.888-192.104,58.201-321.093,55.554l33.755,33.456
					c0,0,70.771,74.015,336.179,16.213L970.523,803.984z"/>
				<path d="M838.938,933.39c-37.869,0-66.616-3.789-87.669-8.457c-50.936-11.294-68.937-29.638-69.678-30.414l-33.714-33.413
					c-0.641-0.636-0.83-1.599-0.479-2.43c0.354-0.832,1.169-1.354,2.079-1.347c150.754,3.093,252.416-14.457,319.901-55.236
					c0.537-0.324,1.184-0.409,1.788-0.222c0.6,0.183,1.093,0.613,1.358,1.183l48.842,105.224c0.283,0.608,0.271,1.311-0.026,1.912
					c-0.297,0.601-0.852,1.033-1.507,1.175C944.417,927.791,884.945,933.39,838.938,933.39z M654.901,861.85l29.84,29.575
					c0.215,0.221,18.197,18.382,68.104,29.332c45.856,10.061,128.677,15.893,263.353-13.124l-46.646-100.497
					C902.159,846.973,801.957,864.384,654.901,861.85z"/>
			</g>
			<g>
				<path fill="#6A8BFF" d="M1215.646,1168.447l-264.356-61.089l29.785-176.763l-31.531-0.668l-41.718-129.071
					c0,0,182.979-28.736,307.416-25.367c29.998,0.812,58.478,13.267,79.507,34.677c29.214,29.746,68.968,75.223,79.836,112.067
					l-130.938,49.421l-12.46-18.369C1231.188,953.286,1254.391,1077.283,1215.646,1168.447z"/>
				<path fill="#6A8BFF" d="M1215.646,1170.656c-0.164,0-0.33-0.019-0.499-0.058l-264.356-61.089
					c-1.137-0.263-1.875-1.366-1.681-2.518l29.364-174.244l-28.978-0.613c-0.94-0.021-1.765-0.634-2.054-1.529l-41.717-129.069
					c-0.198-0.615-0.118-1.286,0.221-1.836c0.338-0.55,0.898-0.924,1.537-1.024c1.831-0.288,184.587-28.742,307.818-25.393
					c30.682,0.831,59.454,13.38,81.022,35.337c30.677,31.234,69.525,76.192,80.38,112.99c0.327,1.108-0.258,2.282-1.338,2.69
					l-130.938,49.421c-0.964,0.358-2.034,0.018-2.607-0.825l-6.914-10.193c4.458,31.253,15.021,130.726-17.23,206.608
					C1217.325,1170.14,1216.517,1170.656,1215.646,1170.656z M953.811,1105.675l260.521,60.201
					c37.043-89.365,14.915-210.959,14.685-212.184c-0.191-1.029,0.364-2.051,1.331-2.449c0.966-0.396,2.081-0.064,2.667,0.803
					l11.485,16.929l127.367-48.075c-11.38-35.565-48.917-78.868-78.695-109.186c-20.758-21.138-48.455-33.217-77.989-34.018
					c-114.854-3.111-281.837,21.514-304.457,24.948l40.436,125.106l29.964,0.635c0.64,0.014,1.244,0.307,1.654,0.801
					c0.409,0.494,0.582,1.143,0.476,1.774L953.811,1105.675z"/>
			</g>
			<path d="M1231.189,955.495c-0.832,0-1.628-0.472-2.003-1.273l-23.073-49.413c-0.515-1.105-0.039-2.419,1.067-2.936
				c1.107-0.518,2.42-0.038,2.936,1.067l23.072,49.411c0.517,1.105,0.039,2.42-1.066,2.937
				C1231.819,955.428,1231.502,955.495,1231.189,955.495z"/>
		</g>
		<g>
			<path d="M1123.521,718.542c13.703,3.48,28.817-8.984,33.366-12.735c14.875-12.269,22.893-32.112,16.118-37.788
				c-4.291-3.597-11.512,1.019-16.319-2.711c-7.557-5.863,7.496-22.953,1.463-33.525c-6.788-11.894-29.634,0.924-60.34-12.789
				c-14.061-6.279-16.865-12.36-26.497-11.619c-14.804,1.139-30.77,17.244-28.914,29.873c2.284,15.536,29.402,10.887,51.547,36.053
				C1112.901,694.845,1107.971,714.592,1123.521,718.542z"/>
			<g>
				<path fill="#FFFFFF" d="M1057.909,700.829c5.812-7.419,10.708-15.619,14.161-26.81c3.981-12.907,7.95-22.175,7.95-22.175
					c55.597,7.528,38.315,41.904,38.315,41.904s15.372-6.87,15.447,7.195c0.028,5.127-6.577,12.438-10.715,14.593l30.445,62.444
					c-48.573,20.475-77.212,5.412-77.212,5.412l10.055-44.282c-10.11,1.417-18.64-0.759-18.64-0.759
					c-2.483-5.313-3.559-11.779-3.674-18.759c-0.106-6.325-3.939-11.996-9.688-14.636L1057.909,700.829z"/>
				<path d="M1104.843,790.997c-18.477,0.001-28.856-5.275-29.57-5.649c-0.884-0.466-1.346-1.469-1.126-2.444l9.373-41.266
					c-8.979,0.699-16.02-1.063-16.347-1.147c-0.641-0.163-1.175-0.605-1.456-1.203c-2.447-5.236-3.755-11.851-3.882-19.658
					c-0.09-5.392-3.388-10.364-8.402-12.667c-0.629-0.29-1.087-0.858-1.235-1.536c-0.146-0.679,0.033-1.386,0.485-1.911l3.52-4.088
					c6.53-8.344,10.771-16.383,13.759-26.06c3.968-12.868,7.99-22.299,8.031-22.393c0.39-0.911,1.346-1.461,2.324-1.319
					c20.804,2.816,34.219,9.684,39.873,20.412c4.08,7.737,3.064,15.523,1.754,20.226c2.949-0.631,6.771-0.834,9.771,1.102
					c2.814,1.814,4.255,5.021,4.278,9.535c0.028,5.268-5.469,12.132-10.068,15.422l29.575,60.66
					c0.267,0.545,0.297,1.176,0.084,1.745c-0.213,0.567-0.651,1.023-1.209,1.258
					C1134.331,788.463,1117.643,790.995,1104.843,790.997z M1078.856,782.109c6.343,2.55,32.115,10.712,71.644-5.273l-29.416-60.332
					c-0.526-1.076-0.097-2.373,0.964-2.926c3.606-1.879,9.55-8.556,9.528-12.624c-0.016-2.922-0.772-4.888-2.249-5.843
					c-2.869-1.858-8.26-0.157-10.094,0.653c-0.844,0.377-1.85,0.18-2.494-0.495c-0.644-0.676-0.794-1.681-0.376-2.515
					c0.051-0.102,5.191-10.687-0.104-20.67c-4.822-9.093-16.543-15.083-34.852-17.814c-1.277,3.148-4.264,10.791-7.227,20.399
					c-3.157,10.23-7.639,18.718-14.533,27.521c-0.021,0.027-0.043,0.053-0.065,0.079l-1.787,2.077
					c5.113,3.375,8.353,9.083,8.456,15.209c0.11,6.688,1.128,12.358,3.029,16.876c2.482,0.489,9.2,1.549,16.77,0.492
					c0.719-0.098,1.444,0.158,1.933,0.692c0.491,0.535,0.688,1.275,0.528,1.984L1078.856,782.109z M1057.91,700.829h0.022H1057.91z"
					/>
			</g>
			<path d="M1086.355,741.318c-0.982,0-1.883-0.663-2.138-1.661c-0.302-1.182,0.41-2.385,1.592-2.687l5.792-1.482
				c1.181-0.307,2.386,0.41,2.688,1.591c0.301,1.182-0.411,2.385-1.593,2.687l-5.792,1.483
				C1086.723,741.296,1086.536,741.318,1086.355,741.318z"/>
		</g>
		<g>
			<g>
				<path fill="#FFFFFF" d="M604.344,828.35l79.548-89.982l531.943,504.895l42.469,69.077c6.152,10.006-4.521,21.862-15.281,16.969
					c-31.371-14.265-72.502-33.152-75.254-35.355L604.344,828.35z"/>
				<path d="M1248.155,1332.654c-2.017,0-4.069-0.437-6.047-1.336c-72.217-32.837-74.853-34.948-75.719-35.642l-563.45-465.624
					c-0.462-0.382-0.749-0.934-0.797-1.53c-0.047-0.596,0.151-1.187,0.548-1.634l79.547-89.983c0.396-0.449,0.96-0.718,1.557-0.744
					c0.581-0.024,1.183,0.191,1.619,0.604l531.942,504.895c0.138,0.132,0.261,0.282,0.36,0.444l42.469,69.077
					c3.295,5.357,2.73,11.873-1.439,16.598C1255.931,1330.968,1252.112,1332.654,1248.155,1332.654z M607.511,828.102
					l561.665,464.147c1.003,0.765,10.355,5.763,74.761,35.049c4.926,2.239,9.27,0.083,11.498-2.441
					c2.271-2.575,3.724-6.912,0.989-11.361l-42.318-68.83L684.031,741.544L607.511,828.102z"/>
			</g>
			<g>
				<polygon fill="#FFFFFF" points="604.344,828.35 683.892,738.368 801.694,850.18 730.23,932.379 				"/>
				<path d="M730.229,934.587c-0.496,0-0.996-0.166-1.406-0.506L602.939,830.053c-0.462-0.382-0.749-0.934-0.797-1.53
					c-0.047-0.596,0.151-1.187,0.548-1.634l79.547-89.983c0.396-0.449,0.96-0.718,1.557-0.744c0.581-0.024,1.183,0.191,1.619,0.604
					L803.214,848.58c0.858,0.813,0.921,2.158,0.146,3.051l-71.464,82.198C731.461,934.33,730.847,934.587,730.229,934.587z
					 M607.511,828.102l122.464,101.203l68.665-78.978L684.031,741.544L607.511,828.102z"/>
			</g>
			<path fill="#FF4B61" d="M466.324,773.559c58.442,49.252,106.205,61.476,143.065,50.805c0.015-0.004,0.044-0.013,0.044-0.013
				l70.772-80.921c0,0,0.021-0.143,0.031-0.215c5.393-37.904-14.17-83.001-73.212-132.761
				c-87.654-73.872-281.101-96.061-281.101-96.061S378.67,699.687,466.324,773.559z"/>
		</g>
		<g>
			<path fill="#FFFFFF" d="M681.638,896.175c0,0-75.878-27.542-20.971-74.911L681.638,896.175z"/>
			<path d="M681.638,898.383c-0.252,0-0.509-0.043-0.753-0.133c-1.524-0.553-37.373-13.83-41.906-38.485
				c-2.392-13.005,4.421-26.521,20.246-40.173c0.574-0.494,1.361-0.659,2.081-0.442c0.723,0.219,1.285,0.792,1.488,1.52
				l20.971,74.91c0.224,0.797-0.017,1.652-0.626,2.215C682.725,898.179,682.186,898.383,681.638,898.383z M659.495,825.27
				c-12.69,11.724-18.129,23.049-16.173,33.697c3.23,17.564,25.601,29.252,34.966,33.428L659.495,825.27z"/>
		</g>
		<g>
			<path fill="#FFFFFF" d="M1360.15,928.5l-97.288,35.903c0,0,16.44,151.979-88.624,204.25c0,0-56.939-7.045-76.656,26.78
				c0,0,39.86-1.801,73.224,7.384C1204.167,1212,1402.945,1154.683,1360.15,928.5z"/>
			<path d="M1179.363,1205.938c-3.684,0-6.77-0.339-9.146-0.992c-32.627-8.981-72.138-7.326-72.535-7.307
				c-0.796,0.021-1.57-0.371-1.988-1.063c-0.418-0.691-0.425-1.557-0.02-2.254c19.277-33.072,71.3-28.671,78.164-27.938
				c101.818-51.248,86.992-200.242,86.83-201.744c-0.132-1.213,0.747-2.302,1.958-2.433c1.214-0.136,2.301,0.746,2.433,1.958
				c0.041,0.383,4.043,38.849-4.945,83.199c-11.945,58.954-41.301,101.578-84.891,123.266c-0.386,0.192-0.83,0.269-1.253,0.215
				c-0.535-0.069-51.712-5.996-72.247,22.276c11.244-0.16,42.697,0.142,69.668,7.564c17.996,4.958,79.165-9.497,127.104-53.671
				c39.138-36.067,81.229-103.184,59.487-218.105c-0.227-1.199,0.561-2.354,1.76-2.58c1.201-0.234,2.353,0.561,2.579,1.758
				c22.12,116.913-20.873,185.35-60.837,222.176C1258.593,1189.79,1204.807,1205.937,1179.363,1205.938z"/>
		</g>
	</g>
	<g>
		<g>
			<path d="M214.84,115.856c-1.201,0-2.187-0.963-2.208-2.169c-0.021-1.22,0.949-2.226,2.169-2.247l15.036-0.267
				c1.205-0.007,2.226,0.949,2.247,2.169c0.021,1.22-0.949,2.226-2.169,2.248l-15.036,0.266
				C214.866,115.856,214.853,115.856,214.84,115.856z"/>
			<path d="M162.214,116.79c-1.202,0-2.187-0.963-2.209-2.169c-0.021-1.22,0.95-2.226,2.17-2.247l15.035-0.267
				c1.221-0.031,2.226,0.95,2.247,2.17c0.021,1.219-0.949,2.226-2.168,2.247l-15.037,0.266
				C162.239,116.79,162.227,116.79,162.214,116.79z"/>
			<path d="M195.989,97.669c-1.216,0-2.204-0.984-2.208-2.202l-0.043-14.817c-0.004-1.219,0.98-2.211,2.201-2.214
				c0.003,0,0.005,0,0.007,0c1.218,0,2.204,0.984,2.209,2.202l0.042,14.816c0.005,1.22-0.98,2.211-2.201,2.215
				C195.995,97.669,195.992,97.669,195.989,97.669z"/>
			<path d="M196.143,149.528c-1.217,0-2.204-0.984-2.208-2.202l-0.044-14.817c-0.004-1.22,0.982-2.212,2.202-2.215
				c0.002,0,0.005,0,0.007,0c1.216,0,2.204,0.984,2.208,2.202l0.043,14.818c0.005,1.22-0.979,2.211-2.201,2.215
				C196.146,149.528,196.145,149.528,196.143,149.528z"/>
		</g>
		<g>
			<path d="M427.946,1825.026c-0.027,0-0.054,0-0.081-0.002c-87.425-3.148-171.562-21.135-250.068-53.461
				c-1.128-0.465-1.665-1.755-1.201-2.883c0.464-1.129,1.755-1.662,2.883-1.201c78.022,32.126,161.646,50.003,248.546,53.131
				c1.219,0.044,2.172,1.067,2.126,2.287C430.108,1824.088,429.129,1825.026,427.946,1825.026z"/>
			<path d="M467.535,1825.429c-1.205,0-2.189-0.967-2.209-2.174c-0.02-1.22,0.955-2.224,2.174-2.243
				c11.596-0.181,23.364-0.626,34.978-1.325c1.242-0.081,2.265,0.854,2.338,2.071s-0.854,2.264-2.069,2.337
				c-11.682,0.704-23.515,1.152-35.177,1.334C467.557,1825.429,467.546,1825.429,467.535,1825.429z"/>
			<path d="M444.829,1779.48c-68.057,0-134.544-10.017-198.697-30.001c-1.163-0.362-1.813-1.601-1.451-2.765
				c0.364-1.163,1.6-1.811,2.767-1.451c98.123,30.565,201.801,37.662,308.144,21.086c1.236-0.174,2.336,0.639,2.523,1.843
				s-0.638,2.333-1.842,2.521C518.76,1776.56,481.559,1779.48,444.829,1779.48z"/>
			<path d="M140.609,1776.637c-7.808,0-14.89-5.366-16.733-13.289c-2.146-9.228,3.614-18.479,12.841-20.626
				c9.221-2.144,18.479,3.613,20.625,12.841c1.041,4.469,0.279,9.077-2.148,12.972c-2.424,3.896-6.222,6.614-10.691,7.654
				C143.199,1776.492,141.892,1776.637,140.609,1776.637z M128.177,1762.347c1.594,6.854,8.475,11.133,15.324,9.539
				c3.321-0.771,6.142-2.791,7.944-5.686c1.801-2.894,2.369-6.316,1.596-9.638c-1.596-6.855-8.469-11.138-15.324-9.538
				C130.863,1748.619,126.585,1755.493,128.177,1762.347z"/>
		</g>
	</g>
	<rect x="661.246" y="288.445" fill="#6A8BFF" width="126" height="125"/>
	<rect x="925.746" y="264.945" fill="none" stroke="#3E74F2" stroke-width="3" stroke-miterlimit="10" width="126" height="125"/>
</g>
</svg>
