<svg width="485" height="424" viewBox="0 0 485 424" fill="none" xmlns="http://www.w3.org/2000/svg">
<path d="M59.715 288.154C74.949 333.846 120.649 410 242.515 410C364.382 410 410.082 333.846 425.315 288.154M471 257.692C471 227.231 410.082 74.923 242.5 74.923M242.5 74.923C74.949 74.923 14 227.231 14 257.692M242.5 74.923V14M321.345 24.381L306.111 81.177M394.833 54.814L364.351 107.558M457.924 103.213L414.844 146.27M163.626 24.381L178.844 81.177M90.151 54.814L120.618 107.573M27.061 103.213L70.141 146.285M242.515 151.077C192.047 151.077 151.115 192.002 151.115 242.462C151.115 292.921 192.047 333.846 242.515 333.846C292.983 333.846 333.915 292.921 333.915 242.462M322.385 198.093C314.098 183.197 301.774 170.891 286.891 162.605M272.982 242.462C272.982 225.647 259.333 212 242.515 212C225.698 212 212.049 225.647 212.049 242.462C212.049 259.276 225.698 272.923 242.515 272.923C259.333 272.923 272.982 259.276 272.982 242.462Z" stroke="white" stroke-width="27" stroke-linecap="round" stroke-linejoin="round"/>
</svg>
